<?xml version="1.0" ?><!-- Uploaded to: SVG Repo, www.svgrepo.com, Generator: SVG Repo Mixer Tools -->
<svg fill="#000000" width="800px" height="800px" viewBox="0 0 24 24" id="Layer_2" version="1.1" xml:space="preserve" xmlns="http://www.w3.org/2000/svg" xmlns:xlink="http://www.w3.org/1999/xlink"><path d="M18.467,2.81H5.533C4.136,2.81,3,3.946,3,5.342v8.125C3,14.864,4.136,16,5.533,16h4.068l-0.483,1.468H8.513  c-1.47,0-2.667,1.196-2.667,2.667c0,0.582,0.474,1.056,1.056,1.056h10.196c0.582,0,1.056-0.474,1.056-1.056  c0-1.47-1.196-2.667-2.667-2.667h-0.594L14.46,16h4.007C19.864,16,21,14.864,21,13.467V5.342C21,3.946,19.864,2.81,18.467,2.81z   M17.154,20.135c0,0.031-0.025,0.056-0.056,0.056L6.846,20.135c0-0.919,0.748-1.667,1.667-1.667H9.48h5.04h0.967  C16.406,18.468,17.154,19.216,17.154,20.135z M13.851,17.468h-3.68L10.653,16h2.765L13.851,17.468z M20,13.467  C20,14.313,19.313,15,18.467,15h-4.676h-3.5H5.533C4.688,15,4,14.313,4,13.467V5.342C4,4.497,4.688,3.81,5.533,3.81h12.935  C19.313,3.81,20,4.497,20,5.342V13.467z"/><path d="M17.83,4.473H6.17c-0.783,0-1.42,0.637-1.42,1.42v6.771c0,0.783,0.637,1.42,1.42,1.42h11.66c0.783,0,1.42-0.637,1.42-1.42  V5.893C19.25,5.11,18.613,4.473,17.83,4.473z M18.25,12.664c0,0.231-0.188,0.42-0.42,0.42H6.17c-0.231,0-0.42-0.188-0.42-0.42V5.893  c0-0.231,0.188-0.42,0.42-0.42h11.66c0.231,0,0.42,0.188,0.42,0.42V12.664z"/></svg>