# Made in Blockbench 4.10.4
mtllib cyllinder.mtl

o cuboid
v 0.5 1 0.5
v 0.5 1 -0.5
v 0.5 0 0.5
v 0.5 0 -0.5
v -0.5 1 0.5
v -0.5 1 -0.5
v -0.5 0 0.5
v -0.5 0 -0.5
vt 1 1
vt 0 1
vt 0 0
vt 1 0
vt 1 0
vt 1 1
vt 0 1
vt 0 0
vt 0 0
vt 1 0
vt 1 1
vt 0 1
vt 1 0
vt 1 1
vt 0 1
vt 0 0
vt 1 0
vt 1 1
vt 0 1
vt 0 0
vt 1 1
vt 0 1
vt 0 0
vt 1 0
vn 1 0 0
vn -1 0 0
vn 0 1 0
vn 0 -1 0
vn 0 0 1
vn 0 0 -1
usemtl none
f 2/1/1 1/2/1 3/3/1 4/4/1
f 7/5/2 5/6/2 6/7/2 8/8/2
f 5/9/3 1/10/3 2/11/3 6/12/3
f 4/13/4 3/14/4 7/15/4 8/16/4
f 3/17/5 1/18/5 5/19/5 7/20/5
f 6/21/6 2/22/6 4/23/6 8/24/6
o cylinder
v 0 0 0
v 0 1 0
v 0.05633646995005552 0 0.5
v 0.05633646995005552 1 0.5
v 0.1661844640062589 0 0.4749279121818236
v 0.1661844640062589 1 0.4749279121818236
v 0.26769927511129926 0 0.4260409557205955
v 0.26769927511129926 1 0.4260409557205955
v 0.3557905267474343 0 0.35579052674743433
v 0.3557905267474343 1 0.35579052674743433
v 0.4260409557205955 0 0.26769927511129926
v 0.4260409557205955 1 0.26769927511129926
v 0.4749279121818236 0 0.16618446400625891
v 0.4749279121818236 1 0.16618446400625891
v 0.5 0 0.056336469950055555
v 0.5 1 0.056336469950055555
v 0.5 0 -0.05633646995005549
v 0.5 1 -0.05633646995005549
v 0.4749279121818237 0 -0.16618446400625875
v 0.4749279121818237 1 -0.16618446400625875
v 0.4260409557205956 0 -0.2676992751112992
v 0.4260409557205956 1 -0.2676992751112992
v 0.35579052674743433 0 -0.3557905267474343
v 0.35579052674743433 1 -0.3557905267474343
v 0.2676992751112993 0 -0.4260409557205955
v 0.2676992751112993 1 -0.4260409557205955
v 0.16618446400625894 0 -0.4749279121818236
v 0.16618446400625894 1 -0.4749279121818236
v 0.05633646995005559 0 -0.5
v 0.05633646995005559 1 -0.5
v -0.05633646995005569 0 -0.49999999999999994
v -0.05633646995005569 1 -0.49999999999999994
v -0.1661844640062588 0 -0.4749279121818236
v -0.1661844640062588 1 -0.4749279121818236
v -0.2676992751112992 0 -0.4260409557205956
v -0.2676992751112992 1 -0.4260409557205956
v -0.3557905267474343 0 -0.3557905267474344
v -0.3557905267474343 1 -0.3557905267474344
v -0.4260409557205955 0 -0.2676992751112993
v -0.4260409557205955 1 -0.2676992751112993
v -0.47492791218182356 0 -0.16618446400625897
v -0.47492791218182356 1 -0.16618446400625897
v -0.5 0 -0.05633646995005562
v -0.5 1 -0.05633646995005562
v -0.5 0 0.05633646995005543
v -0.5 1 0.05633646995005543
v -0.4749279121818236 0 0.16618446400625878
v -0.4749279121818236 1 0.16618446400625878
v -0.4260409557205956 0 0.26769927511129915
v -0.4260409557205956 1 0.26769927511129915
v -0.3557905267474344 0 0.3557905267474342
v -0.3557905267474344 1 0.3557905267474342
v -0.2676992751112994 0 0.42604095572059547
v -0.2676992751112994 1 0.42604095572059547
v -0.166184464006259 0 0.47492791218182356
v -0.166184464006259 1 0.47492791218182356
v -0.056336469950055645 0 0.5
v -0.056336469950055645 1 0.5
vt 0.5031620422699331 0.8880327646371299
vt 0.4905479101081215 1
vt 0 0.88803276463713
vt 0 0
vt 0.112675 0
vt 0.112675 1
vt 0 1
vt 0 0.4968360963798675
vt 0.11196682116337293 0.509453904571834
vt 2.3592239273284576e-16 1
vt 0.503166539938878 0.888040494895153
vt 0.4905477652562773 1
vt 0 0.8880404948951532
vt 0 0
vt 0.112675 0
vt 0.112675 1
vt 0 1
vt 2.7755575615628914e-17 0.4968379577300669
vt 0.11196050588937939 0.5094478498313796
vt 0 1
vt 0.5031595078228175 0.8880340606164926
vt 0.49055091003078494 1
vt 0 0.8880340606164925
vt 0 0
vt 0.112675 0
vt 0.112675 1
vt 0 1
vt 1.942890293094024e-16 0.49683346006112206
vt 0.11196437457858105 0.5094559457727297
vt 0 1
vt 0.5031665399388779 0.8880356254214191
vt 0.49054405422727043 1
vt 0 0.8880356254214195
vt 0 0
vt 0.112675 0
vt 0.112675 1
vt 0 1
vt 5.551115123125783e-17 0.4968404921771825
vt 0.11196593938350746 0.509449089969215
vt 0 1
vt 0.5031620422699331 0.8880394941106207
vt 0.4905521501686204 1
vt 0 0.8880394941106207
vt 0 0
vt 0.112675 0
vt 0.112675 1
vt 0 1
vt 0 0.49683346006112195
vt 0.111959505104847 0.5094522347437227
vt 2.7755575615628914e-16 1
vt 0.5031639036201325 0.888033178836627
vt 0.49054609542816596 1
vt 0 0.8880331788366274
vt 0 0
vt 0.112675 0
vt 0.112675 1
vt 0 1
vt 0 0.4968379577300669
vt 0.11196723536287008 0.5094520898918785
vt 2.7755575615628914e-17 1
vt 0.5 0.887325
vt 0.5 1
vt 0 0.9436625
vt 0 0
vt 0.112675 0
vt 0.112675 1
vt 0 1
vt 0.5 0.887325
vt 0.5 1
vt 0 0.9436625
vt 0 0.4968379577300669
vt 0.11196723536287008 0.5094520898918785
vt 2.7755575615628914e-17 1
vt 0 0
vt 0.112675 0
vt 0.112675 1
vt 0 1
vt 0.5031639036201325 0.888033178836627
vt 0.49054609542816596 1
vt 0 0.8880331788366274
vt 0 0.49683346006112195
vt 0.111959505104847 0.5094522347437227
vt 2.7755575615628914e-16 1
vt 0 0
vt 0.112675 0
vt 0.112675 1
vt 0 1
vt 0.5031620422699331 0.8880394941106207
vt 0.4905521501686204 1
vt 0 0.8880394941106207
vt 5.551115123125783e-17 0.4968404921771825
vt 0.11196593938350746 0.509449089969215
vt 0 1
vt 0 0
vt 0.112675 0
vt 0.112675 1
vt 0 1
vt 0.5031665399388779 0.8880356254214191
vt 0.49054405422727043 1
vt 0 0.8880356254214195
vt 1.942890293094024e-16 0.49683346006112206
vt 0.11196437457858105 0.5094559457727297
vt 0 1
vt 0 0
vt 0.112675 0
vt 0.112675 1
vt 0 1
vt 0.5031595078228175 0.8880340606164926
vt 0.49055091003078494 1
vt 0 0.8880340606164925
vt 2.7755575615628914e-17 0.4968379577300669
vt 0.11196050588937939 0.5094478498313796
vt 0 1
vt 0 0
vt 0.112675 0
vt 0.112675 1
vt 0 1
vt 0.503166539938878 0.888040494895153
vt 0.4905477652562773 1
vt 0 0.8880404948951532
vt 0 0.4968360963798675
vt 0.11196682116337293 0.509453904571834
vt 2.3592239273284576e-16 1
vt 0 0
vt 0.112675 0
vt 0.112675 1
vt 0 1
vt 0.5031620422699331 0.8880327646371299
vt 0.4905479101081215 1
vt 0 0.88803276463713
vt 0 0.5
vt 0.112675 0.5
vt 0.0563375 1
vt 0 0
vt 0.112675 0
vt 0.112675 1
vt 0 1
vt 0.112675 1
vt 0 1
vt 0.0563375 0.5
vt 0 1
vt 0.01261413216181162 0.8880327646371299
vt 0.5031620422699331 1
vt 0 0
vt 0.112675 0
vt 0.112675 1
vt 0 1
vt 0.11196682116337293 1
vt 0 0.9873821918080333
vt 0.11196682116337295 0.4968360963798675
vt 0 1
vt 0.012618774682600753 0.888040494895153
vt 0.503166539938878 0.9999999999999998
vt 0 0
vt 0.112675 0
vt 0.112675 1
vt 0 1
vt 0.11196050588937939 1
vt 0 0.9873901078986873
vt 0.11196050588937914 0.4968379577300668
vt 0 1
vt 0.01260859779203255 0.8880340606164925
vt 0.5031595078228175 1
vt 0 0
vt 0.112675 0
vt 0.112675 1
vt 0 1
vt 0.11196437457858083 1
vt 0 0.9873775142883923
vt 0.11196437457858083 0.49683346006112195
vt 0 0.9999999999999998
vt 0.012622485711607567 0.888035625421419
vt 0.5031665399388779 1
vt 0 0
vt 0.112675 0
vt 0.112675 1
vt 0 1
vt 0.1119659393835074 1
vt 0 0.9873914022079675
vt 0.11196593938350746 0.4968404921771825
vt 0 1
vt 0.012609892101312692 0.8880394941106207
vt 0.5031620422699331 1
vt 0 0
vt 0.112675 0
vt 0.112675 1
vt 0 1
vt 0.11195950510484698 1
vt 0 0.9873812253173992
vt 0.11195950510484726 0.49683346006112195
vt 0 1
vt 0.012617808191966562 0.888033178836627
vt 0.5031639036201325 0.9999999999999998
vt 0 0
vt 0.112675 0
vt 0.112675 1
vt 0 1
vt 0.1119672353628701 1
vt 0 0.9873858678381884
vt 0.11196723536287007 0.4968379577300669
vt 0 1
vt 0 0.887325
vt 0.5 0.9436625
vt 0 0
vt 0.112675 0
vt 0.112675 1
vt 0 1
vt 0 1
vt 0 0.887325
vt 0.5 0.9436625
vt 0.1119672353628701 1
vt 0 0.9873858678381884
vt 0.11196723536287007 0.4968379577300669
vt 0 0
vt 0.112675 0
vt 0.112675 1
vt 0 1
vt 0 1
vt 0.012617808191966562 0.888033178836627
vt 0.5031639036201325 0.9999999999999998
vt 0.11195950510484698 1
vt 0 0.9873812253173992
vt 0.11195950510484726 0.49683346006112195
vt 0 0
vt 0.112675 0
vt 0.112675 1
vt 0 1
vt 0 1
vt 0.012609892101312692 0.8880394941106207
vt 0.5031620422699331 1
vt 0.1119659393835074 1
vt 0 0.9873914022079675
vt 0.11196593938350746 0.4968404921771825
vt 0 0
vt 0.112675 0
vt 0.112675 1
vt 0 1
vt 0 0.9999999999999998
vt 0.012622485711607567 0.888035625421419
vt 0.5031665399388779 1
vt 0.11196437457858083 1
vt 0 0.9873775142883923
vt 0.11196437457858083 0.49683346006112195
vt 0 0
vt 0.112675 0
vt 0.112675 1
vt 0 1
vt 0 1
vt 0.01260859779203255 0.8880340606164925
vt 0.5031595078228175 1
vt 0.11196050588937939 1
vt 0 0.9873901078986873
vt 0.11196050588937914 0.4968379577300668
vt 0 0
vt 0.112675 0
vt 0.112675 1
vt 0 1
vt 0 1
vt 0.012618774682600753 0.888040494895153
vt 0.503166539938878 0.9999999999999998
vt 0.11196682116337293 1
vt 0 0.9873821918080333
vt 0.11196682116337295 0.4968360963798675
vt 0 0
vt 0.112675 0
vt 0.112675 1
vt 0 1
vt 0 1
vt 0.01261413216181162 0.8880327646371299
vt 0.5031620422699331 1
vt 0.112675 1
vt 0 1
vt 0.0563375 0.5
vt 0 0
vt 0.112675 0
vt 0.112675 1
vt 0 1
vt 0 0.5
vt 0.112675 0.5
vt 0.0563375 1
vn 0 -1 0
vn 0.22252093395631428 0 0.9749279121818236
vn 0 1 0
vn 0 -1 0
vn 0.43388373911755806 0 0.9009688679024191
vn 0 1 0
vn 0 -1 0
vn 0.6234898018587335 0 0.7818314824680299
vn 0 1 0
vn 0 -1 0
vn 0.78183148246803 0 0.6234898018587336
vn 0 1 0
vn 0 -1 0
vn 0.9009688679024193 0 0.4338837391175583
vn 0 1 0
vn 0 -1 0
vn 0.9749279121818236 0 0.2225209339563143
vn 0 1 0
vn 0 -1 0
vn 1 0 0
vn 0 1 0
vn 0 -1 0
vn 0.9749279121818238 0 -0.22252093395631406
vn 0 1 0
vn 0 -1 0
vn 0.9009688679024193 0 -0.43388373911755784
vn 0 1 0
vn 0 -1 0
vn 0.78183148246803 0 -0.6234898018587336
vn 0 1 0
vn 0 -1 0
vn 0.6234898018587338 0 -0.7818314824680297
vn 0 1 0
vn 0 -1 0
vn 0.43388373911755806 0 -0.9009688679024191
vn 0 1 0
vn 0 -1 0
vn 0.2225209339563143 0 -0.9749279121818236
vn 0 1 0
vn 0 -1 0
vn -4.926750937755819e-16 0 -1
vn 0 1 0
vn 0 -1 0
vn -0.22252093395631428 0 -0.9749279121818236
vn 0 1 0
vn 0 -1 0
vn -0.4338837391175576 0 -0.9009688679024194
vn 0 1 0
vn 0 -1 0
vn -0.6234898018587333 0 -0.7818314824680301
vn 0 1 0
vn 0 -1 0
vn -0.78183148246803 0 -0.6234898018587336
vn 0 1 0
vn 0 -1 0
vn -0.9009688679024193 0 -0.4338837391175578
vn 0 1 0
vn 0 -1 0
vn -0.9749279121818235 0 -0.22252093395631478
vn 0 1 0
vn 0 -1 0
vn -1 0 0
vn 0 1 0
vn 0 -1 0
vn -0.9749279121818236 0 0.2225209339563143
vn 0 1 0
vn 0 -1 0
vn -0.9009688679024194 0 0.43388373911755773
vn 0 1 0
vn 0 -1 0
vn -0.7818314824680301 0 0.6234898018587333
vn 0 1 0
vn 0 -1 0
vn -0.6234898018587338 0 0.7818314824680297
vn 0 1 0
vn 0 -1 0
vn -0.43388373911755806 0 0.9009688679024191
vn 0 1 0
vn 0 -1 0
vn -0.22252093395631478 0 0.9749279121818235
vn 0 1 0
vn 0 -1 0
vn 0 0 1
vn 0 1 0
usemtl none
f 13/25/7 11/26/7 9/27/7
f 11/28/8 13/29/8 14/30/8 12/31/8
f 12/32/9 14/33/9 10/34/9
f 15/35/10 13/36/10 9/37/10
f 13/38/11 15/39/11 16/40/11 14/41/11
f 14/42/12 16/43/12 10/44/12
f 17/45/13 15/46/13 9/47/13
f 15/48/14 17/49/14 18/50/14 16/51/14
f 16/52/15 18/53/15 10/54/15
f 19/55/16 17/56/16 9/57/16
f 17/58/17 19/59/17 20/60/17 18/61/17
f 18/62/18 20/63/18 10/64/18
f 21/65/19 19/66/19 9/67/19
f 19/68/20 21/69/20 22/70/20 20/71/20
f 20/72/21 22/73/21 10/74/21
f 23/75/22 21/76/22 9/77/22
f 21/78/23 23/79/23 24/80/23 22/81/23
f 22/82/24 24/83/24 10/84/24
f 25/85/25 23/86/25 9/87/25
f 23/88/26 25/89/26 26/90/26 24/91/26
f 24/92/27 26/93/27 10/94/27
f 27/95/28 25/96/28 9/97/28
f 25/98/29 27/99/29 28/100/29 26/101/29
f 26/102/30 28/103/30 10/104/30
f 29/105/31 27/106/31 9/107/31
f 27/108/32 29/109/32 30/110/32 28/111/32
f 28/112/33 30/113/33 10/114/33
f 31/115/34 29/116/34 9/117/34
f 29/118/35 31/119/35 32/120/35 30/121/35
f 30/122/36 32/123/36 10/124/36
f 33/125/37 31/126/37 9/127/37
f 31/128/38 33/129/38 34/130/38 32/131/38
f 32/132/39 34/133/39 10/134/39
f 35/135/40 33/136/40 9/137/40
f 33/138/41 35/139/41 36/140/41 34/141/41
f 34/142/42 36/143/42 10/144/42
f 37/145/43 35/146/43 9/147/43
f 35/148/44 37/149/44 38/150/44 36/151/44
f 36/152/45 38/153/45 10/154/45
f 39/155/46 37/156/46 9/157/46
f 37/158/47 39/159/47 40/160/47 38/161/47
f 38/162/48 40/163/48 10/164/48
f 41/165/49 39/166/49 9/167/49
f 39/168/50 41/169/50 42/170/50 40/171/50
f 40/172/51 42/173/51 10/174/51
f 43/175/52 41/176/52 9/177/52
f 41/178/53 43/179/53 44/180/53 42/181/53
f 42/182/54 44/183/54 10/184/54
f 45/185/55 43/186/55 9/187/55
f 43/188/56 45/189/56 46/190/56 44/191/56
f 44/192/57 46/193/57 10/194/57
f 47/195/58 45/196/58 9/197/58
f 45/198/59 47/199/59 48/200/59 46/201/59
f 46/202/60 48/203/60 10/204/60
f 49/205/61 47/206/61 9/207/61
f 47/208/62 49/209/62 50/210/62 48/211/62
f 48/212/63 50/213/63 10/214/63
f 51/215/64 49/216/64 9/217/64
f 49/218/65 51/219/65 52/220/65 50/221/65
f 50/222/66 52/223/66 10/224/66
f 53/225/67 51/226/67 9/227/67
f 51/228/68 53/229/68 54/230/68 52/231/68
f 52/232/69 54/233/69 10/234/69
f 55/235/70 53/236/70 9/237/70
f 53/238/71 55/239/71 56/240/71 54/241/71
f 54/242/72 56/243/72 10/244/72
f 57/245/73 55/246/73 9/247/73
f 55/248/74 57/249/74 58/250/74 56/251/74
f 56/252/75 58/253/75 10/254/75
f 59/255/76 57/256/76 9/257/76
f 57/258/77 59/259/77 60/260/77 58/261/77
f 58/262/78 60/263/78 10/264/78
f 61/265/79 59/266/79 9/267/79
f 59/268/80 61/269/80 62/270/80 60/271/80
f 60/272/81 62/273/81 10/274/81
f 63/275/82 61/276/82 9/277/82
f 61/278/83 63/279/83 64/280/83 62/281/83
f 62/282/84 64/283/84 10/284/84
f 65/285/85 63/286/85 9/287/85
f 63/288/86 65/289/86 66/290/86 64/291/86
f 64/292/87 66/293/87 10/294/87
f 11/295/88 65/296/88 9/297/88
f 65/298/89 11/299/89 12/300/89 66/301/89
f 66/302/90 12/303/90 10/304/90