<?xml version="1.0" encoding="UTF-8" standalone="no"?>
<!-- Generator: Adobe Illustrator 16.0.0, SVG Export Plug-In . SVG Version: 6.00 Build 0)  -->

<svg
   version="1.1"
   id="Layer_1"
   x="0px"
   y="0px"
   width="141.73px"
   height="141.73px"
   viewBox="0 0 141.73 141.73"
   enable-background="new 0 0 141.73 141.73"
   xml:space="preserve"
   sodipodi:docname="lovemod.svg"
   inkscape:version="1.3.2 (091e20e, 2023-11-25, custom)"
   xmlns:inkscape="http://www.inkscape.org/namespaces/inkscape"
   xmlns:sodipodi="http://sodipodi.sourceforge.net/DTD/sodipodi-0.dtd"
   xmlns="http://www.w3.org/2000/svg"
   xmlns:svg="http://www.w3.org/2000/svg"><defs
   id="defs8"><filter
     inkscape:collect="always"
     style="color-interpolation-filters:sRGB"
     id="filter8"
     x="-0.26279476"
     y="-0.29186358"
     width="1.5255895"
     height="1.5837272"><feGaussianBlur
       inkscape:collect="always"
       stdDeviation="7.9728648"
       id="feGaussianBlur8" /></filter><filter
     inkscape:collect="always"
     style="color-interpolation-filters:sRGB"
     id="filter10"
     x="-0.22899534"
     y="-0.21046042"
     width="1.4536739"
     height="1.4168081"><feGaussianBlur
       inkscape:collect="always"
       stdDeviation="9.6002122"
       id="feGaussianBlur10" /></filter><filter
     inkscape:collect="always"
     style="color-interpolation-filters:sRGB"
     id="filter11"
     x="-0.20726018"
     y="-0.19465799"
     width="1.4175536"
     height="1.3921567"><feGaussianBlur
       inkscape:collect="always"
       stdDeviation="9.6002122"
       id="feGaussianBlur11" /></filter><filter
     inkscape:collect="always"
     style="color-interpolation-filters:sRGB"
     id="filter12"
     x="-0.069384486"
     y="-0.077059393"
     width="1.138769"
     height="1.1541188"><feGaussianBlur
       inkscape:collect="always"
       stdDeviation="2.1050386"
       id="feGaussianBlur12" /></filter><filter
     inkscape:collect="always"
     style="color-interpolation-filters:sRGB"
     id="filter13"
     x="-0.046100435"
     y="-0.04328081"
     width="1.0952341"
     height="1.0894024"><feGaussianBlur
       inkscape:collect="always"
       stdDeviation="1.8111205"
       id="feGaussianBlur13" /></filter><filter
     inkscape:collect="always"
     style="color-interpolation-filters:sRGB"
     id="filter14"
     x="-0.05429405"
     y="-0.050019907"
     width="1.1042714"
     height="1.0959271"><feGaussianBlur
       inkscape:collect="always"
       stdDeviation="1.8111205"
       id="feGaussianBlur14" /></filter></defs><sodipodi:namedview
   id="namedview8"
   pagecolor="#505050"
   bordercolor="#eeeeee"
   borderopacity="1"
   inkscape:showpageshadow="0"
   inkscape:pageopacity="0"
   inkscape:pagecheckerboard="0"
   inkscape:deskcolor="#505050"
   inkscape:zoom="3.8765398"
   inkscape:cx="62.81375"
   inkscape:cy="62.81375"
   inkscape:window-width="1920"
   inkscape:window-height="991"
   inkscape:window-x="1791"
   inkscape:window-y="-9"
   inkscape:window-maximized="1"
   inkscape:current-layer="Layer_1" />



<g
   id="g11"
   inkscape:label="LoveMod"
   inkscape:export-filename="..\Ãrea de Trabalho\openneonix\assets\images\menus\lovelogo.png"
   inkscape:export-xdpi="133.52171"
   inkscape:export-ydpi="133.52171"><path
     fill="#e74a99"
     d="M 115.726,18.413 C 115.71,18.396 115.691,18.386 115.673,18.371 94.307,0.014 64.118,-3.243 39.136,9.523 14.168,22.282 -0.044,50.733 3.382,78.306 c 2.392,19.268 13.129,36.165 28.466,47.021 0,0 35.688834,-42.6299 46.915834,-56.0349 10.53,-12.582 40.108166,-47.9101 40.108166,-47.9101 -1.011,-1.017 -2.058,-2.008 -3.146,-2.969 z"
     id="path12"
     inkscape:label="pink"
     style="display:inline;fill:#ffffff;fill-opacity:1;stroke:#ffffff;stroke-width:2;stroke-dasharray:none;stroke-opacity:0.991952;filter:url(#filter11)"
     sodipodi:nodetypes="cccccccc" /><path
     fill="#27AAE1"
     d="M31.849,125.327c7.067,5.001,15.11,8.726,23.765,10.801c27.076,6.487,56.27-5.293,71.759-28.261    c18.256-27.077,14.241-63.649-8.5-86.485c0,0-32.464,38.778-43.287,51.706C64.65,86.146,31.849,125.327,31.849,125.327z"
     id="path13"
     inkscape:label="blue"
     style="stroke:#ffffff;stroke-opacity:1;stroke-width:2;stroke-dasharray:none;fill:none;filter:url(#filter10)" /><path
     fill="#e74a99"
     d="M 115.726,18.413 C 115.71,18.396 115.691,18.386 115.673,18.371 94.307,0.014 64.118,-3.243 39.136,9.523 14.168,22.282 -0.044,50.733 3.382,78.306 c 2.392,19.268 13.129,36.165 28.466,47.021 0,0 35.688834,-42.6299 46.915834,-56.0349 10.53,-12.582 40.108166,-47.9101 40.108166,-47.9101 -1.011,-1.017 -2.058,-2.008 -3.146,-2.969 z"
     id="path9"
     inkscape:label="pink"
     style="display:inline;fill:#ffffff;fill-opacity:1;stroke:#ffffff;stroke-width:2;stroke-dasharray:none;stroke-opacity:0.991952;filter:url(#filter13)"
     sodipodi:nodetypes="cccccccc" /><path
     fill="#27AAE1"
     d="M31.849,125.327c7.067,5.001,15.11,8.726,23.765,10.801c27.076,6.487,56.27-5.293,71.759-28.261    c18.256-27.077,14.241-63.649-8.5-86.485c0,0-32.464,38.778-43.287,51.706C64.65,86.146,31.849,125.327,31.849,125.327z"
     id="path10"
     inkscape:label="blue"
     style="stroke:#ffffff;stroke-opacity:1;stroke-width:2;stroke-dasharray:none;fill:none;filter:url(#filter14)" /><g
     id="g8"
     inkscape:label="Lover"><path
       fill="#e74a99"
       d="M 115.726,18.413 C 115.71,18.396 115.691,18.386 115.673,18.371 94.307,0.014 64.118,-3.243 39.136,9.523 14.168,22.282 -0.044,50.733 3.382,78.306 c 2.392,19.268 13.129,36.165 28.466,47.021 0,0 35.688834,-42.6299 46.915834,-56.0349 10.53,-12.582 40.108166,-47.9101 40.108166,-47.9101 -1.011,-1.017 -2.058,-2.008 -3.146,-2.969 z"
       id="path2"
       inkscape:label="pink"
       style="display:inline;fill:#ffffff;fill-opacity:1;stroke:#ffffff;stroke-width:2;stroke-dasharray:none;stroke-opacity:0.991952"
       sodipodi:nodetypes="cccccccc" /><path
       fill="#27AAE1"
       d="M31.849,125.327c7.067,5.001,15.11,8.726,23.765,10.801c27.076,6.487,56.27-5.293,71.759-28.261    c18.256-27.077,14.241-63.649-8.5-86.485c0,0-32.464,38.778-43.287,51.706C64.65,86.146,31.849,125.327,31.849,125.327z"
       id="path4"
       inkscape:label="blue"
       style="stroke:#ffffff;stroke-opacity:1;stroke-width:2;stroke-dasharray:none;fill:none" /><path
       fill="#ffffff"
       d="m 73.043,52.8 c 0,0 -6.48,-14.187 -19.968,-10.958 -13.486,3.23 -41.652,30.792 17.853,65.083 H 70.88 C 130.384,72.634 102.22,45.073 88.733,41.842 75.245,38.613 68.766,52.8 68.766,52.8 Z"
       id="path6"
       inkscape:label="heartblackglow"
       style="display:inline;fill:#090909;fill-opacity:1;filter:url(#filter8)" /><path
       fill="#ffffff"
       d="m 73.043,52.8 c 0,0 -6.48,-14.187 -19.968,-10.958 -13.486,3.23 -41.652,30.792 17.853,65.083 H 70.88 C 130.384,72.634 102.22,45.073 88.733,41.842 75.245,38.613 68.766,52.8 68.766,52.8 Z"
       id="path8"
       inkscape:label="heart"
       style="display:inline;filter:url(#filter12)" /><path
       fill="#ffffff"
       d="m 73.043,52.8 c 0,0 -6.48,-14.187 -19.968,-10.958 -13.486,3.23 -41.652,30.792 17.853,65.083 H 70.88 C 130.384,72.634 102.22,45.073 88.733,41.842 75.245,38.613 68.766,52.8 68.766,52.8 Z"
       id="path11"
       inkscape:label="heart"
       style="display:inline" /></g></g></svg>
