<?xml version="1.0" encoding="UTF-8" standalone="no"?>
<!-- Created with Inkscape (http://www.inkscape.org/) -->

<svg
   width="640"
   height="640"
   viewBox="0 0 640 640"
   version="1.1"
   id="svg1"
   xml:space="preserve"
   inkscape:export-filename="ImportIcon.png"
   inkscape:export-xdpi="96"
   inkscape:export-ydpi="96"
   inkscape:version="1.3.2 (091e20e, 2023-11-25, custom)"
   sodipodi:docname="serverICons.svg"
   xmlns:inkscape="http://www.inkscape.org/namespaces/inkscape"
   xmlns:sodipodi="http://sodipodi.sourceforge.net/DTD/sodipodi-0.dtd"
   xmlns="http://www.w3.org/2000/svg"
   xmlns:svg="http://www.w3.org/2000/svg"><sodipodi:namedview
     id="namedview1"
     pagecolor="#505050"
     bordercolor="#eeeeee"
     borderopacity="1"
     inkscape:showpageshadow="0"
     inkscape:pageopacity="0"
     inkscape:pagecheckerboard="0"
     inkscape:deskcolor="#505050"
     inkscape:document-units="px"
     inkscape:zoom="1.0730898"
     inkscape:cx="266.98605"
     inkscape:cy="304.26159"
     inkscape:window-width="1920"
     inkscape:window-height="991"
     inkscape:window-x="1791"
     inkscape:window-y="-9"
     inkscape:window-maximized="1"
     inkscape:current-layer="layer1" /><defs
     id="defs1"><filter
       inkscape:collect="always"
       style="color-interpolation-filters:sRGB"
       id="filter8"
       x="-1.6840399"
       y="-1.6840415"
       width="4.3680798"
       height="4.3680829"><feGaussianBlur
         inkscape:collect="always"
         stdDeviation="0.29794552"
         id="feGaussianBlur8" /></filter><filter
       inkscape:collect="always"
       style="color-interpolation-filters:sRGB"
       id="filter9"
       x="-0.34683747"
       y="-0.40464375"
       width="1.6936749"
       height="1.8092875"><feGaussianBlur
         inkscape:collect="always"
         stdDeviation="6.7480677"
         id="feGaussianBlur9" /></filter><filter
       inkscape:collect="always"
       style="color-interpolation-filters:sRGB"
       id="filter11"
       x="-0.17367716"
       y="-0.26202463"
       width="1.3473543"
       height="1.5240493"><feGaussianBlur
         inkscape:collect="always"
         stdDeviation="1.0492995"
         id="feGaussianBlur11" /></filter><filter
       inkscape:collect="always"
       style="color-interpolation-filters:sRGB"
       id="filter13"
       x="-0.25456591"
       y="-0.32674972"
       width="1.5091318"
       height="1.6534994"><feGaussianBlur
         inkscape:collect="always"
         stdDeviation="1.5832112"
         id="feGaussianBlur13" /></filter><filter
       inkscape:collect="always"
       style="color-interpolation-filters:sRGB"
       id="filter14"
       x="-0.1961182"
       y="-0.25172872"
       width="1.3922364"
       height="1.5034574"><feGaussianBlur
         inkscape:collect="always"
         stdDeviation="1.5832112"
         id="feGaussianBlur14" /></filter><filter
       inkscape:collect="always"
       style="color-interpolation-filters:sRGB"
       id="filter15"
       x="-0.19399724"
       y="-0.21389369"
       width="1.3879945"
       height="1.4277874"><feGaussianBlur
         inkscape:collect="always"
         stdDeviation="0.36896665"
         id="feGaussianBlur15" /></filter></defs><g
     inkscape:label="Camada 1"
     inkscape:groupmode="layer"
     id="layer1"><g
       style="fill:none"
       id="g1"
       transform="matrix(33.333333,0,0,33.333333,58.694766,-289.25236)"
       inkscape:label="server"><path
         fill-rule="evenodd"
         clip-rule="evenodd"
         d="m 6.3740742,9.9299999 h 2.9830399 c 0.094349,-2e-6 0.1731369,-2e-6 0.2378058,0.0044 0.067323,0.0046 0.130909,0.0145 0.1925631,0.04003 0.143053,0.05926 0.256723,0.1729161 0.315978,0.3159761 0.02554,0.06165 0.03543,0.125244 0.04002,0.192567 0.0044,0.06467 0.0044,0.143444 0.0044,0.237806 v 0.01073 c 0,0.09436 0,0.173134 -0.0044,0.237808 -0.0046,0.06732 -0.01448,0.130913 -0.04002,0.192565 -0.03182,0.07683 -0.07936,0.145189 -0.1386798,0.201187 0.059319,0.056 0.1068548,0.124353 0.1386798,0.201187 0.02554,0.06165 0.03543,0.125236 0.04002,0.192559 0.0044,0.06467 0.0044,0.143456 0.0044,0.237806 v 0.01074 c 0,0.09435 0,0.173137 -0.0044,0.237806 -0.0046,0.06732 -0.01448,0.130909 -0.04002,0.192563 -0.03182,0.07683 -0.07936,0.145176 -0.1386798,0.201183 0.059319,0.05601 0.1068548,0.124349 0.1386798,0.201183 0.02554,0.06165 0.03543,0.12524 0.04002,0.192563 0.0044,0.06467 0.0044,0.143456 0.0044,0.237806 v 0.01074 c 0,0.09435 0,0.173136 -0.0044,0.237805 -0.0046,0.06732 -0.01448,0.130909 -0.04002,0.192563 -0.05925,0.143053 -0.172925,0.256723 -0.315978,0.315978 -0.061654,0.02554 -0.1252403,0.03543 -0.1925631,0.04002 C 9.530251,14.07 9.4514636,14.07 9.3571141,14.07 H 6.374072 c -0.094362,0 -0.1731348,0 -0.2378058,-0.0044 C 6.0689432,14.061 6.0053509,14.05112 5.9436989,14.02558 5.8006396,13.96632 5.6869806,13.852655 5.6277234,13.709602 c -0.025536,-0.06165 -0.035438,-0.12524 -0.040033,-0.192563 -0.00441,-0.06467 -0.00441,-0.143456 -0.00441,-0.237805 v -0.01072 c -2.2e-6,-0.09437 -2.2e-6,-0.173158 0.00441,-0.237827 0.00459,-0.06732 0.014496,-0.130909 0.040033,-0.192563 0.031827,-0.07683 0.079344,-0.145176 0.1386815,-0.201183 -0.059338,-0.05601 -0.1068544,-0.124349 -0.1386815,-0.201183 -0.025536,-0.06165 -0.035438,-0.12524 -0.040033,-0.192563 -0.00441,-0.06467 -0.00441,-0.143456 -0.00441,-0.237806 v -0.01072 c -2.2e-6,-0.09437 -2.2e-6,-0.173158 0.00441,-0.237827 0.00459,-0.06732 0.014496,-0.130909 0.040033,-0.192559 0.031827,-0.07683 0.079344,-0.145187 0.1386815,-0.201187 -0.059338,-0.056 -0.1068544,-0.124353 -0.1386815,-0.201187 -0.025536,-0.06165 -0.035438,-0.125243 -0.040033,-0.192565 -0.00441,-0.06467 -0.00441,-0.143448 -0.00441,-0.23781 v -0.01072 c -2.2e-6,-0.09436 -2.2e-6,-0.173137 0.00441,-0.237808 0.00459,-0.06732 0.014496,-0.130915 0.040033,-0.192567 0.059257,-0.14306 0.1729162,-0.256719 0.3159755,-0.3159761 0.061652,-0.02554 0.1252445,-0.03544 0.1925673,-0.04003 0.064671,-0.0044 0.1434457,-0.0044 0.237808,-0.0044 z m 0.00536,1.2738461 c -0.1011009,0 -0.1689523,-8.7e-5 -0.2214921,-0.0037 -0.051107,-0.0035 -0.075993,-0.0097 -0.092373,-0.01653 -0.065028,-0.02694 -0.1166906,-0.0786 -0.1436261,-0.143626 -0.00679,-0.01638 -0.013042,-0.04126 -0.01653,-0.09237 -0.00358,-0.05254 -0.00367,-0.120391 -0.00367,-0.221492 0,-0.101101 8.71e-5,-0.168953 0.00367,-0.221492 0.00349,-0.05111 0.00974,-0.07599 0.01653,-0.09237 0.026936,-0.06503 0.078598,-0.116691 0.1436261,-0.143626 0.01638,-0.0068 0.041266,-0.01304 0.092373,-0.01653 0.05254,-0.0036 0.1203912,-0.0037 0.2214921,-0.0037 H 9.351742 c 0.1011009,0 0.1689545,8.7e-5 0.2215006,0.0037 0.051102,0.0035 0.075985,0.0097 0.092375,0.01653 0.065009,0.02694 0.1166843,0.0786 0.1436262,0.143626 0.00677,0.01638 0.013036,0.04127 0.016517,0.09237 0.00359,0.05254 0.00367,0.120391 0.00367,0.221492 0,0.101101 -8.49e-5,0.168952 -0.00367,0.221492 -0.00348,0.05111 -0.00974,0.07599 -0.016517,0.09237 -0.026942,0.06503 -0.078618,0.116691 -0.1436262,0.143626 -0.01639,0.0068 -0.041273,0.01304 -0.092375,0.01653 -0.052546,0.0036 -0.1203997,0.0037 -0.2215006,0.0037 z m 0,0.318462 c -0.1011009,0 -0.1689523,8.7e-5 -0.2214921,0.0037 -0.051107,0.0035 -0.075993,0.0097 -0.092373,0.01653 -0.065028,0.02694 -0.1166906,0.07861 -0.1436261,0.143615 -0.00679,0.01639 -0.013042,0.04127 -0.01653,0.09238 -0.00358,0.05255 -0.00367,0.1204 -0.00367,0.221501 0,0.101101 8.71e-5,0.168954 0.00367,0.221501 0.00349,0.0511 0.00974,0.07598 0.01653,0.09238 0.026936,0.06501 0.078598,0.116684 0.1436261,0.143626 0.01638,0.0068 0.041266,0.01303 0.092373,0.01652 0.05254,0.0036 0.1203912,0.0037 0.2214921,0.0037 H 9.351742 c 0.1011009,0 0.1689545,-8.5e-5 0.2215006,-0.0037 0.051102,-0.0035 0.075985,-0.0097 0.092375,-0.01652 0.065009,-0.02694 0.1166843,-0.07862 0.1436262,-0.143626 0.00677,-0.01639 0.013036,-0.04127 0.016517,-0.09238 0.00359,-0.05255 0.00367,-0.1204 0.00367,-0.221501 0,-0.101101 -8.49e-5,-0.168955 -0.00367,-0.221501 -0.00348,-0.0511 -0.00974,-0.07598 -0.016517,-0.09238 -0.026942,-0.06501 -0.078618,-0.11668 -0.1436262,-0.143615 -0.01639,-0.0068 -0.041273,-0.01304 -0.092375,-0.01653 -0.052546,-0.0036 -0.1203997,-0.0037 -0.2215006,-0.0037 z m 0,1.273846 c -0.1011009,0 -0.1689523,8.5e-5 -0.2214921,0.0037 -0.051107,0.0035 -0.075993,0.0097 -0.092373,0.01654 -0.065028,0.02692 -0.1166906,0.0786 -0.1436261,0.143604 -0.00679,0.01639 -0.013042,0.04127 -0.01653,0.09238 -0.00358,0.05255 -0.00367,0.120399 -0.00367,0.2215 0,0.101101 8.71e-5,0.168955 0.00367,0.221501 0.00349,0.0511 0.00974,0.07599 0.01653,0.09238 0.026936,0.06501 0.078598,0.116684 0.1436261,0.143626 0.01638,0.0068 0.041266,0.01304 0.092373,0.01652 0.05254,0.0036 0.1203912,0.0037 0.2214921,0.0037 H 9.351742 c 0.1011009,0 0.1689545,-8.4e-5 0.2215006,-0.0037 0.051102,-0.0035 0.075985,-0.0097 0.092375,-0.01652 0.065009,-0.02694 0.1166843,-0.07862 0.1436262,-0.143626 0.00677,-0.01639 0.013036,-0.04127 0.016517,-0.09238 0.00359,-0.05255 0.00367,-0.1204 0.00367,-0.221501 0,-0.101101 -8.49e-5,-0.168954 -0.00367,-0.2215 -0.00348,-0.0511 -0.00974,-0.07598 -0.016517,-0.09238 -0.026942,-0.06501 -0.078618,-0.116684 -0.1436262,-0.143604 -0.01639,-0.0068 -0.041273,-0.01306 -0.092375,-0.01654 -0.052546,-0.0036 -0.1203997,-0.0037 -0.2215006,-0.0037 z"
         fill="#1c274c"
         id="path14"
         style="mix-blend-mode:normal;fill:#ffffff;fill-opacity:1;stroke-width:0.212308;filter:url(#filter15)" /><path
         d="m 6.5917426,12 c 0,0.117257 -0.095052,0.212308 -0.2123077,0.212308 -0.1172533,0 -0.2123077,-0.09505 -0.2123077,-0.212308 0,-0.117258 0.095054,-0.212308 0.2123077,-0.212308 0.1172555,0 0.2123077,0.09505 0.2123077,0.212308 z"
         fill="#1c274c"
         id="path6"
         style="fill:#ffffff;fill-opacity:1;stroke-width:0.212308;filter:url(#filter8)" /><path
         d="m 6.5917426,10.726154 c 0,0.117255 -0.095052,0.212307 -0.2123077,0.212307 -0.1172533,0 -0.2123077,-0.09505 -0.2123077,-0.212307 0,-0.117254 0.095054,-0.212308 0.2123077,-0.212308 0.1172555,0 0.2123077,0.09505 0.2123077,0.212308 z"
         fill="#1c274c"
         id="path7"
         style="fill:#ffffff;fill-opacity:1;stroke-width:0.212308;filter:url(#filter8)" /><path
         d="m 6.5917426,13.273846 c 0,0.117258 -0.095052,0.212308 -0.2123077,0.212308 -0.1172533,0 -0.2123077,-0.09505 -0.2123077,-0.212308 0,-0.117257 0.095054,-0.212308 0.2123077,-0.212308 0.1172555,0 0.2123077,0.09505 0.2123077,0.212308 z"
         fill="#1c274c"
         id="path8"
         style="fill:#ffffff;fill-opacity:1;stroke-width:0.212308;filter:url(#filter8)" /><path
         fill-rule="evenodd"
         clip-rule="evenodd"
         d="m 6.3740742,9.9299999 h 2.9830399 c 0.094349,-2e-6 0.1731369,-2e-6 0.2378058,0.0044 0.067323,0.0046 0.130909,0.0145 0.1925631,0.04003 0.143053,0.05926 0.256723,0.1729161 0.315978,0.3159761 0.02554,0.06165 0.03543,0.125244 0.04002,0.192567 0.0044,0.06467 0.0044,0.143444 0.0044,0.237806 v 0.01073 c 0,0.09436 0,0.173134 -0.0044,0.237808 -0.0046,0.06732 -0.01448,0.130913 -0.04002,0.192565 -0.03182,0.07683 -0.07936,0.145189 -0.1386798,0.201187 0.059319,0.056 0.1068548,0.124353 0.1386798,0.201187 0.02554,0.06165 0.03543,0.125236 0.04002,0.192559 0.0044,0.06467 0.0044,0.143456 0.0044,0.237806 v 0.01074 c 0,0.09435 0,0.173137 -0.0044,0.237806 -0.0046,0.06732 -0.01448,0.130909 -0.04002,0.192563 -0.03182,0.07683 -0.07936,0.145176 -0.1386798,0.201183 0.059319,0.05601 0.1068548,0.124349 0.1386798,0.201183 0.02554,0.06165 0.03543,0.12524 0.04002,0.192563 0.0044,0.06467 0.0044,0.143456 0.0044,0.237806 v 0.01074 c 0,0.09435 0,0.173136 -0.0044,0.237805 -0.0046,0.06732 -0.01448,0.130909 -0.04002,0.192563 -0.05925,0.143053 -0.172925,0.256723 -0.315978,0.315978 -0.061654,0.02554 -0.1252403,0.03543 -0.1925631,0.04002 C 9.530251,14.07 9.4514636,14.07 9.3571141,14.07 H 6.374072 c -0.094362,0 -0.1731348,0 -0.2378058,-0.0044 C 6.0689432,14.061 6.0053509,14.05112 5.9436989,14.02558 5.8006396,13.96632 5.6869806,13.852655 5.6277234,13.709602 c -0.025536,-0.06165 -0.035438,-0.12524 -0.040033,-0.192563 -0.00441,-0.06467 -0.00441,-0.143456 -0.00441,-0.237805 v -0.01072 c -2.2e-6,-0.09437 -2.2e-6,-0.173158 0.00441,-0.237827 0.00459,-0.06732 0.014496,-0.130909 0.040033,-0.192563 0.031827,-0.07683 0.079344,-0.145176 0.1386815,-0.201183 -0.059338,-0.05601 -0.1068544,-0.124349 -0.1386815,-0.201183 -0.025536,-0.06165 -0.035438,-0.12524 -0.040033,-0.192563 -0.00441,-0.06467 -0.00441,-0.143456 -0.00441,-0.237806 v -0.01072 c -2.2e-6,-0.09437 -2.2e-6,-0.173158 0.00441,-0.237827 0.00459,-0.06732 0.014496,-0.130909 0.040033,-0.192559 0.031827,-0.07683 0.079344,-0.145187 0.1386815,-0.201187 -0.059338,-0.056 -0.1068544,-0.124353 -0.1386815,-0.201187 -0.025536,-0.06165 -0.035438,-0.125243 -0.040033,-0.192565 -0.00441,-0.06467 -0.00441,-0.143448 -0.00441,-0.23781 v -0.01072 c -2.2e-6,-0.09436 -2.2e-6,-0.173137 0.00441,-0.237808 0.00459,-0.06732 0.014496,-0.130915 0.040033,-0.192567 0.059257,-0.14306 0.1729162,-0.256719 0.3159755,-0.3159761 0.061652,-0.02554 0.1252445,-0.03544 0.1925673,-0.04003 0.064671,-0.0044 0.1434457,-0.0044 0.237808,-0.0044 z m 0.00536,1.2738461 c -0.1011009,0 -0.1689523,-8.7e-5 -0.2214921,-0.0037 -0.051107,-0.0035 -0.075993,-0.0097 -0.092373,-0.01653 -0.065028,-0.02694 -0.1166906,-0.0786 -0.1436261,-0.143626 -0.00679,-0.01638 -0.013042,-0.04126 -0.01653,-0.09237 -0.00358,-0.05254 -0.00367,-0.120391 -0.00367,-0.221492 0,-0.101101 8.71e-5,-0.168953 0.00367,-0.221492 0.00349,-0.05111 0.00974,-0.07599 0.01653,-0.09237 0.026936,-0.06503 0.078598,-0.116691 0.1436261,-0.143626 0.01638,-0.0068 0.041266,-0.01304 0.092373,-0.01653 0.05254,-0.0036 0.1203912,-0.0037 0.2214921,-0.0037 H 9.351742 c 0.1011009,0 0.1689545,8.7e-5 0.2215006,0.0037 0.051102,0.0035 0.075985,0.0097 0.092375,0.01653 0.065009,0.02694 0.1166843,0.0786 0.1436262,0.143626 0.00677,0.01638 0.013036,0.04127 0.016517,0.09237 0.00359,0.05254 0.00367,0.120391 0.00367,0.221492 0,0.101101 -8.49e-5,0.168952 -0.00367,0.221492 -0.00348,0.05111 -0.00974,0.07599 -0.016517,0.09237 -0.026942,0.06503 -0.078618,0.116691 -0.1436262,0.143626 -0.01639,0.0068 -0.041273,0.01304 -0.092375,0.01653 -0.052546,0.0036 -0.1203997,0.0037 -0.2215006,0.0037 z m 0,0.318462 c -0.1011009,0 -0.1689523,8.7e-5 -0.2214921,0.0037 -0.051107,0.0035 -0.075993,0.0097 -0.092373,0.01653 -0.065028,0.02694 -0.1166906,0.07861 -0.1436261,0.143615 -0.00679,0.01639 -0.013042,0.04127 -0.01653,0.09238 -0.00358,0.05255 -0.00367,0.1204 -0.00367,0.221501 0,0.101101 8.71e-5,0.168954 0.00367,0.221501 0.00349,0.0511 0.00974,0.07598 0.01653,0.09238 0.026936,0.06501 0.078598,0.116684 0.1436261,0.143626 0.01638,0.0068 0.041266,0.01303 0.092373,0.01652 0.05254,0.0036 0.1203912,0.0037 0.2214921,0.0037 H 9.351742 c 0.1011009,0 0.1689545,-8.5e-5 0.2215006,-0.0037 0.051102,-0.0035 0.075985,-0.0097 0.092375,-0.01652 0.065009,-0.02694 0.1166843,-0.07862 0.1436262,-0.143626 0.00677,-0.01639 0.013036,-0.04127 0.016517,-0.09238 0.00359,-0.05255 0.00367,-0.1204 0.00367,-0.221501 0,-0.101101 -8.49e-5,-0.168955 -0.00367,-0.221501 -0.00348,-0.0511 -0.00974,-0.07598 -0.016517,-0.09238 -0.026942,-0.06501 -0.078618,-0.11668 -0.1436262,-0.143615 -0.01639,-0.0068 -0.041273,-0.01304 -0.092375,-0.01653 -0.052546,-0.0036 -0.1203997,-0.0037 -0.2215006,-0.0037 z m 0,1.273846 c -0.1011009,0 -0.1689523,8.5e-5 -0.2214921,0.0037 -0.051107,0.0035 -0.075993,0.0097 -0.092373,0.01654 -0.065028,0.02692 -0.1166906,0.0786 -0.1436261,0.143604 -0.00679,0.01639 -0.013042,0.04127 -0.01653,0.09238 -0.00358,0.05255 -0.00367,0.120399 -0.00367,0.2215 0,0.101101 8.71e-5,0.168955 0.00367,0.221501 0.00349,0.0511 0.00974,0.07599 0.01653,0.09238 0.026936,0.06501 0.078598,0.116684 0.1436261,0.143626 0.01638,0.0068 0.041266,0.01304 0.092373,0.01652 0.05254,0.0036 0.1203912,0.0037 0.2214921,0.0037 H 9.351742 c 0.1011009,0 0.1689545,-8.4e-5 0.2215006,-0.0037 0.051102,-0.0035 0.075985,-0.0097 0.092375,-0.01652 0.065009,-0.02694 0.1166843,-0.07862 0.1436262,-0.143626 0.00677,-0.01639 0.013036,-0.04127 0.016517,-0.09238 0.00359,-0.05255 0.00367,-0.1204 0.00367,-0.221501 0,-0.101101 -8.49e-5,-0.168954 -0.00367,-0.2215 -0.00348,-0.0511 -0.00974,-0.07598 -0.016517,-0.09238 -0.026942,-0.06501 -0.078618,-0.116684 -0.1436262,-0.143604 -0.01639,-0.0068 -0.041273,-0.01306 -0.092375,-0.01654 -0.052546,-0.0036 -0.1203997,-0.0037 -0.2215006,-0.0037 z"
         fill="#1c274c"
         id="path1"
         style="fill:#ffffff;fill-opacity:1;stroke-width:0.212308" /><path
         d="m 6.5917426,12 c 0,0.117257 -0.095052,0.212308 -0.2123077,0.212308 -0.1172533,0 -0.2123077,-0.09505 -0.2123077,-0.212308 0,-0.117258 0.095054,-0.212308 0.2123077,-0.212308 0.1172555,0 0.2123077,0.09505 0.2123077,0.212308 z"
         fill="#1c274c"
         id="path2"
         style="fill:#ffffff;fill-opacity:1;stroke-width:0.212308" /><path
         d="m 6.5917426,10.726154 c 0,0.117255 -0.095052,0.212307 -0.2123077,0.212307 -0.1172533,0 -0.2123077,-0.09505 -0.2123077,-0.212307 0,-0.117254 0.095054,-0.212308 0.2123077,-0.212308 0.1172555,0 0.2123077,0.09505 0.2123077,0.212308 z"
         fill="#1c274c"
         id="path3"
         style="fill:#ffffff;fill-opacity:1;stroke-width:0.212308" /><path
         d="m 6.5917426,13.273846 c 0,0.117258 -0.095052,0.212308 -0.2123077,0.212308 -0.1172533,0 -0.2123077,-0.09505 -0.2123077,-0.212308 0,-0.117257 0.095054,-0.212308 0.2123077,-0.212308 0.1172555,0 0.2123077,0.09505 0.2123077,0.212308 z"
         fill="#1c274c"
         id="path4"
         style="fill:#ffffff;fill-opacity:1;stroke-width:0.212308" /><path
         id="path1-41"
         style="display:inline;fill:#fefefe;fill-opacity:1;stroke-width:1.07636;filter:url(#filter14)"
         d="m 32.557857,-20.997667 c -0.678843,-0.0037 -1.289834,0.152043 -1.852047,0.423707 -1.553698,0.554416 -2.654645,1.630196 -2.959261,2.891617 -0.10597,0.1565 -0.211103,0.315161 -0.314807,0.477228 -2.906181,0.470909 -4.843644,2.906532 -4.843644,5.542761 0,0.119731 0.0046,0.238144 0.01189,0.356063 -0.0047,0.0333 -0.0086,0.06663 -0.01189,0.09998 0.0044,0.245008 0.04576,0.489405 0.123767,0.730709 0.552255,2.6111617 2.889115,4.5723217 5.688457,4.5723217 h 8.718707 c 2.675087,0 4.843644,-2.170073 4.843644,-4.8469877 0,-1.846572 -1.491512,-3.751763 -3.074852,-4.612836 -0.115436,-0.101329 -0.239815,-0.200169 -0.372788,-0.296223 -0.02193,-0.377541 0,0 -0.144952,-1.080826 0.0071,-0.0808 0.01099,-0.161733 0.01152,-0.242702 9.8e-5,-2.203354 -2.401643,-3.989559 -5.364358,-3.989539 -0.156427,-0.01632 -0.309544,-0.02446 -0.459388,-0.02527 z"
         sodipodi:nodetypes="scccscccssscccccs"
         transform="matrix(0.16968736,0,0,0.16968736,0.0545226,15.958077)"
         inkscape:label="cloud_glow" /><path
         id="path1-41-0"
         style="display:inline;fill:#fefefe;fill-opacity:1;stroke-width:0.82923;filter:url(#filter13)"
         d="m 59.699704,-19.68304 c -0.522983,-0.0029 -0.993692,0.117134 -1.426822,0.326425 -1.196973,0.427124 -2.045145,1.255907 -2.279822,2.227709 -0.08164,0.120568 -0.162634,0.242801 -0.242528,0.367657 -2.238929,0.36279 -3.731555,2.2392 -3.731555,4.270157 0,0.09224 0.0035,0.183467 0.0092,0.274312 -0.0036,0.02565 -0.0066,0.05133 -0.0092,0.07702 0.0034,0.188755 0.03525,0.377039 0.09535,0.56294 0.425459,2.0116451 2.225782,3.5225276 4.382402,3.5225276 h 6.716913 c 2.060893,0 3.731555,-1.6718295 3.731555,-3.7341306 0,-1.422604 -1.149065,-2.890368 -2.368874,-3.553741 -0.08893,-0.07806 -0.184754,-0.15421 -0.287197,-0.228211 -0.01689,-0.290858 0,0 -0.111671,-0.832671 0.0055,-0.06225 0.0085,-0.124599 0.0089,-0.186978 7.6e-5,-1.697469 -1.850231,-3.073566 -4.132714,-3.07355 -0.120512,-0.01257 -0.238474,-0.01884 -0.353914,-0.01947 z"
         sodipodi:nodetypes="scccscccssscccccs"
         transform="matrix(0.16968736,0,0,0.16968736,0.0545226,15.958077)"
         inkscape:label="cloud_glow" /><path
         id="path12"
         style="display:inline;fill:#fefefe;fill-opacity:1;stroke-width:1.07636"
         d="m 32.557857,-20.997667 c -0.678843,-0.0037 -1.289834,0.152043 -1.852047,0.423707 -1.553698,0.554416 -2.654645,1.630196 -2.959261,2.891617 -0.10597,0.1565 -0.211103,0.315161 -0.314807,0.477228 -2.906181,0.470909 -4.843644,2.906532 -4.843644,5.542761 0,0.119731 0.0046,0.238144 0.01189,0.356063 -0.0047,0.0333 -0.0086,0.06663 -0.01189,0.09998 0.0044,0.245008 0.04576,0.489405 0.123767,0.730709 0.552255,2.6111617 2.889115,4.5723217 5.688457,4.5723217 h 8.718707 c 2.675087,0 4.843644,-2.170073 4.843644,-4.8469877 0,-1.846572 -1.491512,-3.751763 -3.074852,-4.612836 -0.115436,-0.101329 -0.239815,-0.200169 -0.372788,-0.296223 -0.02193,-0.377541 0,0 -0.144952,-1.080826 0.0071,-0.0808 0.01099,-0.161733 0.01152,-0.242702 9.8e-5,-2.203354 -2.401643,-3.989559 -5.364358,-3.989539 -0.156427,-0.01632 -0.309544,-0.02446 -0.459388,-0.02527 z"
         sodipodi:nodetypes="scccscccssscccccs"
         transform="matrix(0.16968736,0,0,0.16968736,0.0545226,15.958077)"
         inkscape:label="cloud" /><path
         id="path13"
         style="display:inline;fill:#fefefe;fill-opacity:1;stroke-width:0.82923"
         d="m 59.699704,-19.68304 c -0.522983,-0.0029 -0.993692,0.117134 -1.426822,0.326425 -1.196973,0.427124 -2.045145,1.255907 -2.279822,2.227709 -0.08164,0.120568 -0.162634,0.242801 -0.242528,0.367657 -2.238929,0.36279 -3.731555,2.2392 -3.731555,4.270157 0,0.09224 0.0035,0.183467 0.0092,0.274312 -0.0036,0.02565 -0.0066,0.05133 -0.0092,0.07702 0.0034,0.188755 0.03525,0.377039 0.09535,0.56294 0.425459,2.0116451 2.225782,3.5225276 4.382402,3.5225276 h 6.716913 c 2.060893,0 3.731555,-1.6718295 3.731555,-3.7341306 0,-1.422604 -1.149065,-2.890368 -2.368874,-3.553741 -0.08893,-0.07806 -0.184754,-0.15421 -0.287197,-0.228211 -0.01689,-0.290858 0,0 -0.111671,-0.832671 0.0055,-0.06225 0.0085,-0.124599 0.0089,-0.186978 7.6e-5,-1.697469 -1.850231,-3.073566 -4.132714,-3.07355 -0.120512,-0.01257 -0.238474,-0.01884 -0.353914,-0.01947 z"
         sodipodi:nodetypes="scccscccssscccccs"
         transform="matrix(0.16968736,0,0,0.16968736,0.0545226,15.958077)"
         inkscape:label="cloud" /></g><g
       id="g14"
       inkscape:label="arrow"
       transform="rotate(-90,331.74325,254.49105)"><path
         d="m 231.74992,256.00001 h 58.8048 m 0,0 -25.20206,-25.20206 m 25.20206,25.20206 -25.20206,25.20205"
         stroke="#000000"
         stroke-width="8.40069"
         stroke-linecap="round"
         stroke-linejoin="round"
         id="path9"
         style="fill:none;fill-opacity:1;stroke:#ffffff;stroke-opacity:1;filter:url(#filter9)"
         inkscape:label="arrow_glow" /><path
         d="m 231.74992,256.00001 h 58.8048 m 0,0 -25.20206,-25.20206 m 25.20206,25.20206 -25.20206,25.20205"
         stroke="#000000"
         stroke-width="8.40069"
         stroke-linecap="round"
         stroke-linejoin="round"
         id="path1-4"
         style="fill:none;fill-opacity:1;stroke:#ffffff;stroke-opacity:1"
         inkscape:label="arrow" /></g><g
       style="fill:#fefefe;fill-opacity:1"
       id="g11"
       transform="matrix(8.2040324,0,0,8.2040324,228.54277,410.21154)"
       inkscape:label="device"><path
         d="M 18.467,2.81 H 5.533 C 4.136,2.81 3,3.946 3,5.342 v 8.125 C 3,14.864 4.136,16 5.533,16 H 9.601 L 9.118,17.468 H 8.513 c -1.47,0 -2.667,1.196 -2.667,2.667 0,0.582 0.474,1.056 1.056,1.056 h 10.196 c 0.582,0 1.056,-0.474 1.056,-1.056 0,-1.47 -1.196,-2.667 -2.667,-2.667 H 14.893 L 14.46,16 h 4.007 C 19.864,16 21,14.864 21,13.467 V 5.342 C 21,3.946 19.864,2.81 18.467,2.81 Z m -1.313,17.325 c 0,0.031 -0.025,0.056 -0.056,0.056 L 6.846,20.135 c 0,-0.919 0.748,-1.667 1.667,-1.667 h 0.967 5.04 0.967 c 0.919,0 1.667,0.748 1.667,1.667 z m -3.303,-2.667 h -3.68 L 10.653,16 h 2.765 z M 20,13.467 C 20,14.313 19.313,15 18.467,15 h -4.676 -3.5 -4.758 C 4.688,15 4,14.313 4,13.467 V 5.342 C 4,4.497 4.688,3.81 5.533,3.81 H 18.468 C 19.313,3.81 20,4.497 20,5.342 Z"
         id="path1-0"
         style="mix-blend-mode:normal;fill:#fefefe;fill-opacity:1;filter:url(#filter11)" /><path
         d="M 17.83,4.473 H 6.17 c -0.783,0 -1.42,0.637 -1.42,1.42 v 6.771 c 0,0.783 0.637,1.42 1.42,1.42 h 11.66 c 0.783,0 1.42,-0.637 1.42,-1.42 V 5.893 c 0,-0.783 -0.637,-1.42 -1.42,-1.42 z m 0.42,8.191 c 0,0.231 -0.188,0.42 -0.42,0.42 H 6.17 c -0.231,0 -0.42,-0.188 -0.42,-0.42 V 5.893 c 0,-0.231 0.188,-0.42 0.42,-0.42 h 11.66 c 0.231,0 0.42,0.188 0.42,0.42 z"
         id="path2-2"
         style="mix-blend-mode:normal;fill:#fefefe;fill-opacity:1;filter:url(#filter11)" /><path
         d="M 18.467,2.81 H 5.533 C 4.136,2.81 3,3.946 3,5.342 v 8.125 C 3,14.864 4.136,16 5.533,16 H 9.601 L 9.118,17.468 H 8.513 c -1.47,0 -2.667,1.196 -2.667,2.667 0,0.582 0.474,1.056 1.056,1.056 h 10.196 c 0.582,0 1.056,-0.474 1.056,-1.056 0,-1.47 -1.196,-2.667 -2.667,-2.667 H 14.893 L 14.46,16 h 4.007 C 19.864,16 21,14.864 21,13.467 V 5.342 C 21,3.946 19.864,2.81 18.467,2.81 Z m -1.313,17.325 c 0,0.031 -0.025,0.056 -0.056,0.056 L 6.846,20.135 c 0,-0.919 0.748,-1.667 1.667,-1.667 h 0.967 5.04 0.967 c 0.919,0 1.667,0.748 1.667,1.667 z m -3.303,-2.667 h -3.68 L 10.653,16 h 2.765 z M 20,13.467 C 20,14.313 19.313,15 18.467,15 h -4.676 -3.5 -4.758 C 4.688,15 4,14.313 4,13.467 V 5.342 C 4,4.497 4.688,3.81 5.533,3.81 H 18.468 C 19.313,3.81 20,4.497 20,5.342 Z"
         id="path10"
         style="fill:#fefefe;fill-opacity:1" /><path
         d="M 17.83,4.473 H 6.17 c -0.783,0 -1.42,0.637 -1.42,1.42 v 6.771 c 0,0.783 0.637,1.42 1.42,1.42 h 11.66 c 0.783,0 1.42,-0.637 1.42,-1.42 V 5.893 c 0,-0.783 -0.637,-1.42 -1.42,-1.42 z m 0.42,8.191 c 0,0.231 -0.188,0.42 -0.42,0.42 H 6.17 c -0.231,0 -0.42,-0.188 -0.42,-0.42 V 5.893 c 0,-0.231 0.188,-0.42 0.42,-0.42 h 11.66 c 0.231,0 0.42,0.188 0.42,0.42 z"
         id="path11"
         style="fill:#fefefe;fill-opacity:1" /></g></g></svg>
