<?xml version="1.0" encoding="UTF-8" standalone="no"?>
<!-- Created with Inkscape (http://www.inkscape.org/) -->

<svg
   width="128"
   height="128"
   viewBox="0 0 128 128"
   version="1.1"
   id="svg1"
   inkscape:version="1.3.2 (091e20e, 2023-11-25, custom)"
   sodipodi:docname="stuff.svg"
   inkscape:export-filename="player_dart.png"
   inkscape:export-xdpi="96"
   inkscape:export-ydpi="96"
   xmlns:inkscape="http://www.inkscape.org/namespaces/inkscape"
   xmlns:sodipodi="http://sodipodi.sourceforge.net/DTD/sodipodi-0.dtd"
   xmlns="http://www.w3.org/2000/svg"
   xmlns:svg="http://www.w3.org/2000/svg">
  <sodipodi:namedview
     id="namedview1"
     pagecolor="#505050"
     bordercolor="#eeeeee"
     borderopacity="1"
     inkscape:showpageshadow="0"
     inkscape:pageopacity="0"
     inkscape:pagecheckerboard="0"
     inkscape:deskcolor="#505050"
     inkscape:document-units="px"
     showgrid="true"
     inkscape:zoom="5.6568543"
     inkscape:cx="61.341513"
     inkscape:cy="64.258329"
     inkscape:window-width="1920"
     inkscape:window-height="991"
     inkscape:window-x="1791"
     inkscape:window-y="-9"
     inkscape:window-maximized="1"
     inkscape:current-layer="layer3"
     shape-rendering="crispEdges"
     inkscape:export-bgcolor="#8d00ff00">
    <inkscape:grid
       id="grid1"
       units="px"
       originx="0"
       originy="0"
       spacingx="8"
       spacingy="8"
       empcolor="#0099e5"
       empopacity="0.30196078"
       color="#0099e5"
       opacity="0.14901961"
       empspacing="5"
       dotted="false"
       gridanglex="30"
       gridanglez="30"
       visible="true" />
  </sodipodi:namedview>
  <defs
     id="defs1">
    <inkscape:path-effect
       effect="bspline"
       id="path-effect1263"
       is_visible="true"
       lpeversion="1.3"
       weight="33.333333"
       steps="2"
       helper_size="0"
       apply_no_weight="true"
       apply_with_weight="true"
       only_selected="false"
       uniform="false" />
    <inkscape:perspective
       sodipodi:type="inkscape:persp3d"
       inkscape:vp_x="0 : -433.25985 : 1"
       inkscape:vp_y="0 : 3779.5275 : 0"
       inkscape:vp_z="793.70081 : -433.25985 : 1"
       inkscape:persp3d-origin="396.85041 : -620.34646 : 1"
       id="perspective36" />
  </defs>
  <g
     inkscape:groupmode="layer"
     id="layer2"
     inkscape:label="player_float"
     style="display:none"
     transform="matrix(1.0363209,0,0,1.0363209,-2.3231347,-2.3245393)"
     inkscape:export-filename="player_float.png"
     inkscape:export-xdpi="109.79011"
     inkscape:export-ydpi="109.79011">
    <path
       style="fill:#ffffff;fill-opacity:1;stroke-width:0.800007;stroke-linecap:round;stroke-miterlimit:0.5;stroke-dashoffset:6.77484;paint-order:fill markers stroke"
       id="path2"
       sodipodi:type="arc"
       sodipodi:cx="-64"
       sodipodi:cy="64"
       sodipodi:rx="32"
       sodipodi:ry="32"
       sodipodi:start="0"
       sodipodi:end="6.2705825"
       sodipodi:open="true"
       sodipodi:arc-type="arc"
       d="M -32,64 A 32,32 0 0 1 -63.899178,95.999841 32,32 0 0 1 -95.999365,64.201644 32,32 0 0 1 -64.302463,32.001429 32,32 0 0 1 -32.002541,63.596721"
       transform="rotate(-90)" />
    <path
       style="fill:#ffffff;fill-opacity:1;stroke-linecap:round;stroke-miterlimit:0.5;stroke-dashoffset:6.77484;paint-order:fill markers stroke"
       d="M 56,33.863145 69.50974,10 68.18392,26 72,34 Z"
       id="path1273" />
    <path
       style="fill:#ffffff;fill-opacity:1;stroke-linecap:round;stroke-miterlimit:0.5;stroke-dashoffset:6.77484;paint-order:fill markers stroke"
       d="M 71.92266,94.136854 58.41292,118 59.73874,102 55.92266,94 Z"
       id="path1274" />
    <path
       style="fill:#ffffff;fill-opacity:1;stroke-linecap:round;stroke-miterlimit:0.5;stroke-dashoffset:6.77484;paint-order:fill markers stroke"
       d="M 33.824475,71.96133 9.96133,58.45159 l 16,1.32582 8,-3.81608 z"
       id="path1275" />
    <path
       style="fill:#ffffff;fill-opacity:1;stroke-linecap:round;stroke-miterlimit:0.5;stroke-dashoffset:6.77484;paint-order:fill markers stroke"
       d="m 94.098184,56.03867 23.863146,13.50974 -16,-1.32582 -8,3.81608 z"
       id="path1276" />
    <path
       style="fill:#ffffff;fill-opacity:1;stroke-linecap:round;stroke-miterlimit:0.5;stroke-dashoffset:6.77484;paint-order:fill markers stroke"
       d="m 69.614392,33.346196 22.397342,-15.821563 -8.023468,13.906178 0.03942,8.863459 z"
       id="path1277" />
    <path
       style="fill:#ffffff;fill-opacity:1;stroke-linecap:round;stroke-miterlimit:0.5;stroke-dashoffset:6.77484;paint-order:fill markers stroke"
       d="M 58.308268,94.653803 35.910926,110.47537 43.934394,96.569189 43.894976,87.70573 Z"
       id="path1278" />
    <path
       style="fill:#ffffff;fill-opacity:1;stroke-linecap:round;stroke-miterlimit:0.5;stroke-dashoffset:6.77484;paint-order:fill markers stroke"
       d="M 33.307526,58.346938 17.485963,35.949596 31.392141,43.973064 40.2556,43.933646 Z"
       id="path1279" />
    <path
       style="fill:#ffffff;fill-opacity:1;stroke-linecap:round;stroke-miterlimit:0.5;stroke-dashoffset:6.77484;paint-order:fill markers stroke"
       d="M 94.615133,69.653062 110.4367,92.050404 96.530519,84.026936 87.66706,84.066354 Z"
       id="path1280" />
    <path
       style="fill:#ffffff;fill-opacity:1;stroke-linecap:round;stroke-miterlimit:0.5;stroke-dashoffset:6.77484;paint-order:fill markers stroke"
       d="M 81.036027,37.921895 107.8109,32 95.03127,41.717963 91.637742,49.906152 Z"
       id="path1281" />
    <path
       style="fill:#ffffff;fill-opacity:1;stroke-linecap:round;stroke-miterlimit:0.5;stroke-dashoffset:6.77484;paint-order:fill markers stroke"
       d="m 46.886635,90.078104 -26.774877,5.921898 12.779634,-9.717966 3.393529,-8.188188 z"
       id="path1282" />
    <path
       style="fill:#ffffff;fill-opacity:1;stroke-linecap:round;stroke-miterlimit:0.5;stroke-dashoffset:6.77484;paint-order:fill markers stroke"
       d="m 37.883226,46.925303 -5.921895,-26.774875 9.717964,12.779633 8.188187,3.393529 z"
       id="path1283" />
    <path
       style="fill:#ffffff;fill-opacity:1;stroke-linecap:round;stroke-miterlimit:0.5;stroke-dashoffset:6.77484;paint-order:fill markers stroke"
       d="M 90.039435,81.074695 95.961333,107.84957 86.243367,95.069938 78.055179,91.676409 Z"
       id="path1284" />
    <path
       style="fill:#ffffff;fill-opacity:1;stroke-linecap:round;stroke-miterlimit:0.5;stroke-dashoffset:6.77484;paint-order:fill markers stroke"
       d="m 89.33794,45.899159 27.09813,4.201682 -15.4356,4.415881 -6.134452,6.397733 z"
       id="path1285" />
    <path
       style="fill:#ffffff;fill-opacity:1;stroke-linecap:round;stroke-miterlimit:0.5;stroke-dashoffset:6.77484;paint-order:fill markers stroke"
       d="M 38.584721,82.100842 11.486589,77.89916 26.922193,73.483278 33.056644,67.085546 Z"
       id="path1286" />
    <path
       style="fill:#ffffff;fill-opacity:1;stroke-linecap:round;stroke-miterlimit:0.5;stroke-dashoffset:6.77484;paint-order:fill markers stroke"
       d="m 46.1231,38.438108 4.480858,-27.053368 4.256496,15.480314 6.334141,6.200088 z"
       id="path1287" />
    <path
       style="fill:#ffffff;fill-opacity:1;stroke-linecap:round;stroke-miterlimit:0.5;stroke-dashoffset:6.77484;paint-order:fill markers stroke"
       d="M 81.799561,89.561891 77.318705,116.61526 73.062207,101.13495 66.728065,94.934858 Z"
       id="path1288" />
  </g>
  <g
     inkscape:label="player_cube"
     inkscape:groupmode="layer"
     id="layer1"
     style="display:none">
    <rect
       style="fill:#ffffff;fill-opacity:1;stroke-width:1.16667;stroke-linecap:round;stroke-miterlimit:0.5;stroke-dashoffset:6.77484;paint-order:fill markers stroke"
       id="rect1"
       width="112"
       height="112"
       x="8"
       y="8"
       ry="12.083332"
       rx="12.083332"
       inkscape:export-filename="player.png"
       inkscape:export-xdpi="96"
       inkscape:export-ydpi="96" />
  </g>
  <g
     inkscape:groupmode="layer"
     id="layer3"
     inkscape:label="player_dart">
    <path
       id="path1370"
       style="fill:#ffffff;fill-opacity:0.978022;stroke:none;stroke-width:1;stroke-linecap:round;stroke-miterlimit:0.5;stroke-dasharray:none;stroke-dashoffset:6.77484;stroke-opacity:1;paint-order:fill markers stroke"
       d="M 64,8.5078125 V 9.015625 L 8,120 64,83.059802 120,119.49219 Z"
       sodipodi:nodetypes="cccccc" />
  </g>
  <g
     inkscape:groupmode="layer"
     id="g1305"
     inkscape:label="saw_obj"
     style="display:none"
     transform="matrix(1.0363209,0,0,1.0363209,-2.3231347,-2.3245393)"
     inkscape:export-filename="player_float.png"
     inkscape:export-xdpi="109.79011"
     inkscape:export-ydpi="109.79011">
    <path
       style="fill:#ffffff;fill-opacity:1;stroke-linecap:round;stroke-miterlimit:0.5;stroke-dashoffset:6.77484;paint-order:fill markers stroke"
       d="m 56.525888,34.67095 14.476418,-23.289399 -1.980465,15.932217 3.484995,8.14968 z"
       id="path1290" />
    <path
       style="fill:#ffffff;fill-opacity:0;stroke:#ffffff;stroke-width:0.964952;stroke-linecap:round;stroke-miterlimit:0.5;stroke-dasharray:none;stroke-dashoffset:6.77484;stroke-opacity:1;paint-order:fill markers stroke"
       id="path1342"
       sodipodi:type="arc"
       sodipodi:cx="-64"
       sodipodi:cy="63.999996"
       sodipodi:rx="26.105715"
       sodipodi:ry="26.105715"
       sodipodi:start="0"
       sodipodi:end="6.2705825"
       sodipodi:open="true"
       sodipodi:arc-type="arc"
       d="M -37.894285,63.999996 A 26.105715,26.105715 0 0 1 -63.917749,90.105581 26.105715,26.105715 0 0 1 -90.105197,64.164498 26.105715,26.105715 0 0 1 -64.24675,37.895448 26.105715,26.105715 0 0 1 -37.896358,63.671"
       transform="rotate(-90)" />
    <path
       style="fill:#ffffff;fill-opacity:1;stroke:none;stroke-width:4.51634;stroke-linecap:round;stroke-miterlimit:0.5;stroke-dasharray:none;stroke-dashoffset:6.77484;stroke-opacity:1;paint-order:fill markers stroke"
       id="path1340"
       sodipodi:type="arc"
       sodipodi:cx="-64"
       sodipodi:cy="63.999996"
       sodipodi:rx="14.055182"
       sodipodi:ry="14.055182"
       sodipodi:start="0"
       sodipodi:end="6.2705825"
       sodipodi:open="true"
       sodipodi:arc-type="arc"
       d="M -49.944818,63.999996 A 14.055182,14.055182 0 0 1 -63.955716,78.055109 14.055182,14.055182 0 0 1 -78.054903,64.088563 14.055182,14.055182 0 0 1 -64.132849,49.945442 14.055182,14.055182 0 0 1 -49.945934,63.822866"
       transform="rotate(-90)" />
    <path
       style="fill:#ffffff;fill-opacity:0;stroke:#ffffff;stroke-width:4.82476;stroke-linecap:round;stroke-miterlimit:0.5;stroke-dasharray:none;stroke-dashoffset:6.77484;stroke-opacity:1;paint-order:fill markers stroke"
       id="path1289"
       sodipodi:type="arc"
       sodipodi:cx="-64"
       sodipodi:cy="64"
       sodipodi:rx="30.030088"
       sodipodi:ry="30.030088"
       sodipodi:start="0"
       sodipodi:end="6.2705825"
       sodipodi:open="true"
       sodipodi:arc-type="arc"
       d="M -33.969912,64 A 30.030088,30.030088 0 0 1 -63.905384,94.029939 30.030088,30.030088 0 0 1 -94.029492,64.18923 30.030088,30.030088 0 0 1 -64.283843,33.971253 30.030088,30.030088 0 0 1 -33.972296,63.621547"
       transform="rotate(-90)" />
    <path
       style="fill:#ffffff;fill-opacity:1;stroke-linecap:round;stroke-miterlimit:0.5;stroke-dashoffset:6.77484;paint-order:fill markers stroke"
       d="M 71.990463,93.488141 57.514045,116.77753 59.49451,100.84532 56.009515,92.695643 Z"
       id="path1358" />
    <path
       style="fill:#ffffff;fill-opacity:1;stroke-linecap:round;stroke-miterlimit:0.5;stroke-dashoffset:6.77484;paint-order:fill markers stroke"
       d="M 34.849585,71.811828 11.560186,57.33541 l 15.932217,1.980465 8.14968,-3.484995 z"
       id="path1359" />
    <path
       style="fill:#ffffff;fill-opacity:1;stroke-linecap:round;stroke-miterlimit:0.5;stroke-dashoffset:6.77484;paint-order:fill markers stroke"
       d="m 93.666776,56.347253 23.289384,14.476418 -15.93221,-1.980465 -8.149672,3.484995 z"
       id="path1360" />
    <path
       style="fill:#ffffff;fill-opacity:1;stroke-linecap:round;stroke-miterlimit:0.5;stroke-dashoffset:6.77484;paint-order:fill markers stroke"
       d="M 34.849585,71.811828 11.560186,57.33541 l 15.932217,1.980465 8.14968,-3.484995 z"
       id="path1361" />
    <path
       style="fill:#ffffff;fill-opacity:1;stroke-linecap:round;stroke-miterlimit:0.5;stroke-dashoffset:6.77484;paint-order:fill markers stroke"
       d="m 93.666776,56.347253 23.289384,14.476418 -15.93221,-1.980465 -8.149672,3.484995 z"
       id="path1362" />
    <path
       style="fill:#ffffff;fill-opacity:1;stroke-linecap:round;stroke-miterlimit:0.5;stroke-dashoffset:6.77484;paint-order:fill markers stroke"
       d="m 78.788555,37.367719 26.504885,-7.032335 -12.36363,10.24199 -3.049419,8.322471 z"
       id="path1364" />
    <path
       style="fill:#ffffff;fill-opacity:1;stroke-linecap:round;stroke-miterlimit:0.5;stroke-dashoffset:6.77484;paint-order:fill markers stroke"
       d="M 49.727788,90.791373 23.222907,97.8237 35.586535,87.581715 38.635952,79.259247 Z"
       id="path1365" />
    <path
       style="fill:#ffffff;fill-opacity:1;stroke-linecap:round;stroke-miterlimit:0.5;stroke-dashoffset:6.77484;paint-order:fill markers stroke"
       d="m 37.546351,49.549162 -7.032334,-26.504887 10.24199,12.363633 8.32247,3.049418 z"
       id="path1366" />
    <path
       style="fill:#ffffff;fill-opacity:1;stroke-linecap:round;stroke-miterlimit:0.5;stroke-dashoffset:6.77484;paint-order:fill markers stroke"
       d="M 90.970006,78.609929 98.002329,105.11481 87.760344,92.751178 79.437879,89.701765 Z"
       id="path1367" />
    <path
       style="fill:#ffffff;fill-opacity:0;stroke:#ffffff;stroke-width:0.982474;stroke-linecap:round;stroke-miterlimit:0.5;stroke-dasharray:none;stroke-dashoffset:6.77484;stroke-opacity:1;paint-order:fill markers stroke"
       id="path1368"
       sodipodi:type="arc"
       sodipodi:cx="-64"
       sodipodi:cy="63.999992"
       sodipodi:rx="15.437887"
       sodipodi:ry="15.437887"
       sodipodi:start="0"
       sodipodi:end="6.2705825"
       sodipodi:open="true"
       sodipodi:arc-type="arc"
       d="M -48.562113,63.999992 A 15.437887,15.437887 0 0 1 -63.95136,79.437803 15.437887,15.437887 0 0 1 -79.437581,64.097272 15.437887,15.437887 0 0 1 -64.145918,48.562795 15.437887,15.437887 0 0 1 -48.563339,63.805437"
       transform="rotate(-90)" />
  </g>
</svg>
