<?xml version="1.0" encoding="UTF-8" standalone="no"?>
<!-- Created with Inkscape (http://www.inkscape.org/) -->

<svg
   width="1128"
   height="376"
   viewBox="0 0 1128 376"
   version="1.1"
   id="svg1"
   inkscape:version="1.3.2 (091e20e, 2023-11-25, custom)"
   sodipodi:docname="textTitle.svg"
   xmlns:inkscape="http://www.inkscape.org/namespaces/inkscape"
   xmlns:sodipodi="http://sodipodi.sourceforge.net/DTD/sodipodi-0.dtd"
   xmlns:xlink="http://www.w3.org/1999/xlink"
   xmlns="http://www.w3.org/2000/svg"
   xmlns:svg="http://www.w3.org/2000/svg">
  <sodipodi:namedview
     id="namedview1"
     pagecolor="#505050"
     bordercolor="#eeeeee"
     borderopacity="1"
     inkscape:showpageshadow="0"
     inkscape:pageopacity="0"
     inkscape:pagecheckerboard="0"
     inkscape:deskcolor="#505050"
     inkscape:document-units="px"
     inkscape:zoom="0.71400233"
     inkscape:cx="481.09087"
     inkscape:cy="318.62641"
     inkscape:window-width="1920"
     inkscape:window-height="991"
     inkscape:window-x="1791"
     inkscape:window-y="-9"
     inkscape:window-maximized="1"
     inkscape:current-layer="layer1" />
  <defs
     id="defs1">
    <linearGradient
       id="linearGradient4"
       inkscape:collect="always">
      <stop
         style="stop-color:#ffffff;stop-opacity:1;"
         offset="0"
         id="stop4" />
      <stop
         style="stop-color:#ffffff;stop-opacity:0;"
         offset="1"
         id="stop5" />
    </linearGradient>
    <linearGradient
       id="linearGradient2"
       inkscape:collect="always">
      <stop
         style="stop-color:#ffffff;stop-opacity:1;"
         offset="0"
         id="stop2" />
      <stop
         style="stop-color:#ffffff;stop-opacity:0;"
         offset="1"
         id="stop3" />
    </linearGradient>
    <linearGradient
       inkscape:collect="always"
       xlink:href="#linearGradient4"
       id="linearGradient5"
       x1="928.42102"
       y1="114.9375"
       x2="928.42102"
       y2="267.09372"
       gradientUnits="userSpaceOnUse" />
    <linearGradient
       inkscape:collect="always"
       xlink:href="#linearGradient2"
       id="linearGradient6"
       gradientUnits="userSpaceOnUse"
       x1="1128"
       y1="114.9375"
       x2="1128"
       y2="264.25455" />
    <filter
       inkscape:collect="always"
       style="color-interpolation-filters:sRGB"
       id="filter7"
       x="-0.0071288004"
       y="-0.12118961"
       width="1.0142576"
       height="1.2423792">
      <feGaussianBlur
         inkscape:collect="always"
         stdDeviation="5.4817234"
         id="feGaussianBlur7" />
    </filter>
    <filter
       inkscape:collect="always"
       style="color-interpolation-filters:sRGB"
       id="filter8"
       x="-0.030817805"
       y="-0.52390268"
       width="1.0616356"
       height="2.0478054">
      <feGaussianBlur
         inkscape:collect="always"
         stdDeviation="27.505095"
         id="feGaussianBlur8" />
    </filter>
  </defs>
  <g
     inkscape:label="Camada 1"
     inkscape:groupmode="layer"
     id="layer1">
    <g
       id="g1513">
      <path
         d="m 45.458496,136.4375 v 37.5 h 46.875 v -9.375 h 9.375004 v -18.75 h -9.375004 v -9.375 z m 0,56.25 v 56.25 h -18.75 v -131.25 H 101.7085 v 9.375 h 9.375 v 9.375 h 9.375 v 37.5 h -9.375 v 9.375 h -9.375 v 9.375 z m 112.500004,0 v 56.25 h -18.75 v -103.125 h 18.75 v 18.75 h 9.375 v -9.375 h 9.375 v -9.375 h 37.5 v 9.375 h 9.375 v 9.375 h 9.375 v 18.75 h -18.75 v -9.375 h -9.375 v -9.375 h -18.75 v 9.375 h -9.375 v 9.375 h -9.375 v 9.375 z m 112.5,-18.75 v 9.375 h 56.25 v -9.375 h -9.375 v -9.375 h -37.5 v 9.375 z m 75,46.875 v 9.375 h -9.375 v 9.375 h -9.375 v 9.375 h -56.25 v -9.375 h -9.375 v -9.375 h -9.375 v -65.625 h 9.375 v -9.375 h 9.375 v -9.375 h 56.25 v 9.375 h 9.375 v 9.375 h 9.375 v 28.125 h -9.375 v 9.375 h -65.625 v 18.75 h 9.375 v 9.375 h 37.5 v -9.375 z m 28.125,9.375 h -9.375 v -18.75 h 18.75 v 9.375 h 9.375 v 9.375 h 37.5 v -18.75 h -18.75 v -9.375 h -18.75 v -9.375 h -18.75 v -9.375 h -9.375 v -18.75 h 9.375 v -9.375 h 9.375 v -9.375 h 56.25 v 9.375 h 9.375 v 9.375 h 9.375 v 18.75 h -18.75 v -9.375 h -9.375 v -9.375 h -37.5 v 18.75 h 28.125 v 9.375 h 18.75 v 9.375 h 9.375 v 9.375 h 9.375 v 18.75 h -9.375 v 9.375 h -9.375 v 9.375 h -56.25 v -9.375 h -9.375 z m 112.5,0 h -9.375 v -18.75 h 18.75 v 9.375 h 9.375 v 9.375 h 37.5 v -18.75 h -18.75 v -9.375 h -18.75 v -9.375 h -18.75 v -9.375 h -9.375 v -18.75 h 9.375 v -9.375 h 9.375 v -9.375 h 56.25 v 9.375 h 9.375 v 9.375 h 9.375 v 18.75 h -18.75 v -9.375 h -9.375 v -9.375 h -37.5 v 18.75 h 28.125 v 9.375 h 18.75 v 9.375 h 9.375 v 9.375 h 9.375 v 18.75 h -9.375 v 9.375 h -9.375 v 9.375 h -56.25 v -9.375 h -9.375 z m 309.375,-112.5 v 18.75 h -75 v 37.5 h 56.25 v 18.75 h -56.25 v 37.5 h 75 v 18.75 h -93.75 v -131.25 z m 37.5,56.25 v 75 h -18.75 v -103.125 h 18.75 v 9.375 h 9.375 v -9.375 h 46.875 v 9.375 h 9.375 v 9.375 h 9.375 v 84.375 h -18.75 v -75 h -9.375 v -9.375 h -37.5 v 9.375 z m 159.375,56.25 h 9.375 v 18.75 h -18.75 v -9.375 h -9.375 v -9.375 h -9.375 v -65.625 h -18.75 v -18.75 h 18.75 v -28.125 h 18.75 v 28.125 h 18.75 v 18.75 h -18.75 v 56.25 h 9.375 z m 65.625,-56.25 v 9.375 h 56.25 v -9.375 h -9.375 v -9.375 h -37.5 v 9.375 z m 75,46.875 v 9.375 h -9.375 v 9.375 h -9.375 v 9.375 h -56.25 v -9.375 h -9.375 v -9.375 h -9.375 v -65.625 h 9.375 v -9.375 h 9.375 v -9.375 h 56.25 v 9.375 h 9.375 v 9.375 h 9.375 v 28.125 h -9.375 v 9.375 h -65.625 v 18.75 h 9.375 v 9.375 h 37.5 v -9.375 z m 37.5,-28.125 v 56.25 h -18.75 v -103.125 h 18.75 v 18.75 h 9.375 v -9.375 h 9.375 v -9.375 h 37.5 v 9.375 h 9.375 v 9.375 h 9.375 v 18.75 h -18.75 v -9.375 h -9.375 v -9.375 h -18.75 v 9.375 h -9.375 v 9.375 h -9.375 v 9.375 z m 271.875,37.5 h 9.375 v 18.75 h -18.75 v -9.375 h -9.375 v -9.375 h -9.375 v -65.625 h -18.75 v -18.75 h 18.75 v -28.125 h 18.75 v 28.125 h 18.75 v 18.75 h -18.75 v 56.25 h 9.375 z m 75,0 h 37.5 v -9.375 h 9.375 v -46.875 h -9.375 v -9.375 h -37.5 v 9.375 h -9.375 v 46.875 h 9.375 z m -9.375,18.75 v -9.375 h -9.375 v -9.375 h -9.375 v -65.625 h 9.375 v -9.375 h 9.375 v -9.375 h 56.25 v 9.375 h 9.375 v 9.375 h 9.375 v 65.625 h -9.375 v 9.375 h -9.375 v 9.375 z m 225,-75 h 46.875 v -9.375 h 9.375 v -18.75 h -9.375 v -9.375 h -46.875 z m -18.75,75 v -131.25 h 75 v 9.375 h 9.375 v 9.375 h 9.375 v 37.5 h -9.375 v 18.75 h 9.375 v 37.5 h -9.375 v 9.375 h -9.375 v 9.375 z m 18.75,-18.75 h 46.875 v -9.375 h 9.375 v -18.75 h -9.375 v -9.375 h -46.875 z m 112.5,-56.25 v 9.375 h 56.25 v -9.375 h -9.375 v -9.375 h -37.5 v 9.375 z m 75,46.875 v 9.375 h -9.375 v 9.375 h -9.375 v 9.375 h -56.25 v -9.375 h -9.375 v -9.375 h -9.375 v -65.625 h 9.375 v -9.375 h 9.375 v -9.375 h 56.25 v 9.375 h 9.375 v 9.375 h 9.375 v 28.125 h -9.375 v 9.375 h -65.625 v 18.75 h 9.375 v 9.375 h 37.5 v -9.375 z m 93.75,-46.875 v -9.375 h -9.375 v -9.375 h -37.5 v 9.375 h -9.375 v 9.375 h 9.375 v 9.375 h 37.5 v -9.375 z m -56.25,65.625 h -9.375 v -18.75 h 18.75 v 9.375 h 37.5 v -9.375 h 9.375 v -28.125 h -9.375 v 9.375 h -46.875 v -9.375 h -9.375 v -9.375 h -9.375 v -28.125 h 9.375 v -9.375 h 9.375 v -9.375 h 56.25 v 9.375 h 9.375 v 9.375 h 9.375 v 75 h -9.375 v 9.375 h -9.375 v 9.375 h -56.25 z m 150,-112.5 v 18.75 h -18.75 v -18.75 z m 9.375,103.125 h 9.375 v 18.75 h -18.75 v -9.375 h -9.375 v -9.375 h -9.375 v -46.875 h -18.75 v -18.75 h 37.5 v 56.25 h 9.375 z m 65.625,-56.25 v 75 h -18.75 v -103.125 h 18.75 v 9.375 h 9.375 v -9.375 h 46.875 v 9.375 h 9.375 v 9.375 h 9.375 v 84.375 h -18.75 v -75 h -9.375 v -9.375 h -37.5 v 9.375 z"
         id="path8"
         style="font-size:192px;font-family:'VCR OSD Mono';-inkscape-font-specification:'VCR OSD Mono';display:inline;opacity:0.633911;fill:url(#linearGradient5);fill-opacity:1;stroke:url(#linearGradient6);stroke-width:5.5;stroke-linecap:square;stroke-miterlimit:8;paint-order:stroke markers fill;filter:url(#filter8)"
         aria-label="Press Enter to Begin" />
      <path
         d="m 45.458496,136.4375 v 37.5 h 46.875 v -9.375 h 9.375004 v -18.75 h -9.375004 v -9.375 z m 0,56.25 v 56.25 h -18.75 v -131.25 H 101.7085 v 9.375 h 9.375 v 9.375 h 9.375 v 37.5 h -9.375 v 9.375 h -9.375 v 9.375 z m 112.500004,0 v 56.25 h -18.75 v -103.125 h 18.75 v 18.75 h 9.375 v -9.375 h 9.375 v -9.375 h 37.5 v 9.375 h 9.375 v 9.375 h 9.375 v 18.75 h -18.75 v -9.375 h -9.375 v -9.375 h -18.75 v 9.375 h -9.375 v 9.375 h -9.375 v 9.375 z m 112.5,-18.75 v 9.375 h 56.25 v -9.375 h -9.375 v -9.375 h -37.5 v 9.375 z m 75,46.875 v 9.375 h -9.375 v 9.375 h -9.375 v 9.375 h -56.25 v -9.375 h -9.375 v -9.375 h -9.375 v -65.625 h 9.375 v -9.375 h 9.375 v -9.375 h 56.25 v 9.375 h 9.375 v 9.375 h 9.375 v 28.125 h -9.375 v 9.375 h -65.625 v 18.75 h 9.375 v 9.375 h 37.5 v -9.375 z m 28.125,9.375 h -9.375 v -18.75 h 18.75 v 9.375 h 9.375 v 9.375 h 37.5 v -18.75 h -18.75 v -9.375 h -18.75 v -9.375 h -18.75 v -9.375 h -9.375 v -18.75 h 9.375 v -9.375 h 9.375 v -9.375 h 56.25 v 9.375 h 9.375 v 9.375 h 9.375 v 18.75 h -18.75 v -9.375 h -9.375 v -9.375 h -37.5 v 18.75 h 28.125 v 9.375 h 18.75 v 9.375 h 9.375 v 9.375 h 9.375 v 18.75 h -9.375 v 9.375 h -9.375 v 9.375 h -56.25 v -9.375 h -9.375 z m 112.5,0 h -9.375 v -18.75 h 18.75 v 9.375 h 9.375 v 9.375 h 37.5 v -18.75 h -18.75 v -9.375 h -18.75 v -9.375 h -18.75 v -9.375 h -9.375 v -18.75 h 9.375 v -9.375 h 9.375 v -9.375 h 56.25 v 9.375 h 9.375 v 9.375 h 9.375 v 18.75 h -18.75 v -9.375 h -9.375 v -9.375 h -37.5 v 18.75 h 28.125 v 9.375 h 18.75 v 9.375 h 9.375 v 9.375 h 9.375 v 18.75 h -9.375 v 9.375 h -9.375 v 9.375 h -56.25 v -9.375 h -9.375 z m 309.375,-112.5 v 18.75 h -75 v 37.5 h 56.25 v 18.75 h -56.25 v 37.5 h 75 v 18.75 h -93.75 v -131.25 z m 37.5,56.25 v 75 h -18.75 v -103.125 h 18.75 v 9.375 h 9.375 v -9.375 h 46.875 v 9.375 h 9.375 v 9.375 h 9.375 v 84.375 h -18.75 v -75 h -9.375 v -9.375 h -37.5 v 9.375 z m 159.375,56.25 h 9.375 v 18.75 h -18.75 v -9.375 h -9.375 v -9.375 h -9.375 v -65.625 h -18.75 v -18.75 h 18.75 v -28.125 h 18.75 v 28.125 h 18.75 v 18.75 h -18.75 v 56.25 h 9.375 z m 65.625,-56.25 v 9.375 h 56.25 v -9.375 h -9.375 v -9.375 h -37.5 v 9.375 z m 75,46.875 v 9.375 h -9.375 v 9.375 h -9.375 v 9.375 h -56.25 v -9.375 h -9.375 v -9.375 h -9.375 v -65.625 h 9.375 v -9.375 h 9.375 v -9.375 h 56.25 v 9.375 h 9.375 v 9.375 h 9.375 v 28.125 h -9.375 v 9.375 h -65.625 v 18.75 h 9.375 v 9.375 h 37.5 v -9.375 z m 37.5,-28.125 v 56.25 h -18.75 v -103.125 h 18.75 v 18.75 h 9.375 v -9.375 h 9.375 v -9.375 h 37.5 v 9.375 h 9.375 v 9.375 h 9.375 v 18.75 h -18.75 v -9.375 h -9.375 v -9.375 h -18.75 v 9.375 h -9.375 v 9.375 h -9.375 v 9.375 z m 271.875,37.5 h 9.375 v 18.75 h -18.75 v -9.375 h -9.375 v -9.375 h -9.375 v -65.625 h -18.75 v -18.75 h 18.75 v -28.125 h 18.75 v 28.125 h 18.75 v 18.75 h -18.75 v 56.25 h 9.375 z m 75,0 h 37.5 v -9.375 h 9.375 v -46.875 h -9.375 v -9.375 h -37.5 v 9.375 h -9.375 v 46.875 h 9.375 z m -9.375,18.75 v -9.375 h -9.375 v -9.375 h -9.375 v -65.625 h 9.375 v -9.375 h 9.375 v -9.375 h 56.25 v 9.375 h 9.375 v 9.375 h 9.375 v 65.625 h -9.375 v 9.375 h -9.375 v 9.375 z m 225,-75 h 46.875 v -9.375 h 9.375 v -18.75 h -9.375 v -9.375 h -46.875 z m -18.75,75 v -131.25 h 75 v 9.375 h 9.375 v 9.375 h 9.375 v 37.5 h -9.375 v 18.75 h 9.375 v 37.5 h -9.375 v 9.375 h -9.375 v 9.375 z m 18.75,-18.75 h 46.875 v -9.375 h 9.375 v -18.75 h -9.375 v -9.375 h -46.875 z m 112.5,-56.25 v 9.375 h 56.25 v -9.375 h -9.375 v -9.375 h -37.5 v 9.375 z m 75,46.875 v 9.375 h -9.375 v 9.375 h -9.375 v 9.375 h -56.25 v -9.375 h -9.375 v -9.375 h -9.375 v -65.625 h 9.375 v -9.375 h 9.375 v -9.375 h 56.25 v 9.375 h 9.375 v 9.375 h 9.375 v 28.125 h -9.375 v 9.375 h -65.625 v 18.75 h 9.375 v 9.375 h 37.5 v -9.375 z m 93.75,-46.875 v -9.375 h -9.375 v -9.375 h -37.5 v 9.375 h -9.375 v 9.375 h 9.375 v 9.375 h 37.5 v -9.375 z m -56.25,65.625 h -9.375 v -18.75 h 18.75 v 9.375 h 37.5 v -9.375 h 9.375 v -28.125 h -9.375 v 9.375 h -46.875 v -9.375 h -9.375 v -9.375 h -9.375 v -28.125 h 9.375 v -9.375 h 9.375 v -9.375 h 56.25 v 9.375 h 9.375 v 9.375 h 9.375 v 75 h -9.375 v 9.375 h -9.375 v 9.375 h -56.25 z m 150,-112.5 v 18.75 h -18.75 v -18.75 z m 9.375,103.125 h 9.375 v 18.75 h -18.75 v -9.375 h -9.375 v -9.375 h -9.375 v -46.875 h -18.75 v -18.75 h 37.5 v 56.25 h 9.375 z m 65.625,-56.25 v 75 h -18.75 v -103.125 h 18.75 v 9.375 h 9.375 v -9.375 h 46.875 v 9.375 h 9.375 v 9.375 h 9.375 v 84.375 h -18.75 v -75 h -9.375 v -9.375 h -37.5 v 9.375 z"
         id="path7"
         style="font-size:192px;font-family:'VCR OSD Mono';-inkscape-font-specification:'VCR OSD Mono';display:inline;opacity:0.779886;mix-blend-mode:normal;fill:url(#linearGradient5);fill-opacity:1;stroke:url(#linearGradient6);stroke-width:5.5;stroke-linecap:square;stroke-miterlimit:8;paint-order:stroke markers fill;filter:url(#filter7)"
         aria-label="Press Enter to Begin" />
      <path
         d="m 45.458496,136.4375 v 37.5 h 46.875 v -9.375 h 9.375004 v -18.75 h -9.375004 v -9.375 z m 0,56.25 v 56.25 h -18.75 v -131.25 H 101.7085 v 9.375 h 9.375 v 9.375 h 9.375 v 37.5 h -9.375 v 9.375 h -9.375 v 9.375 z m 112.500004,0 v 56.25 h -18.75 v -103.125 h 18.75 v 18.75 h 9.375 v -9.375 h 9.375 v -9.375 h 37.5 v 9.375 h 9.375 v 9.375 h 9.375 v 18.75 h -18.75 v -9.375 h -9.375 v -9.375 h -18.75 v 9.375 h -9.375 v 9.375 h -9.375 v 9.375 z m 112.5,-18.75 v 9.375 h 56.25 v -9.375 h -9.375 v -9.375 h -37.5 v 9.375 z m 75,46.875 v 9.375 h -9.375 v 9.375 h -9.375 v 9.375 h -56.25 v -9.375 h -9.375 v -9.375 h -9.375 v -65.625 h 9.375 v -9.375 h 9.375 v -9.375 h 56.25 v 9.375 h 9.375 v 9.375 h 9.375 v 28.125 h -9.375 v 9.375 h -65.625 v 18.75 h 9.375 v 9.375 h 37.5 v -9.375 z m 28.125,9.375 h -9.375 v -18.75 h 18.75 v 9.375 h 9.375 v 9.375 h 37.5 v -18.75 h -18.75 v -9.375 h -18.75 v -9.375 h -18.75 v -9.375 h -9.375 v -18.75 h 9.375 v -9.375 h 9.375 v -9.375 h 56.25 v 9.375 h 9.375 v 9.375 h 9.375 v 18.75 h -18.75 v -9.375 h -9.375 v -9.375 h -37.5 v 18.75 h 28.125 v 9.375 h 18.75 v 9.375 h 9.375 v 9.375 h 9.375 v 18.75 h -9.375 v 9.375 h -9.375 v 9.375 h -56.25 v -9.375 h -9.375 z m 112.5,0 h -9.375 v -18.75 h 18.75 v 9.375 h 9.375 v 9.375 h 37.5 v -18.75 h -18.75 v -9.375 h -18.75 v -9.375 h -18.75 v -9.375 h -9.375 v -18.75 h 9.375 v -9.375 h 9.375 v -9.375 h 56.25 v 9.375 h 9.375 v 9.375 h 9.375 v 18.75 h -18.75 v -9.375 h -9.375 v -9.375 h -37.5 v 18.75 h 28.125 v 9.375 h 18.75 v 9.375 h 9.375 v 9.375 h 9.375 v 18.75 h -9.375 v 9.375 h -9.375 v 9.375 h -56.25 v -9.375 h -9.375 z m 309.375,-112.5 v 18.75 h -75 v 37.5 h 56.25 v 18.75 h -56.25 v 37.5 h 75 v 18.75 h -93.75 v -131.25 z m 37.5,56.25 v 75 h -18.75 v -103.125 h 18.75 v 9.375 h 9.375 v -9.375 h 46.875 v 9.375 h 9.375 v 9.375 h 9.375 v 84.375 h -18.75 v -75 h -9.375 v -9.375 h -37.5 v 9.375 z m 159.375,56.25 h 9.375 v 18.75 h -18.75 v -9.375 h -9.375 v -9.375 h -9.375 v -65.625 h -18.75 v -18.75 h 18.75 v -28.125 h 18.75 v 28.125 h 18.75 v 18.75 h -18.75 v 56.25 h 9.375 z m 65.625,-56.25 v 9.375 h 56.25 v -9.375 h -9.375 v -9.375 h -37.5 v 9.375 z m 75,46.875 v 9.375 h -9.375 v 9.375 h -9.375 v 9.375 h -56.25 v -9.375 h -9.375 v -9.375 h -9.375 v -65.625 h 9.375 v -9.375 h 9.375 v -9.375 h 56.25 v 9.375 h 9.375 v 9.375 h 9.375 v 28.125 h -9.375 v 9.375 h -65.625 v 18.75 h 9.375 v 9.375 h 37.5 v -9.375 z m 37.5,-28.125 v 56.25 h -18.75 v -103.125 h 18.75 v 18.75 h 9.375 v -9.375 h 9.375 v -9.375 h 37.5 v 9.375 h 9.375 v 9.375 h 9.375 v 18.75 h -18.75 v -9.375 h -9.375 v -9.375 h -18.75 v 9.375 h -9.375 v 9.375 h -9.375 v 9.375 z m 271.875,37.5 h 9.375 v 18.75 h -18.75 v -9.375 h -9.375 v -9.375 h -9.375 v -65.625 h -18.75 v -18.75 h 18.75 v -28.125 h 18.75 v 28.125 h 18.75 v 18.75 h -18.75 v 56.25 h 9.375 z m 75,0 h 37.5 v -9.375 h 9.375 v -46.875 h -9.375 v -9.375 h -37.5 v 9.375 h -9.375 v 46.875 h 9.375 z m -9.375,18.75 v -9.375 h -9.375 v -9.375 h -9.375 v -65.625 h 9.375 v -9.375 h 9.375 v -9.375 h 56.25 v 9.375 h 9.375 v 9.375 h 9.375 v 65.625 h -9.375 v 9.375 h -9.375 v 9.375 z m 225,-75 h 46.875 v -9.375 h 9.375 v -18.75 h -9.375 v -9.375 h -46.875 z m -18.75,75 v -131.25 h 75 v 9.375 h 9.375 v 9.375 h 9.375 v 37.5 h -9.375 v 18.75 h 9.375 v 37.5 h -9.375 v 9.375 h -9.375 v 9.375 z m 18.75,-18.75 h 46.875 v -9.375 h 9.375 v -18.75 h -9.375 v -9.375 h -46.875 z m 112.5,-56.25 v 9.375 h 56.25 v -9.375 h -9.375 v -9.375 h -37.5 v 9.375 z m 75,46.875 v 9.375 h -9.375 v 9.375 h -9.375 v 9.375 h -56.25 v -9.375 h -9.375 v -9.375 h -9.375 v -65.625 h 9.375 v -9.375 h 9.375 v -9.375 h 56.25 v 9.375 h 9.375 v 9.375 h 9.375 v 28.125 h -9.375 v 9.375 h -65.625 v 18.75 h 9.375 v 9.375 h 37.5 v -9.375 z m 93.75,-46.875 v -9.375 h -9.375 v -9.375 h -37.5 v 9.375 h -9.375 v 9.375 h 9.375 v 9.375 h 37.5 v -9.375 z m -56.25,65.625 h -9.375 v -18.75 h 18.75 v 9.375 h 37.5 v -9.375 h 9.375 v -28.125 h -9.375 v 9.375 h -46.875 v -9.375 h -9.375 v -9.375 h -9.375 v -28.125 h 9.375 v -9.375 h 9.375 v -9.375 h 56.25 v 9.375 h 9.375 v 9.375 h 9.375 v 75 h -9.375 v 9.375 h -9.375 v 9.375 h -56.25 z m 150,-112.5 v 18.75 h -18.75 v -18.75 z m 9.375,103.125 h 9.375 v 18.75 h -18.75 v -9.375 h -9.375 v -9.375 h -9.375 v -46.875 h -18.75 v -18.75 h 37.5 v 56.25 h 9.375 z m 65.625,-56.25 v 75 h -18.75 v -103.125 h 18.75 v 9.375 h 9.375 v -9.375 h 46.875 v 9.375 h 9.375 v 9.375 h 9.375 v 84.375 h -18.75 v -75 h -9.375 v -9.375 h -37.5 v 9.375 z"
         id="text1"
         style="font-size:192px;font-family:'VCR OSD Mono';-inkscape-font-specification:'VCR OSD Mono';display:inline;opacity:1;fill:url(#linearGradient5);fill-opacity:1;stroke:url(#linearGradient6);stroke-width:5.5;stroke-linecap:square;stroke-miterlimit:8;paint-order:stroke markers fill"
         aria-label="Press Enter to Begin" />
    </g>
  </g>
</svg>
