<?xml version="1.0" encoding="UTF-8" standalone="no"?>
<!-- Created with Inkscape (http://www.inkscape.org/) -->

<svg
   width="1024"
   height="1024"
   viewBox="0 0 1024 1024"
   version="1.1"
   id="svg1"
   xml:space="preserve"
   inkscape:export-filename="trophy_master.png"
   inkscape:export-xdpi="96"
   inkscape:export-ydpi="96"
   inkscape:version="1.3.2 (091e20e, 2023-11-25, custom)"
   sodipodi:docname="trophies.svg"
   xmlns:inkscape="http://www.inkscape.org/namespaces/inkscape"
   xmlns:sodipodi="http://sodipodi.sourceforge.net/DTD/sodipodi-0.dtd"
   xmlns="http://www.w3.org/2000/svg"
   xmlns:svg="http://www.w3.org/2000/svg"><sodipodi:namedview
     id="namedview1"
     pagecolor="#505050"
     bordercolor="#eeeeee"
     borderopacity="1"
     inkscape:showpageshadow="0"
     inkscape:pageopacity="0"
     inkscape:pagecheckerboard="0"
     inkscape:deskcolor="#505050"
     inkscape:document-units="px"
     inkscape:zoom="1.0730898"
     inkscape:cx="537.69965"
     inkscape:cy="517.66405"
     inkscape:window-width="1920"
     inkscape:window-height="991"
     inkscape:window-x="1791"
     inkscape:window-y="-9"
     inkscape:window-maximized="1"
     inkscape:current-layer="g3" /><defs
     id="defs1"><filter
       inkscape:collect="always"
       style="color-interpolation-filters:sRGB"
       id="filter5"
       x="-0.21817606"
       y="-0.22658763"
       width="1.436352"
       height="1.4531753"><feGaussianBlur
         inkscape:collect="always"
         stdDeviation="17.155429"
         id="feGaussianBlur5" /></filter><filter
       inkscape:collect="always"
       style="color-interpolation-filters:sRGB"
       id="filter10"
       x="-0.12216381"
       y="-0.12206263"
       width="1.2443276"
       height="1.2441253"><feGaussianBlur
         inkscape:collect="always"
         stdDeviation="26.040028"
         id="feGaussianBlur10" /></filter><filter
       inkscape:collect="always"
       style="color-interpolation-filters:sRGB"
       id="filter12"
       x="-0.20449453"
       y="-0.20449453"
       width="1.4089891"
       height="1.4089891"><feGaussianBlur
         inkscape:collect="always"
         stdDeviation="35.505892"
         id="feGaussianBlur12" /></filter><filter
       inkscape:collect="always"
       style="color-interpolation-filters:sRGB"
       id="filter15"
       x="-0.12216381"
       y="-0.12206263"
       width="1.2443276"
       height="1.2441253"><feGaussianBlur
         inkscape:collect="always"
         stdDeviation="26.040028"
         id="feGaussianBlur15" /></filter><filter
       inkscape:collect="always"
       style="color-interpolation-filters:sRGB"
       id="filter16"
       x="-0.12221036"
       y="-0.12210915"
       width="1.2444207"
       height="1.2442183"><feGaussianBlur
         inkscape:collect="always"
         stdDeviation="26.049951"
         id="feGaussianBlur16" /></filter><filter
       inkscape:collect="always"
       style="color-interpolation-filters:sRGB"
       id="filter37"
       x="-0.10876259"
       y="-0.11292036"
       width="1.2175252"
       height="1.2258407"><feGaussianBlur
         inkscape:collect="always"
         stdDeviation="6.4132894"
         id="feGaussianBlur37" /></filter><filter
       inkscape:collect="always"
       style="color-interpolation-filters:sRGB"
       id="filter38"
       x="-0.18580796"
       y="-0.19298216"
       width="1.3716158"
       height="1.3859643"><feGaussianBlur
         inkscape:collect="always"
         stdDeviation="14.21718"
         id="feGaussianBlur38" /></filter></defs><g
     inkscape:label="Camada 1"
     inkscape:groupmode="layer"
     id="layer1"
     transform="translate(384.82767,-416.48852)"><g
       id="g12"
       inkscape:label="bg"><path
         sodipodi:type="star"
         style="opacity:1;fill:#000000;fill-opacity:1;stroke:#ffffff;stroke-width:39.864;stroke-linecap:square;stroke-miterlimit:8;stroke-dasharray:none;stroke-dashoffset:0;paint-order:stroke markers fill"
         id="path11"
         inkscape:flatsided="true"
         sodipodi:sides="8"
         sodipodi:cx="256"
         sodipodi:cy="256"
         sodipodi:r1="277.74692"
         sodipodi:r2="256.60471"
         sodipodi:arg1="1.1724465"
         sodipodi:arg2="1.5651456"
         inkscape:rounded="0"
         inkscape:randomized="0"
         d="M 363.73745,511.99999 151.16255,513.20121 1.3958985e-5,363.73745 -1.2012054,151.16255 148.26255,1.3958985e-5 360.83745,-1.2012054 511.99999,148.26255 l 1.20122,212.5749 z"
         transform="matrix(1.4046181,0,0,1.4046181,-229.43461,571.88158)" /><path
         sodipodi:type="star"
         style="opacity:1;mix-blend-mode:normal;fill:none;fill-opacity:1;stroke:#ffffff;stroke-width:39.864;stroke-linecap:square;stroke-miterlimit:8;stroke-dasharray:none;stroke-dashoffset:0;stroke-opacity:1;paint-order:stroke markers fill;filter:url(#filter12)"
         id="path12"
         inkscape:flatsided="true"
         sodipodi:sides="8"
         sodipodi:cx="256"
         sodipodi:cy="256"
         sodipodi:r1="277.74692"
         sodipodi:r2="256.60471"
         sodipodi:arg1="1.1724465"
         sodipodi:arg2="1.5651456"
         inkscape:rounded="0"
         inkscape:randomized="0"
         d="M 363.73745,511.99999 151.16255,513.20121 1.3958985e-5,363.73745 -1.2012054,151.16255 148.26255,1.3958985e-5 360.83745,-1.2012054 511.99999,148.26255 l 1.20122,212.5749 z"
         transform="matrix(1.4046181,0,0,1.4046181,-229.43461,571.88158)" /></g><g
       id="g3"
       transform="matrix(0.78687382,0,0,0.78687382,-71.292195,730.02421)"
       inkscape:label="Trophy">
	
	
	
	
	<path
   id="path15"
   style="display:none;mix-blend-mode:normal;fill:#ff7551;fill-opacity:1;filter:url(#filter15)"
   class="st0"
   d="M 102.49051,-1.184e-4 V 137.06238 c 0,112.39089 99.33005,156.25 153.51,156.25 54.17994,0 153.51,-43.85911 153.51,-156.25 V -1.184e-4 Z M 0.43050504,45.099882 v 48.39375 c 0,0.837999 -0.03275,1.905751 -0.06875,3.17375 -0.48199952,17.249978 -1.76021574,63.066788 32.49374996,98.293748 16.067984,16.52399 37.531527,28.01326 64.0925,34.42125 -7.995992,-14.24998 -14.219504,-30.18102 -18.1025,-47.815 -6.998993,-3.82699 -13.099005,-8.3465 -18.22,-13.6125 -22.847977,-23.49597 -21.93425,-56.22651 -21.54125,-70.202498 0.047,-1.700999 0.08125,-3.131752 0.08125,-4.25875 v -9.6575 h 34.8425 0.07 0.24 v -38.73625 z m 437.25000496,0 v 38.73625 h 35.1525 v 9.6575 c 0,1.126998 0.0372,2.557751 0.0863,4.25875 0.38899,13.975988 1.30297,46.706528 -21.545,70.202498 -5.121,5.266 -11.22076,9.78651 -18.21875,13.6125 -3.883,17.63498 -10.11001,33.56502 -18.105,47.815 26.56097,-6.40599 48.02626,-17.89851 64.09625,-34.4225 34.25496,-35.22596 32.97424,-81.04252 32.49125,-98.292498 -0.033,-1.267999 -0.0675,-2.335751 -0.0675,-3.17375 v -48.39375 z m -205.47125,273.406248 -11.895,48.97625 -14.9675,20.91125 -8.82,12.0825 h 0.1725 l -0.1725,0.24125 h 118.94625 l -23.7925,-33.235 -11.89,-48.97625 -23.79,3.4975 z m -87.13875,113.49375 v 79.5975 0.1625 0.24 h 221.86 v -79.5975 -0.1625 -0.24 z"
   inkscape:label="glow-orange" /><path
   id="path14"
   style="display:none;mix-blend-mode:normal;fill:#56fcf5;fill-opacity:1;filter:url(#filter16)"
   class="st0"
   d="M 102.49051,-1.184e-4 V 137.06238 c 0,112.39089 99.33005,156.25 153.51,156.25 54.17994,0 153.51,-43.85911 153.51,-156.25 V -1.184e-4 Z M 0.43050504,45.099882 v 48.39375 c 0,0.837999 -0.03275,1.905751 -0.06875,3.17375 -0.48199952,17.249978 -1.76021574,63.066788 32.49374996,98.293748 16.067984,16.52399 37.531527,28.01326 64.0925,34.42125 -7.995992,-14.24998 -14.219504,-30.18102 -18.1025,-47.815 -6.998993,-3.82699 -13.099005,-8.3465 -18.22,-13.6125 -22.847977,-23.49597 -21.93425,-56.22651 -21.54125,-70.202498 0.047,-1.700999 0.08125,-3.131752 0.08125,-4.25875 v -9.6575 h 34.8425 0.07 0.24 v -38.73625 z m 437.25000496,0 v 38.73625 h 35.1525 v 9.6575 c 0,1.126998 0.0372,2.557751 0.0863,4.25875 0.38899,13.975988 1.30297,46.706528 -21.545,70.202498 -5.121,5.266 -11.22076,9.78651 -18.21875,13.6125 -3.883,17.63498 -10.11001,33.56502 -18.105,47.815 26.56097,-6.40599 48.02626,-17.89851 64.09625,-34.4225 34.25496,-35.22596 32.97424,-81.04252 32.49125,-98.292498 -0.033,-1.267999 -0.0675,-2.335751 -0.0675,-3.17375 v -48.39375 z m -205.47125,273.406248 -11.895,48.97625 -14.9675,20.91125 -8.82,12.0825 h 0.1725 l -0.1725,0.24125 h 118.94625 l -23.7925,-33.235 -11.89,-48.97625 -23.79,3.4975 z m -87.13875,113.49375 v 79.5975 0.1625 0.24 h 221.86 v -79.5975 -0.1625 -0.24 z"
   inkscape:label="glow-blue" /><path
   id="path13"
   style="display:none;mix-blend-mode:normal;fill:#84ff45;fill-opacity:1;filter:url(#filter10)"
   class="st0"
   d="M 102.49051,-1.184e-4 V 137.06238 c 0,112.39089 99.33005,156.25 153.51,156.25 54.17994,0 153.51,-43.85911 153.51,-156.25 V -1.184e-4 Z M 0.43050504,45.099882 v 48.39375 c 0,0.837999 -0.03275,1.905751 -0.06875,3.17375 -0.48199952,17.249978 -1.76021574,63.066788 32.49374996,98.293748 16.067984,16.52399 37.531527,28.01326 64.0925,34.42125 -7.995992,-14.24998 -14.219504,-30.18102 -18.1025,-47.815 -6.998993,-3.82699 -13.099005,-8.3465 -18.22,-13.6125 -22.847977,-23.49597 -21.93425,-56.22651 -21.54125,-70.202498 0.047,-1.700999 0.08125,-3.131752 0.08125,-4.25875 v -9.6575 h 34.8425 0.07 0.24 v -38.73625 z m 437.25000496,0 v 38.73625 h 35.1525 v 9.6575 c 0,1.126998 0.0372,2.557751 0.0863,4.25875 0.38899,13.975988 1.30297,46.706528 -21.545,70.202498 -5.121,5.266 -11.22076,9.78651 -18.21875,13.6125 -3.883,17.63498 -10.11001,33.56502 -18.105,47.815 26.56097,-6.40599 48.02626,-17.89851 64.09625,-34.4225 34.25496,-35.22596 32.97424,-81.04252 32.49125,-98.292498 -0.033,-1.267999 -0.0675,-2.335751 -0.0675,-3.17375 v -48.39375 z m -205.47125,273.406248 -11.895,48.97625 -14.9675,20.91125 -8.82,12.0825 h 0.1725 l -0.1725,0.24125 h 118.94625 l -23.7925,-33.235 -11.89,-48.97625 -23.79,3.4975 z m -87.13875,113.49375 v 79.5975 0.1625 0.24 h 221.86 v -79.5975 -0.1625 -0.24 z"
   inkscape:label="glow-greenm" /><path
   id="path1"
   style="display:inline;mix-blend-mode:normal;fill:#ff6ec7;fill-opacity:1;filter:url(#filter10)"
   class="st0"
   d="M 102.49051,-1.184e-4 V 137.06238 c 0,112.39089 99.33005,156.25 153.51,156.25 54.17994,0 153.51,-43.85911 153.51,-156.25 V -1.184e-4 Z M 0.43050504,45.099882 v 48.39375 c 0,0.837999 -0.03275,1.905751 -0.06875,3.17375 -0.48199952,17.249978 -1.76021574,63.066788 32.49374996,98.293748 16.067984,16.52399 37.531527,28.01326 64.0925,34.42125 -7.995992,-14.24998 -14.219504,-30.18102 -18.1025,-47.815 -6.998993,-3.82699 -13.099005,-8.3465 -18.22,-13.6125 -22.847977,-23.49597 -21.93425,-56.22651 -21.54125,-70.202498 0.047,-1.700999 0.08125,-3.131752 0.08125,-4.25875 v -9.6575 h 34.8425 0.07 0.24 v -38.73625 z m 437.25000496,0 v 38.73625 h 35.1525 v 9.6575 c 0,1.126998 0.0372,2.557751 0.0863,4.25875 0.38899,13.975988 1.30297,46.706528 -21.545,70.202498 -5.121,5.266 -11.22076,9.78651 -18.21875,13.6125 -3.883,17.63498 -10.11001,33.56502 -18.105,47.815 26.56097,-6.40599 48.02626,-17.89851 64.09625,-34.4225 34.25496,-35.22596 32.97424,-81.04252 32.49125,-98.292498 -0.033,-1.267999 -0.0675,-2.335751 -0.0675,-3.17375 v -48.39375 z m -205.47125,273.406248 -11.895,48.97625 -14.9675,20.91125 -8.82,12.0825 h 0.1725 l -0.1725,0.24125 h 118.94625 l -23.7925,-33.235 -11.89,-48.97625 -23.79,3.4975 z m -87.13875,113.49375 v 79.5975 0.1625 0.24 h 221.86 v -79.5975 -0.1625 -0.24 z"
   inkscape:label="glow-pink" />
<g
   id="g10"
   inkscape:label="Body"
   style="display:inline"><path
     class="st0"
     d="m 102.49,0 v 137.062 c 0,112.391 99.33,156.25 153.51,156.25 54.18,0 153.51,-43.859 153.51,-156.25 V 0 Z"
     id="path8"
     style="fill:#ffffff;fill-opacity:1"
     sodipodi:nodetypes="cssscc" /><polygon
     class="st0"
     points="196.699,400.476 196.527,400.717 315.473,400.717 291.681,367.482 279.791,318.506 256,322.004 232.209,318.506 220.314,367.482 205.347,388.394 196.527,400.476 "
     id="polygon8"
     style="fill:#ffffff;fill-opacity:1" /><polygon
     class="st0"
     points="366.93,432 145.07,432 145.07,511.598 145.07,511.76 145.07,512 366.93,512 366.93,432.402 366.93,432.24 "
     id="polygon9"
     style="fill:#ffffff;fill-opacity:1" /><path
     class="st0"
     d="M 511.638,96.668 C 511.605,95.4 511.57,94.332 511.57,93.494 V 45.1 h -73.889 v 38.736 h 35.152 v 9.658 c 0,1.127 0.037,2.557 0.086,4.258 0.389,13.976 1.303,46.707 -21.545,70.203 -5.121,5.266 -11.221,9.787 -18.219,13.613 -3.883,17.635 -10.109,33.564 -18.104,47.814 26.561,-6.406 48.026,-17.898 64.096,-34.422 34.255,-35.226 32.974,-81.042 32.491,-98.292 z"
     id="path9"
     style="fill:#ffffff;fill-opacity:1" /><path
     class="st0"
     d="M 60.625,167.955 C 37.777,144.459 38.691,111.728 39.084,97.752 c 0.047,-1.701 0.082,-3.131 0.082,-4.258 v -9.658 h 34.842 0.07 v 0 h 0.24 V 45.1 H 0.43 v 48.394 c 0,0.838 -0.032,1.906 -0.068,3.174 -0.482,17.25 -1.76,63.066 32.494,98.293 16.068,16.524 37.531,28.014 64.092,34.422 -7.996,-14.25 -14.22,-30.182 -18.103,-47.816 -6.999,-3.827 -13.099,-8.346 -18.22,-13.612 z"
     id="path10"
     style="fill:#ffffff;fill-opacity:1" /></g><g
   id="g18"
   inkscape:label="starBagde"
   transform="matrix(0.50551897,0,0,0.50551897,123.4935,17.242339)"><circle
     style="opacity:1;fill:#000000;fill-opacity:1;stroke:#ffffff;stroke-width:1.73329;stroke-linecap:square;stroke-miterlimit:8;stroke-dasharray:1.73329, 5.19987;paint-order:stroke markers fill"
     id="circle5"
     cx="262.11871"
     cy="255.99986"
     r="187.36685"
     inkscape:label="bg" /><circle
     style="opacity:1;fill:none;fill-opacity:1;stroke:#ffffff;stroke-width:5.0641;stroke-linecap:square;stroke-miterlimit:8;stroke-dasharray:none;stroke-dashoffset:0;paint-order:stroke markers fill"
     id="path4"
     cx="262.11871"
     cy="255.99986"
     r="187.36685"
     inkscape:label="bg_border_glow" /><g
     id="g4"
     inkscape:label="singleStar"
     style="display:none"><g
       id="g5"
       inkscape:label="GlowingStar"><path
         id="path19"
         style="display:inline;fill:#ffffff;fill-opacity:1;stroke:#ffffff;stroke-width:12.7486;stroke-linecap:round;stroke-linejoin:round;stroke-dasharray:none;stroke-opacity:1;filter:url(#filter5)"
         d="m 262.12367,151.08118 c -10.46706,0 -19.84611,5.83001 -24.4761,15.21395 l -18.87312,38.24 -42.20182,6.12974 c -10.3594,1.50849 -18.8003,8.62531 -22.02642,18.57212 -3.23576,9.95075 -0.59137,20.67286 6.9009,27.98147 l 30.5339,29.76494 -7.20683,42.0266 c -1.77124,10.31063 2.38746,20.53906 10.85612,26.69512 4.69459,3.41287 10.24285,5.21687 16.04607,5.21687 4.40635,0 8.80015,-1.08557 12.70163,-3.13848 l 37.74622,-19.84474 37.73908,19.8453 c 3.90148,2.04982 8.29242,3.13408 12.69614,3.13408 5.80718,0 11.35817,-1.80236 16.04662,-5.21083 8.47129,-6.1521 12.63197,-16.38197 10.85941,-26.69348 l -7.20738,-42.031 30.53115,-29.76328 c 7.4958,-7.30026 10.14063,-18.02446 6.90309,-27.97873 -3.22788,-9.95076 -11.66777,-17.06747 -22.03025,-18.57596 l -42.20018,-6.12974 -18.87036,-38.24 c -4.63133,-9.38394 -14.0074,-15.21395 -24.46787,-15.21395 z"
         inkscape:label="star_itself_glow"
         inkscape:transform-center-x="-1.8117804e-05" /><path
         id="path5"
         style="display:inline;fill:#ffffff;fill-opacity:1;stroke:#ffffff;stroke-width:12.7486;stroke-linecap:round;stroke-linejoin:round;stroke-dasharray:none;stroke-opacity:1"
         d="m 262.12367,151.08118 c -10.46706,0 -19.84611,5.83001 -24.4761,15.21395 l -18.87312,38.24 -42.20182,6.12974 c -10.3594,1.50849 -18.8003,8.62531 -22.02642,18.57212 -3.23576,9.95075 -0.59137,20.67286 6.9009,27.98147 l 30.5339,29.76494 -7.20683,42.0266 c -1.77124,10.31063 2.38746,20.53906 10.85612,26.69512 4.69459,3.41287 10.24285,5.21687 16.04607,5.21687 4.40635,0 8.80015,-1.08557 12.70163,-3.13848 l 37.74622,-19.84474 37.73908,19.8453 c 3.90148,2.04982 8.29242,3.13408 12.69614,3.13408 5.80718,0 11.35817,-1.80236 16.04662,-5.21083 8.47129,-6.1521 12.63197,-16.38197 10.85941,-26.69348 l -7.20738,-42.031 30.53115,-29.76328 c 7.4958,-7.30026 10.14063,-18.02446 6.90309,-27.97873 -3.22788,-9.95076 -11.66777,-17.06747 -22.03025,-18.57596 l -42.20018,-6.12974 -18.87036,-38.24 c -4.63133,-9.38394 -14.0074,-15.21395 -24.46787,-15.21395 z"
         inkscape:label="star_itself"
         inkscape:transform-center-x="-1.8117804e-05" /></g></g><g
     id="g22"
     inkscape:label="doubleStar"
     style="display:none"><g
       id="g21"
       inkscape:label="GlowingStar"
       transform="matrix(0.74718502,0,0,0.74718502,13.860446,41.570584)"><path
         id="path20"
         style="display:inline;fill:#ffffff;fill-opacity:1;stroke:#ffffff;stroke-width:12.7486;stroke-linecap:round;stroke-linejoin:round;stroke-dasharray:none;stroke-opacity:1;filter:url(#filter5)"
         d="m 262.12367,151.08118 c -10.46706,0 -19.84611,5.83001 -24.4761,15.21395 l -18.87312,38.24 -42.20182,6.12974 c -10.3594,1.50849 -18.8003,8.62531 -22.02642,18.57212 -3.23576,9.95075 -0.59137,20.67286 6.9009,27.98147 l 30.5339,29.76494 -7.20683,42.0266 c -1.77124,10.31063 2.38746,20.53906 10.85612,26.69512 4.69459,3.41287 10.24285,5.21687 16.04607,5.21687 4.40635,0 8.80015,-1.08557 12.70163,-3.13848 l 37.74622,-19.84474 37.73908,19.8453 c 3.90148,2.04982 8.29242,3.13408 12.69614,3.13408 5.80718,0 11.35817,-1.80236 16.04662,-5.21083 8.47129,-6.1521 12.63197,-16.38197 10.85941,-26.69348 l -7.20738,-42.031 30.53115,-29.76328 c 7.4958,-7.30026 10.14063,-18.02446 6.90309,-27.97873 -3.22788,-9.95076 -11.66777,-17.06747 -22.03025,-18.57596 l -42.20018,-6.12974 -18.87036,-38.24 c -4.63133,-9.38394 -14.0074,-15.21395 -24.46787,-15.21395 z"
         inkscape:label="star_itself_glow"
         inkscape:transform-center-x="-1.8117804e-05" /><path
         id="path21"
         style="display:inline;fill:#ffffff;fill-opacity:1;stroke:#ffffff;stroke-width:12.7486;stroke-linecap:round;stroke-linejoin:round;stroke-dasharray:none;stroke-opacity:1"
         d="m 262.12367,151.08118 c -10.46706,0 -19.84611,5.83001 -24.4761,15.21395 l -18.87312,38.24 -42.20182,6.12974 c -10.3594,1.50849 -18.8003,8.62531 -22.02642,18.57212 -3.23576,9.95075 -0.59137,20.67286 6.9009,27.98147 l 30.5339,29.76494 -7.20683,42.0266 c -1.77124,10.31063 2.38746,20.53906 10.85612,26.69512 4.69459,3.41287 10.24285,5.21687 16.04607,5.21687 4.40635,0 8.80015,-1.08557 12.70163,-3.13848 l 37.74622,-19.84474 37.73908,19.8453 c 3.90148,2.04982 8.29242,3.13408 12.69614,3.13408 5.80718,0 11.35817,-1.80236 16.04662,-5.21083 8.47129,-6.1521 12.63197,-16.38197 10.85941,-26.69348 l -7.20738,-42.031 30.53115,-29.76328 c 7.4958,-7.30026 10.14063,-18.02446 6.90309,-27.97873 -3.22788,-9.95076 -11.66777,-17.06747 -22.03025,-18.57596 l -42.20018,-6.12974 -18.87036,-38.24 c -4.63133,-9.38394 -14.0074,-15.21395 -24.46787,-15.21395 z"
         inkscape:label="star_itself"
         inkscape:transform-center-x="-1.8117804e-05" /></g><g
       id="g23"
       inkscape:label="GlowingStar"
       transform="matrix(0.55571531,0.11054108,-0.11054108,0.55571531,220.91999,120.77163)"><path
         id="path22"
         style="display:inline;fill:#ffffff;fill-opacity:1;stroke:#ffffff;stroke-width:12.7486;stroke-linecap:round;stroke-linejoin:round;stroke-dasharray:none;stroke-opacity:1;filter:url(#filter5)"
         d="m 262.12367,151.08118 c -10.46706,0 -19.84611,5.83001 -24.4761,15.21395 l -18.87312,38.24 -42.20182,6.12974 c -10.3594,1.50849 -18.8003,8.62531 -22.02642,18.57212 -3.23576,9.95075 -0.59137,20.67286 6.9009,27.98147 l 30.5339,29.76494 -7.20683,42.0266 c -1.77124,10.31063 2.38746,20.53906 10.85612,26.69512 4.69459,3.41287 10.24285,5.21687 16.04607,5.21687 4.40635,0 8.80015,-1.08557 12.70163,-3.13848 l 37.74622,-19.84474 37.73908,19.8453 c 3.90148,2.04982 8.29242,3.13408 12.69614,3.13408 5.80718,0 11.35817,-1.80236 16.04662,-5.21083 8.47129,-6.1521 12.63197,-16.38197 10.85941,-26.69348 l -7.20738,-42.031 30.53115,-29.76328 c 7.4958,-7.30026 10.14063,-18.02446 6.90309,-27.97873 -3.22788,-9.95076 -11.66777,-17.06747 -22.03025,-18.57596 l -42.20018,-6.12974 -18.87036,-38.24 c -4.63133,-9.38394 -14.0074,-15.21395 -24.46787,-15.21395 z"
         inkscape:label="star_itself_glow"
         inkscape:transform-center-x="-1.8117804e-05" /><path
         id="path23"
         style="display:inline;fill:#ffffff;fill-opacity:1;stroke:#ffffff;stroke-width:12.7486;stroke-linecap:round;stroke-linejoin:round;stroke-dasharray:none;stroke-opacity:1"
         d="m 262.12367,151.08118 c -10.46706,0 -19.84611,5.83001 -24.4761,15.21395 l -18.87312,38.24 -42.20182,6.12974 c -10.3594,1.50849 -18.8003,8.62531 -22.02642,18.57212 -3.23576,9.95075 -0.59137,20.67286 6.9009,27.98147 l 30.5339,29.76494 -7.20683,42.0266 c -1.77124,10.31063 2.38746,20.53906 10.85612,26.69512 4.69459,3.41287 10.24285,5.21687 16.04607,5.21687 4.40635,0 8.80015,-1.08557 12.70163,-3.13848 l 37.74622,-19.84474 37.73908,19.8453 c 3.90148,2.04982 8.29242,3.13408 12.69614,3.13408 5.80718,0 11.35817,-1.80236 16.04662,-5.21083 8.47129,-6.1521 12.63197,-16.38197 10.85941,-26.69348 l -7.20738,-42.031 30.53115,-29.76328 c 7.4958,-7.30026 10.14063,-18.02446 6.90309,-27.97873 -3.22788,-9.95076 -11.66777,-17.06747 -22.03025,-18.57596 l -42.20018,-6.12974 -18.87036,-38.24 c -4.63133,-9.38394 -14.0074,-15.21395 -24.46787,-15.21395 z"
         inkscape:label="star_itself"
         inkscape:transform-center-x="-1.8117804e-05" /></g></g><g
     id="g28"
     inkscape:label="tripleStar"
     style="display:none"><g
       id="g25"
       inkscape:label="GlowingStar"
       transform="matrix(0.74718502,0,0,0.74718502,5.1635217,62.512065)"><path
         id="path24"
         style="display:inline;fill:#ffffff;fill-opacity:1;stroke:#ffffff;stroke-width:12.7486;stroke-linecap:round;stroke-linejoin:round;stroke-dasharray:none;stroke-opacity:1;filter:url(#filter5)"
         d="m 262.12367,151.08118 c -10.46706,0 -19.84611,5.83001 -24.4761,15.21395 l -18.87312,38.24 -42.20182,6.12974 c -10.3594,1.50849 -18.8003,8.62531 -22.02642,18.57212 -3.23576,9.95075 -0.59137,20.67286 6.9009,27.98147 l 30.5339,29.76494 -7.20683,42.0266 c -1.77124,10.31063 2.38746,20.53906 10.85612,26.69512 4.69459,3.41287 10.24285,5.21687 16.04607,5.21687 4.40635,0 8.80015,-1.08557 12.70163,-3.13848 l 37.74622,-19.84474 37.73908,19.8453 c 3.90148,2.04982 8.29242,3.13408 12.69614,3.13408 5.80718,0 11.35817,-1.80236 16.04662,-5.21083 8.47129,-6.1521 12.63197,-16.38197 10.85941,-26.69348 l -7.20738,-42.031 30.53115,-29.76328 c 7.4958,-7.30026 10.14063,-18.02446 6.90309,-27.97873 -3.22788,-9.95076 -11.66777,-17.06747 -22.03025,-18.57596 l -42.20018,-6.12974 -18.87036,-38.24 c -4.63133,-9.38394 -14.0074,-15.21395 -24.46787,-15.21395 z"
         inkscape:label="star_itself_glow"
         inkscape:transform-center-x="-1.8117804e-05" /><path
         id="path25"
         style="display:inline;fill:#ffffff;fill-opacity:1;stroke:#ffffff;stroke-width:12.7486;stroke-linecap:round;stroke-linejoin:round;stroke-dasharray:none;stroke-opacity:1"
         d="m 262.12367,151.08118 c -10.46706,0 -19.84611,5.83001 -24.4761,15.21395 l -18.87312,38.24 -42.20182,6.12974 c -10.3594,1.50849 -18.8003,8.62531 -22.02642,18.57212 -3.23576,9.95075 -0.59137,20.67286 6.9009,27.98147 l 30.5339,29.76494 -7.20683,42.0266 c -1.77124,10.31063 2.38746,20.53906 10.85612,26.69512 4.69459,3.41287 10.24285,5.21687 16.04607,5.21687 4.40635,0 8.80015,-1.08557 12.70163,-3.13848 l 37.74622,-19.84474 37.73908,19.8453 c 3.90148,2.04982 8.29242,3.13408 12.69614,3.13408 5.80718,0 11.35817,-1.80236 16.04662,-5.21083 8.47129,-6.1521 12.63197,-16.38197 10.85941,-26.69348 l -7.20738,-42.031 30.53115,-29.76328 c 7.4958,-7.30026 10.14063,-18.02446 6.90309,-27.97873 -3.22788,-9.95076 -11.66777,-17.06747 -22.03025,-18.57596 l -42.20018,-6.12974 -18.87036,-38.24 c -4.63133,-9.38394 -14.0074,-15.21395 -24.46787,-15.21395 z"
         inkscape:label="star_itself"
         inkscape:transform-center-x="-1.8117804e-05" /></g><g
       id="g27"
       inkscape:label="GlowingStar"
       transform="matrix(0.55571531,0.11054108,-0.11054108,0.55571531,223.40483,144.76987)"><path
         id="path26"
         style="display:inline;fill:#ffffff;fill-opacity:1;stroke:#ffffff;stroke-width:12.7486;stroke-linecap:round;stroke-linejoin:round;stroke-dasharray:none;stroke-opacity:1;filter:url(#filter5)"
         d="m 262.12367,151.08118 c -10.46706,0 -19.84611,5.83001 -24.4761,15.21395 l -18.87312,38.24 -42.20182,6.12974 c -10.3594,1.50849 -18.8003,8.62531 -22.02642,18.57212 -3.23576,9.95075 -0.59137,20.67286 6.9009,27.98147 l 30.5339,29.76494 -7.20683,42.0266 c -1.77124,10.31063 2.38746,20.53906 10.85612,26.69512 4.69459,3.41287 10.24285,5.21687 16.04607,5.21687 4.40635,0 8.80015,-1.08557 12.70163,-3.13848 l 37.74622,-19.84474 37.73908,19.8453 c 3.90148,2.04982 8.29242,3.13408 12.69614,3.13408 5.80718,0 11.35817,-1.80236 16.04662,-5.21083 8.47129,-6.1521 12.63197,-16.38197 10.85941,-26.69348 l -7.20738,-42.031 30.53115,-29.76328 c 7.4958,-7.30026 10.14063,-18.02446 6.90309,-27.97873 -3.22788,-9.95076 -11.66777,-17.06747 -22.03025,-18.57596 l -42.20018,-6.12974 -18.87036,-38.24 c -4.63133,-9.38394 -14.0074,-15.21395 -24.46787,-15.21395 z"
         inkscape:label="star_itself_glow"
         inkscape:transform-center-x="-1.8117804e-05" /><path
         id="path27"
         style="display:inline;fill:#ffffff;fill-opacity:1;stroke:#ffffff;stroke-width:12.7486;stroke-linecap:round;stroke-linejoin:round;stroke-dasharray:none;stroke-opacity:1"
         d="m 262.12367,151.08118 c -10.46706,0 -19.84611,5.83001 -24.4761,15.21395 l -18.87312,38.24 -42.20182,6.12974 c -10.3594,1.50849 -18.8003,8.62531 -22.02642,18.57212 -3.23576,9.95075 -0.59137,20.67286 6.9009,27.98147 l 30.5339,29.76494 -7.20683,42.0266 c -1.77124,10.31063 2.38746,20.53906 10.85612,26.69512 4.69459,3.41287 10.24285,5.21687 16.04607,5.21687 4.40635,0 8.80015,-1.08557 12.70163,-3.13848 l 37.74622,-19.84474 37.73908,19.8453 c 3.90148,2.04982 8.29242,3.13408 12.69614,3.13408 5.80718,0 11.35817,-1.80236 16.04662,-5.21083 8.47129,-6.1521 12.63197,-16.38197 10.85941,-26.69348 l -7.20738,-42.031 30.53115,-29.76328 c 7.4958,-7.30026 10.14063,-18.02446 6.90309,-27.97873 -3.22788,-9.95076 -11.66777,-17.06747 -22.03025,-18.57596 l -42.20018,-6.12974 -18.87036,-38.24 c -4.63133,-9.38394 -14.0074,-15.21395 -24.46787,-15.21395 z"
         inkscape:label="star_itself"
         inkscape:transform-center-x="-1.8117804e-05" /></g><g
       id="g29"
       inkscape:label="GlowingStar"
       transform="matrix(0.38607299,-0.18311225,0.18311225,0.38607299,176.82241,133.7934)"><path
         id="path28"
         style="display:inline;fill:#ffffff;fill-opacity:1;stroke:#ffffff;stroke-width:12.7486;stroke-linecap:round;stroke-linejoin:round;stroke-dasharray:none;stroke-opacity:1;filter:url(#filter5)"
         d="m 262.12367,151.08118 c -10.46706,0 -19.84611,5.83001 -24.4761,15.21395 l -18.87312,38.24 -42.20182,6.12974 c -10.3594,1.50849 -18.8003,8.62531 -22.02642,18.57212 -3.23576,9.95075 -0.59137,20.67286 6.9009,27.98147 l 30.5339,29.76494 -7.20683,42.0266 c -1.77124,10.31063 2.38746,20.53906 10.85612,26.69512 4.69459,3.41287 10.24285,5.21687 16.04607,5.21687 4.40635,0 8.80015,-1.08557 12.70163,-3.13848 l 37.74622,-19.84474 37.73908,19.8453 c 3.90148,2.04982 8.29242,3.13408 12.69614,3.13408 5.80718,0 11.35817,-1.80236 16.04662,-5.21083 8.47129,-6.1521 12.63197,-16.38197 10.85941,-26.69348 l -7.20738,-42.031 30.53115,-29.76328 c 7.4958,-7.30026 10.14063,-18.02446 6.90309,-27.97873 -3.22788,-9.95076 -11.66777,-17.06747 -22.03025,-18.57596 l -42.20018,-6.12974 -18.87036,-38.24 c -4.63133,-9.38394 -14.0074,-15.21395 -24.46787,-15.21395 z"
         inkscape:label="star_itself_glow"
         inkscape:transform-center-x="-1.8117804e-05" /><path
         id="path29"
         style="display:inline;fill:#ffffff;fill-opacity:1;stroke:#ffffff;stroke-width:12.7486;stroke-linecap:round;stroke-linejoin:round;stroke-dasharray:none;stroke-opacity:1"
         d="m 262.12367,151.08118 c -10.46706,0 -19.84611,5.83001 -24.4761,15.21395 l -18.87312,38.24 -42.20182,6.12974 c -10.3594,1.50849 -18.8003,8.62531 -22.02642,18.57212 -3.23576,9.95075 -0.59137,20.67286 6.9009,27.98147 l 30.5339,29.76494 -7.20683,42.0266 c -1.77124,10.31063 2.38746,20.53906 10.85612,26.69512 4.69459,3.41287 10.24285,5.21687 16.04607,5.21687 4.40635,0 8.80015,-1.08557 12.70163,-3.13848 l 37.74622,-19.84474 37.73908,19.8453 c 3.90148,2.04982 8.29242,3.13408 12.69614,3.13408 5.80718,0 11.35817,-1.80236 16.04662,-5.21083 8.47129,-6.1521 12.63197,-16.38197 10.85941,-26.69348 l -7.20738,-42.031 30.53115,-29.76328 c 7.4958,-7.30026 10.14063,-18.02446 6.90309,-27.97873 -3.22788,-9.95076 -11.66777,-17.06747 -22.03025,-18.57596 l -42.20018,-6.12974 -18.87036,-38.24 c -4.63133,-9.38394 -14.0074,-15.21395 -24.46787,-15.21395 z"
         inkscape:label="star_itself"
         inkscape:transform-center-x="-1.8117804e-05" /></g></g><g
     id="g36"
     inkscape:label="superStar"
     style="display:inline"><g
       id="g31"
       inkscape:label="GlowingStar"
       transform="matrix(1.0203101,0,0,1.0203101,-5.3237619,-5.1995264)"><path
         id="path30"
         style="display:inline;mix-blend-mode:normal;fill:none;fill-opacity:1;stroke:#ffffff;stroke-width:12.7486;stroke-linecap:round;stroke-linejoin:round;stroke-dasharray:none;stroke-opacity:1;filter:url(#filter38)"
         d="m 262.12367,151.08118 c -10.46706,0 -19.84611,5.83001 -24.4761,15.21395 l -18.87312,38.24 -42.20182,6.12974 c -10.3594,1.50849 -18.8003,8.62531 -22.02642,18.57212 -3.23576,9.95075 -0.59137,20.67286 6.9009,27.98147 l 30.5339,29.76494 -7.20683,42.0266 c -1.77124,10.31063 2.38746,20.53906 10.85612,26.69512 4.69459,3.41287 10.24285,5.21687 16.04607,5.21687 4.40635,0 8.80015,-1.08557 12.70163,-3.13848 l 37.74622,-19.84474 37.73908,19.8453 c 3.90148,2.04982 8.29242,3.13408 12.69614,3.13408 5.80718,0 11.35817,-1.80236 16.04662,-5.21083 8.47129,-6.1521 12.63197,-16.38197 10.85941,-26.69348 l -7.20738,-42.031 30.53115,-29.76328 c 7.4958,-7.30026 10.14063,-18.02446 6.90309,-27.97873 -3.22788,-9.95076 -11.66777,-17.06747 -22.03025,-18.57596 l -42.20018,-6.12974 -18.87036,-38.24 c -4.63133,-9.38394 -14.0074,-15.21395 -24.46787,-15.21395 z"
         inkscape:label="star_itself_glow"
         inkscape:transform-center-x="-1.8117804e-05" /><path
         id="path31"
         style="display:inline;fill:none;fill-opacity:1;stroke:#ffffff;stroke-width:4.92782;stroke-linecap:round;stroke-linejoin:round;stroke-dasharray:none;stroke-opacity:1"
         d="m 262.12367,151.08118 c -10.46706,0 -19.84611,5.83001 -24.4761,15.21395 l -18.87312,38.24 -42.20182,6.12974 c -10.3594,1.50849 -18.8003,8.62531 -22.02642,18.57212 -3.23576,9.95075 -0.59137,20.67286 6.9009,27.98147 l 30.5339,29.76494 -7.20683,42.0266 c -1.77124,10.31063 2.38746,20.53906 10.85612,26.69512 4.69459,3.41287 10.24285,5.21687 16.04607,5.21687 4.40635,0 8.80015,-1.08557 12.70163,-3.13848 l 37.74622,-19.84474 37.73908,19.8453 c 3.90148,2.04982 8.29242,3.13408 12.69614,3.13408 5.80718,0 11.35817,-1.80236 16.04662,-5.21083 8.47129,-6.1521 12.63197,-16.38197 10.85941,-26.69348 l -7.20738,-42.031 30.53115,-29.76328 c 7.4958,-7.30026 10.14063,-18.02446 6.90309,-27.97873 -3.22788,-9.95076 -11.66777,-17.06747 -22.03025,-18.57596 l -42.20018,-6.12974 -18.87036,-38.24 c -4.63133,-9.38394 -14.0074,-15.21395 -24.46787,-15.21395 z"
         inkscape:label="star_itself"
         inkscape:transform-center-x="-1.8117804e-05" /><path
         id="path37"
         style="display:inline;mix-blend-mode:normal;fill:#ffffff;fill-opacity:1;stroke:none;stroke-width:3.201;stroke-linecap:round;stroke-linejoin:round;stroke-dasharray:none;stroke-opacity:1;filter:url(#filter37)"
         d="m 262.12228,187.84782 c -6.79915,0 -12.89155,3.78703 -15.89908,9.88262 l -12.25953,24.83978 -27.41328,3.98173 c -6.72922,0.97988 -12.21222,5.60279 -14.30783,12.064 -2.10187,6.46377 -0.38414,13.42859 4.48266,18.17609 l 19.83408,19.33458 -4.68138,27.29947 c -1.15056,6.69754 1.55083,13.34168 7.05187,17.34051 3.04949,2.21691 6.65351,3.38875 10.42314,3.38875 2.86226,0 5.71637,-0.70516 8.25067,-2.03868 l 24.51904,-12.89067 24.51439,12.89103 c 2.53431,1.33152 5.38656,2.03582 8.24711,2.03582 3.7722,0 7.37799,-1.17076 10.4235,-3.38482 5.50274,-3.99626 8.20542,-10.64134 7.05401,-17.33945 l -4.68174,-27.30232 19.8323,-19.33351 c 4.86909,-4.74207 6.5871,-11.70825 4.48408,-18.17431 -2.09676,-6.46377 -7.57911,-11.08661 -14.31032,-12.06649 l -27.41222,-3.98173 -12.25773,-24.83978 c -3.0084,-6.09559 -9.09887,-9.88262 -15.89374,-9.88262 z"
         inkscape:label="star_itself_inner_glow"
         inkscape:transform-center-x="-1.2420121e-05" /><path
         id="path36"
         style="display:inline;fill:#ffffff;fill-opacity:1;stroke:none;stroke-width:3.201;stroke-linecap:round;stroke-linejoin:round;stroke-dasharray:none;stroke-opacity:1"
         d="m 262.12228,187.84782 c -6.79915,0 -12.89155,3.78703 -15.89908,9.88262 l -12.25953,24.83978 -27.41328,3.98173 c -6.72922,0.97988 -12.21222,5.60279 -14.30783,12.064 -2.10187,6.46377 -0.38414,13.42859 4.48266,18.17609 l 19.83408,19.33458 -4.68138,27.29947 c -1.15056,6.69754 1.55083,13.34168 7.05187,17.34051 3.04949,2.21691 6.65351,3.38875 10.42314,3.38875 2.86226,0 5.71637,-0.70516 8.25067,-2.03868 l 24.51904,-12.89067 24.51439,12.89103 c 2.53431,1.33152 5.38656,2.03582 8.24711,2.03582 3.7722,0 7.37799,-1.17076 10.4235,-3.38482 5.50274,-3.99626 8.20542,-10.64134 7.05401,-17.33945 l -4.68174,-27.30232 19.8323,-19.33351 c 4.86909,-4.74207 6.5871,-11.70825 4.48408,-18.17431 -2.09676,-6.46377 -7.57911,-11.08661 -14.31032,-12.06649 l -27.41222,-3.98173 -12.25773,-24.83978 c -3.0084,-6.09559 -9.09887,-9.88262 -15.89374,-9.88262 z"
         inkscape:label="star_itself_inner"
         inkscape:transform-center-x="-1.2420121e-05" /></g></g></g></g></g><style
     type="text/css"
     id="style1">
	.st0{fill:#000000;}
</style><style
     type="text/css"
     id="style1-8">
	.st0{fill:#000000;}
</style></svg>
