<?xml version="1.0" encoding="UTF-8" standalone="no"?>
<!-- Created with Inkscape (http://www.inkscape.org/) -->

<svg
   width="512"
   height="512"
   viewBox="0 0 512 512"
   version="1.1"
   id="svg1"
   xml:space="preserve"
   inkscape:export-filename="..\..\..\images\menus\selectionEditor.png"
   inkscape:export-xdpi="96"
   inkscape:export-ydpi="96"
   inkscape:version="1.3.2 (091e20e, 2023-11-25, custom)"
   sodipodi:docname="menuIcons.svg"
   xmlns:inkscape="http://www.inkscape.org/namespaces/inkscape"
   xmlns:sodipodi="http://sodipodi.sourceforge.net/DTD/sodipodi-0.dtd"
   xmlns:xlink="http://www.w3.org/1999/xlink"
   xmlns="http://www.w3.org/2000/svg"
   xmlns:svg="http://www.w3.org/2000/svg"><sodipodi:namedview
     id="namedview1"
     pagecolor="#505050"
     bordercolor="#eeeeee"
     borderopacity="1"
     inkscape:showpageshadow="0"
     inkscape:pageopacity="0"
     inkscape:pagecheckerboard="0"
     inkscape:deskcolor="#505050"
     inkscape:document-units="px"
     inkscape:zoom="0.99999999"
     inkscape:cx="414.5"
     inkscape:cy="218.5"
     inkscape:window-width="1920"
     inkscape:window-height="991"
     inkscape:window-x="1791"
     inkscape:window-y="-9"
     inkscape:window-maximized="1"
     inkscape:current-layer="layer2" /><defs
     id="defs1"><linearGradient
       id="linearGradient23"
       inkscape:collect="always"><stop
         style="stop-color:#ff0000;stop-opacity:1;"
         offset="0"
         id="stop23" /><stop
         style="stop-color:#ffa600;stop-opacity:1;"
         offset="0.13"
         id="stop50" /><stop
         style="stop-color:#e6ff00;stop-opacity:1;"
         offset="0.25999999"
         id="stop51" /><stop
         style="stop-color:#51ff00;stop-opacity:1;"
         offset="0.38"
         id="stop52" /><stop
         style="stop-color:#00ff8e;stop-opacity:1;"
         offset="0.49913493"
         id="stop57" /><stop
         style="stop-color:#00ffff;stop-opacity:1;"
         offset="0.62"
         id="stop58" /><stop
         style="stop-color:#0015ff;stop-opacity:1;"
         offset="0.74000001"
         id="stop53" /><stop
         style="stop-color:#f800ff;stop-opacity:1;"
         offset="0.87"
         id="stop54" /><stop
         style="stop-color:#ff0075;stop-opacity:1;"
         offset="1"
         id="stop55" /></linearGradient><linearGradient
       id="linearGradient18"
       inkscape:collect="always"><stop
         style="stop-color:#4af0ee;stop-opacity:1;"
         offset="0"
         id="stop18" /><stop
         style="stop-color:#1de75e;stop-opacity:1;"
         offset="1"
         id="stop19" /></linearGradient><linearGradient
       id="linearGradient14"
       inkscape:collect="always"><stop
         style="stop-color:#a529cc;stop-opacity:1;"
         offset="0"
         id="stop15" /><stop
         style="stop-color:#ea1d6a;stop-opacity:1;"
         offset="1"
         id="stop16" /></linearGradient><linearGradient
       id="linearGradient8"
       inkscape:collect="always"><stop
         style="stop-color:#ffffff;stop-opacity:0;"
         offset="0.19618055"
         id="stop8" /><stop
         style="stop-color:#ffffff;stop-opacity:0.49881235;"
         offset="0.30555555"
         id="stop12" /><stop
         style="stop-color:#ffffff;stop-opacity:0.74901961;"
         offset="0.39930555"
         id="stop14" /><stop
         style="stop-color:#ffffff;stop-opacity:1;"
         offset="0.4982639"
         id="stop11" /><stop
         style="stop-color:#ffffff;stop-opacity:0.74901961;"
         offset="0.59114587"
         id="stop13" /><stop
         style="stop-color:#ffffff;stop-opacity:0.49803922;"
         offset="0.68576396"
         id="stop10" /><stop
         style="stop-color:#ffffff;stop-opacity:0;"
         offset="0.80729163"
         id="stop9" /></linearGradient><inkscape:perspective
       sodipodi:type="inkscape:persp3d"
       inkscape:vp_x="0 : 158.74015 : 1"
       inkscape:vp_y="0 : 3779.5275 : 0"
       inkscape:vp_z="793.70081 : 158.74015 : 1"
       inkscape:persp3d-origin="396.85041 : -28.34646 : 1"
       id="perspective36" /><inkscape:path-effect
       effect="bspline"
       id="path-effect1263"
       is_visible="true"
       lpeversion="1.3"
       weight="33.333333"
       steps="2"
       helper_size="0"
       apply_no_weight="true"
       apply_with_weight="true"
       only_selected="false"
       uniform="false" /><inkscape:perspective
       sodipodi:type="inkscape:persp3d"
       inkscape:vp_x="0 : -433.25985 : 1"
       inkscape:vp_y="0 : 3779.5275 : 0"
       inkscape:vp_z="793.70081 : -433.25985 : 1"
       inkscape:persp3d-origin="396.85041 : -620.34646 : 1"
       id="perspective36-3" /><filter
       inkscape:collect="always"
       style="color-interpolation-filters:sRGB"
       id="filter2"
       x="-0.45095636"
       y="-0.45095636"
       width="1.9019127"
       height="1.9019127"><feGaussianBlur
         inkscape:collect="always"
         stdDeviation="21.044631"
         id="feGaussianBlur2"
         result="result1" /><feBlend
         mode="normal"
         id="feBlend9"
         in2="result1"
         in="SourceAlpha" /></filter><filter
       inkscape:collect="always"
       style="color-interpolation-filters:sRGB"
       id="filter8"
       x="0"
       y="0"
       width="1"
       height="1"><feBlend
         mode="normal"
         id="feBlend12"
         in="SourceGraphic"
         in2="SourceAlpha" /></filter><linearGradient
       inkscape:collect="always"
       xlink:href="#linearGradient8"
       id="linearGradient9"
       x1="-419.20303"
       y1="632.01031"
       x2="-285.70303"
       y2="632.01031"
       gradientUnits="userSpaceOnUse"
       spreadMethod="reflect"
       gradientTransform="translate(425.01931,-232.37684)" /><filter
       inkscape:collect="always"
       style="color-interpolation-filters:sRGB"
       id="filter8-0"
       x="0"
       y="0"
       width="1"
       height="1"><feBlend
         mode="normal"
         id="feBlend12-4"
         in="SourceGraphic"
         in2="SourceAlpha" /></filter><linearGradient
       inkscape:collect="always"
       xlink:href="#linearGradient8"
       id="linearGradient16"
       gradientUnits="userSpaceOnUse"
       gradientTransform="translate(425.01931,-232.37684)"
       x1="-419.20303"
       y1="632.01031"
       x2="-285.70303"
       y2="632.01031"
       spreadMethod="reflect" /><filter
       inkscape:collect="always"
       style="color-interpolation-filters:sRGB"
       id="filter18"
       x="-0.23956304"
       y="-0.17967228"
       width="1.4791261"
       height="1.3593446"><feGaussianBlur
         stdDeviation="4.7912605"
         id="feGaussianBlur18" /></filter><filter
       inkscape:collect="always"
       style="color-interpolation-filters:sRGB"
       id="filter8-9"
       x="0"
       y="0"
       width="1"
       height="1"><feBlend
         mode="normal"
         id="feBlend12-8"
         in="SourceGraphic"
         in2="SourceAlpha" /></filter><linearGradient
       inkscape:collect="always"
       xlink:href="#linearGradient8"
       id="linearGradient530"
       gradientUnits="userSpaceOnUse"
       gradientTransform="translate(425.01931,-232.37684)"
       x1="-419.20303"
       y1="632.01031"
       x2="-285.70303"
       y2="632.01031"
       spreadMethod="reflect" /><filter
       inkscape:collect="always"
       style="color-interpolation-filters:sRGB"
       id="filter8-9-5-2"
       x="0"
       y="0"
       width="1"
       height="1"><feBlend
         mode="normal"
         id="feBlend12-8-9-9"
         in="SourceGraphic"
         in2="SourceAlpha" /></filter><linearGradient
       inkscape:collect="always"
       xlink:href="#linearGradient8"
       id="linearGradient532"
       gradientUnits="userSpaceOnUse"
       gradientTransform="translate(425.01931,-232.37684)"
       x1="-419.20303"
       y1="632.01031"
       x2="-285.70303"
       y2="632.01031"
       spreadMethod="reflect" /><filter
       inkscape:collect="always"
       style="color-interpolation-filters:sRGB"
       id="filter8-9-5-2-0"
       x="0"
       y="0"
       width="1"
       height="1"><feBlend
         mode="normal"
         id="feBlend12-8-9-9-0"
         in="SourceGraphic"
         in2="SourceAlpha" /></filter><linearGradient
       inkscape:collect="always"
       xlink:href="#linearGradient8"
       id="linearGradient533"
       gradientUnits="userSpaceOnUse"
       gradientTransform="translate(425.01931,-232.37684)"
       x1="-419.20303"
       y1="632.01031"
       x2="-285.70303"
       y2="632.01031"
       spreadMethod="reflect" /><filter
       inkscape:collect="always"
       style="color-interpolation-filters:sRGB"
       id="filter8-9-5-2-0-8"
       x="0"
       y="0"
       width="1"
       height="1"><feBlend
         mode="normal"
         id="feBlend12-8-9-9-0-0"
         in="SourceGraphic"
         in2="SourceAlpha" /></filter><linearGradient
       inkscape:collect="always"
       xlink:href="#linearGradient8"
       id="linearGradient534"
       gradientUnits="userSpaceOnUse"
       gradientTransform="translate(425.01931,-232.37684)"
       x1="-419.20303"
       y1="632.01031"
       x2="-285.70303"
       y2="632.01031"
       spreadMethod="reflect" /><filter
       inkscape:collect="always"
       style="color-interpolation-filters:sRGB"
       id="filter534"
       x="-0.23256048"
       y="-0.23256052"
       width="1.465121"
       height="1.465121"><feGaussianBlur
         inkscape:collect="always"
         stdDeviation="0.28939481"
         id="feGaussianBlur534" /></filter><filter
       inkscape:collect="always"
       style="color-interpolation-filters:sRGB"
       id="filter535"
       x="-0.059721328"
       y="-0.059721328"
       width="1.1194427"
       height="1.1194427"><feGaussianBlur
         inkscape:collect="always"
         stdDeviation="2.4806491"
         id="feGaussianBlur535" /></filter><filter
       style="color-interpolation-filters:sRGB"
       id="filter9"
       inkscape:label="filtro11" /><linearGradient
       inkscape:collect="always"
       xlink:href="#linearGradient14"
       id="linearGradient17"
       x1="-35.963791"
       y1="170.49394"
       x2="27.308325"
       y2="82.97126"
       gradientUnits="userSpaceOnUse" /><linearGradient
       inkscape:collect="always"
       xlink:href="#linearGradient18"
       id="linearGradient19"
       x1="17.178467"
       y1="214.22493"
       x2="80.290497"
       y2="126.92369"
       gradientUnits="userSpaceOnUse" /><filter
       inkscape:collect="always"
       style="color-interpolation-filters:sRGB"
       id="filter20"
       x="-0.17389922"
       y="-0.30216751"
       width="1.3477984"
       height="1.604335"><feGaussianBlur
         inkscape:collect="always"
         stdDeviation="10.623387"
         id="feGaussianBlur20" /></filter><filter
       inkscape:collect="always"
       style="color-interpolation-filters:sRGB"
       id="filter21"
       x="-0.17389929"
       y="-0.30216752"
       width="1.3477986"
       height="1.604335"><feGaussianBlur
         inkscape:collect="always"
         stdDeviation="10.623387"
         id="feGaussianBlur21" /></filter><linearGradient
       inkscape:collect="always"
       xlink:href="#linearGradient14"
       id="linearGradient21"
       gradientUnits="userSpaceOnUse"
       x1="-35.963791"
       y1="170.49394"
       x2="27.308325"
       y2="82.97126" /><linearGradient
       inkscape:collect="always"
       xlink:href="#linearGradient18"
       id="linearGradient22"
       gradientUnits="userSpaceOnUse"
       x1="17.178467"
       y1="214.22493"
       x2="80.290497"
       y2="126.92369" /><linearGradient
       inkscape:collect="always"
       xlink:href="#linearGradient23"
       id="linearGradient24"
       x1="575.58905"
       y1="251.75781"
       x2="575.58905"
       y2="195.2173"
       gradientUnits="userSpaceOnUse"
       spreadMethod="reflect" /><filter
       inkscape:collect="always"
       style="color-interpolation-filters:sRGB"
       id="filter59"
       x="-0.38399214"
       y="-0.48507693"
       width="1.7679843"
       height="1.9701539"><feGaussianBlur
         inkscape:collect="always"
         stdDeviation="11.413203"
         id="feGaussianBlur59" /></filter><filter
       inkscape:collect="always"
       style="color-interpolation-filters:sRGB"
       id="filter60"
       x="-0.30720548"
       y="-0.27927325"
       width="1.614411"
       height="1.5585465"><feGaussianBlur
         inkscape:collect="always"
         stdDeviation="11.413203"
         id="feGaussianBlur60" /></filter></defs><rect
     style="display:inline;fill:#000000;fill-opacity:1;stroke:none;stroke-width:5.5;stroke-linecap:square;stroke-miterlimit:8;paint-order:stroke markers fill"
     id="rect18-6-3"
     width="512"
     height="512"
     x="0"
     y="0"
     inkscape:label="bggg"
     rx="97.580734"
     ry="97.580734" /><g
     inkscape:label="SelectIconPlay"
     inkscape:groupmode="layer"
     id="layer1"
     style="display:none"><g
       id="g4"
       transform="matrix(3.780695,0,0,3.780695,-444.63864,15.739094)"
       inkscape:export-filename="lock.png"
       inkscape:export-xdpi="96"
       inkscape:export-ydpi="96">
	
	
	
	<g
   id="g2"
   style="opacity:0.719165;mix-blend-mode:normal;filter:url(#filter18)"><path
     fill="#231f20"
     d="m 8,56 v 4 c 0,2.211 1.789,4 4,4 h 40 c 2.211,0 4,-1.789 4,-4 v -4 z"
     id="path1"
     style="fill:#ffffff;fill-opacity:1" /><path
     fill="#231f20"
     d="M 56,54 V 34 H 8 V 54 Z M 32,36 c 2.762,0 5,2.238 5,5 0,1.631 -0.791,3.066 -2,3.979 V 49 c 0,1.657 -1.343,3 -3,3 -1.657,0 -3,-1.343 -3,-3 V 44.979 C 27.791,44.067 27,42.631 27,41 c 0,-2.762 2.238,-5 5,-5 z"
     id="path2"
     style="fill:#ffffff;fill-opacity:1" /><path
     fill="#231f20"
     d="M 31,43.816 V 49 c 0,0.553 0.447,1 1,1 0.553,0 1,-0.447 1,-1 v -5.184 c 1.163,-0.413 2,-1.512 2,-2.816 0,-1.657 -1.343,-3 -3,-3 -1.657,0 -3,1.343 -3,3 0,1.305 0.837,2.403 2,2.816 z"
     id="path3"
     style="fill:#ffffff;fill-opacity:1" /><path
     fill="#231f20"
     d="m 56,32 v -4 c 0,-2.211 -1.789,-4 -4,-4 H 46 V 14 C 46,6.268 39.732,0 32,0 24.268,0 18,6.268 18,14 v 10 h -6 c -2.211,0 -4,1.789 -4,4 v 4 z M 38,24 H 26 V 14 c 0,-3.313 2.687,-6 6,-6 3.313,0 6,2.687 6,6 z M 20,14 C 20,7.373 25.373,2 32,2 38.627,2 44,7.373 44,14 V 24 H 40 V 14 C 40,9.582 36.418,6 32,6 27.582,6 24,9.582 24,14 v 10 h -4 z"
     id="path4"
     style="fill:#ffffff;fill-opacity:1" /></g>
<g
   id="g8"><path
     fill="#231f20"
     d="m 8,56 v 4 c 0,2.211 1.789,4 4,4 h 40 c 2.211,0 4,-1.789 4,-4 v -4 z"
     id="path5"
     style="fill:#ffffff;fill-opacity:1" /><path
     fill="#231f20"
     d="M 56,54 V 34 H 8 V 54 Z M 32,36 c 2.762,0 5,2.238 5,5 0,1.631 -0.791,3.066 -2,3.979 V 49 c 0,1.657 -1.343,3 -3,3 -1.657,0 -3,-1.343 -3,-3 V 44.979 C 27.791,44.067 27,42.631 27,41 c 0,-2.762 2.238,-5 5,-5 z"
     id="path6"
     style="fill:#ffffff;fill-opacity:1" /><path
     fill="#231f20"
     d="M 31,43.816 V 49 c 0,0.553 0.447,1 1,1 0.553,0 1,-0.447 1,-1 v -5.184 c 1.163,-0.413 2,-1.512 2,-2.816 0,-1.657 -1.343,-3 -3,-3 -1.657,0 -3,1.343 -3,3 0,1.305 0.837,2.403 2,2.816 z"
     id="path7"
     style="fill:#ffffff;fill-opacity:1" /><path
     fill="#231f20"
     d="m 56,32 v -4 c 0,-2.211 -1.789,-4 -4,-4 H 46 V 14 C 46,6.268 39.732,0 32,0 24.268,0 18,6.268 18,14 v 10 h -6 c -2.211,0 -4,1.789 -4,4 v 4 z M 38,24 H 26 V 14 c 0,-3.313 2.687,-6 6,-6 3.313,0 6,2.687 6,6 z M 20,14 C 20,7.373 25.373,2 32,2 38.627,2 44,7.373 44,14 V 24 H 40 V 14 C 40,9.582 36.418,6 32,6 27.582,6 24,9.582 24,14 v 10 h -4 z"
     id="path8"
     style="fill:#ffffff;fill-opacity:1" /></g></g><rect
       style="fill:url(#linearGradient16);fill-opacity:1;stroke:none;stroke-width:5.5;stroke-linecap:square;stroke-miterlimit:8;paint-order:stroke markers fill;filter:url(#filter8-0)"
       id="rect8-5"
       width="128"
       height="128"
       x="8.5662718"
       y="335.63345"
       transform="matrix(0,-1,2.8429858,0,-548.85495,343.8046)" /><rect
       style="opacity:1;fill:url(#linearGradient9);fill-opacity:1;stroke:none;stroke-width:5.5;stroke-linecap:square;stroke-miterlimit:8;paint-order:stroke markers fill;filter:url(#filter8)"
       id="rect8"
       width="128"
       height="128"
       x="8.5662718"
       y="335.63345"
       transform="matrix(0,-1,2.4839129,0,-895.62511,472.19972)" /><g
       id="g1"
       transform="rotate(-3.2229927,-2681.1752,539.08382)"><g
         id="layer3"
         inkscape:label="cube_ico"><rect
           style="display:inline;mix-blend-mode:normal;fill:#ffffff;fill-opacity:1;stroke-width:1.16667;stroke-linecap:round;stroke-miterlimit:0.5;stroke-dashoffset:6.77484;paint-order:fill markers stroke;filter:url(#filter2)"
           id="rect1-1"
           width="112"
           height="112"
           x="290.08481"
           y="-26.583019"
           ry="12.083332"
           rx="12.083332"
           inkscape:export-filename="player.png"
           inkscape:export-xdpi="96"
           inkscape:export-ydpi="96"
           transform="rotate(35.660543,-148.18455,37.387609)" /><rect
           style="display:inline;fill:#ffffff;fill-opacity:1;stroke-width:1.16667;stroke-linecap:round;stroke-miterlimit:0.5;stroke-dashoffset:6.77484;paint-order:fill markers stroke"
           id="rect2"
           width="112"
           height="112"
           x="339.66791"
           y="52.795147"
           ry="12.083332"
           rx="12.083332"
           inkscape:export-filename="player.png"
           inkscape:export-xdpi="96"
           inkscape:export-ydpi="96"
           transform="rotate(35.660543)" /></g></g></g><g
     inkscape:groupmode="layer"
     id="layer2"
     inkscape:label="SelectIconEditor"
     style="display:inline"><rect
       style="display:inline;fill:url(#linearGradient530);fill-opacity:1;stroke:none;stroke-width:5.5;stroke-linecap:square;stroke-miterlimit:8;paint-order:stroke markers fill;filter:url(#filter8-9)"
       id="rect8-9"
       width="128"
       height="128"
       x="8.5662718"
       y="335.63345"
       transform="rotate(-90,132.95336,220.68398)" /><rect
       style="display:inline;fill:url(#linearGradient532);fill-opacity:1;stroke:none;stroke-width:5.5;stroke-linecap:square;stroke-miterlimit:8;paint-order:stroke markers fill;filter:url(#filter8-9-5-2)"
       id="rect8-9-9-8"
       width="128"
       height="128"
       x="8.5662718"
       y="335.63345"
       transform="rotate(-90,4.953354,348.68397)" /><rect
       style="display:inline;fill:url(#linearGradient533);fill-opacity:1;stroke:none;stroke-width:5.5;stroke-linecap:square;stroke-miterlimit:8;paint-order:stroke markers fill;filter:url(#filter8-9-5-2-0)"
       id="rect8-9-9-8-8"
       width="128"
       height="128"
       x="8.5662718"
       y="335.63345"
       transform="rotate(180,220.75996,232.31673)" /><rect
       style="display:inline;fill:url(#linearGradient534);fill-opacity:1;stroke:none;stroke-width:5.5;stroke-linecap:square;stroke-miterlimit:8;paint-order:stroke markers fill;filter:url(#filter8-9-5-2-0-8)"
       id="rect8-9-9-8-8-1"
       width="128"
       height="128"
       x="8.5662718"
       y="335.63345"
       transform="rotate(180,128.23455,424.41323)" /><rect
       style="display:inline;opacity:1;fill:none;fill-opacity:1;stroke:#ffffff;stroke-width:3.02074;stroke-linecap:square;stroke-miterlimit:8;stroke-dasharray:3.02074, 9.06221;stroke-dashoffset:0;stroke-opacity:1;paint-order:stroke markers fill;filter:url(#filter535)"
       id="rect534"
       width="124.97926"
       height="124.97926"
       x="249.41321"
       y="218.58142" /><rect
       style="display:inline;opacity:1;fill:none;fill-opacity:1;stroke:#ffffff;stroke-width:3.02074;stroke-linecap:square;stroke-miterlimit:8;stroke-dasharray:3.02074, 9.06221;stroke-dashoffset:0;stroke-opacity:1;paint-order:stroke markers fill"
       id="rect530"
       width="124.97926"
       height="124.97926"
       x="249.41321"
       y="218.58142" /><g
       style="fill:none"
       id="g530"
       transform="matrix(33.333333,0,0,33.333333,-2.679621,-170.61021)"><path
         d="m 12.429585,17.11987 -0.735115,-0.735115 -0.224493,0.224493 c -0.229814,0.229814 -0.344728,0.34472 -0.468234,0.317599 -0.123506,-0.02714 -0.179684,-0.179621 -0.292043,-0.484601 l -0.374735,-1.017119 c -0.224144,-0.6084 -0.3362151,-0.912597 -0.179432,-1.06938 0.156783,-0.156783 0.46098,-0.04471 1.06938,0.179434 l 1.017118,0.374733 c 0.304981,0.112359 0.457462,0.168537 0.484602,0.292043 0.02712,0.123506 -0.08779,0.23842 -0.317599,0.468234 l -0.224493,0.224493 0.735115,0.735115 c 0.07612,0.0761 0.114179,0.11416 0.131762,0.156625 0.02344,0.05661 0.02344,0.120208 0,0.176821 -0.01758,0.04245 -0.05564,0.08051 -0.131762,0.156625 -0.07612,0.07612 -0.114179,0.114179 -0.156625,0.131762 -0.05661,0.02344 -0.120208,0.02344 -0.176821,0 -0.04246,-0.01758 -0.08052,-0.05564 -0.156625,-0.131762 z"
         fill="#1c274c"
         id="path1-7"
         style="display:inline;opacity:0.85389;fill:#ffffff;fill-opacity:1;stroke-width:0.186658;filter:url(#filter534)" /><path
         d="m 12.429585,17.11987 -0.735115,-0.735115 -0.224493,0.224493 c -0.229814,0.229814 -0.344728,0.34472 -0.468234,0.317599 -0.123506,-0.02714 -0.179684,-0.179621 -0.292043,-0.484601 l -0.374735,-1.017119 c -0.224144,-0.6084 -0.3362151,-0.912597 -0.179432,-1.06938 0.156783,-0.156783 0.46098,-0.04471 1.06938,0.179434 l 1.017118,0.374733 c 0.304981,0.112359 0.457462,0.168537 0.484602,0.292043 0.02712,0.123506 -0.08779,0.23842 -0.317599,0.468234 l -0.224493,0.224493 0.735115,0.735115 c 0.07612,0.0761 0.114179,0.11416 0.131762,0.156625 0.02344,0.05661 0.02344,0.120208 0,0.176821 -0.01758,0.04245 -0.05564,0.08051 -0.131762,0.156625 -0.07612,0.07612 -0.114179,0.114179 -0.156625,0.131762 -0.05661,0.02344 -0.120208,0.02344 -0.176821,0 -0.04246,-0.01758 -0.08052,-0.05564 -0.156625,-0.131762 z"
         fill="#1c274c"
         id="path534"
         style="display:inline;fill:#ffffff;fill-opacity:1;stroke-width:0.186658" /></g></g><g
     inkscape:groupmode="layer"
     id="layer4"
     inkscape:label="selectionIconPlayerEdit"
     style="display:none"><g
       id="g5"
       transform="matrix(1.1061115,-0.79963292,0.79963292,1.1061115,-538.3026,-0.68883372)"
       style="display:inline"><g
         id="g3"
         inkscape:label="cube_ico"
         style="display:inline"
         transform="translate(290.32392,316.84077)"><path
           d="m 107.55636,146.28694 c -0.26281,-3.42995 -1.93325,-6.72707 -4.95966,-8.89861 L 31.233558,86.183244 C 25.794652,82.280671 18.274242,83.517531 14.371669,88.956436 l -51.205085,71.363134 c -1.730421,2.41224 -2.396767,5.23071 -2.187307,7.96444 z"
           style="display:inline;fill:url(#linearGradient21);fill-opacity:1;stroke-width:1.16667;stroke-linecap:round;stroke-miterlimit:0.5;stroke-dashoffset:6.77484;paint-order:fill markers stroke;filter:url(#filter21)"
           id="path13"
           inkscape:label="up" /><path
           d="m 107.55636,146.28694 -146.577083,21.99707 c 0.262806,3.42995 1.933247,6.72707 4.95966,8.89861 l 71.363139,51.20509 c 5.438905,3.90257 12.959315,2.66571 16.861889,-2.77319 l 51.205925,-71.3643 c 1.73103,-2.41249 2.39596,-5.22911 2.18647,-7.96328 z"
           style="display:inline;fill:url(#linearGradient22);fill-opacity:1;stroke-width:1.16667;stroke-linecap:round;stroke-miterlimit:0.5;stroke-dashoffset:6.77484;paint-order:fill markers stroke;filter:url(#filter20)"
           id="path14"
           inkscape:label="donw" /><path
           d="m 107.55636,146.28694 c -0.26281,-3.42995 -1.93325,-6.72707 -4.95966,-8.89861 L 31.233558,86.183244 C 25.794652,82.280671 18.274242,83.517531 14.371669,88.956436 l -51.205085,71.363134 c -1.730421,2.41224 -2.396767,5.23071 -2.187307,7.96444 z"
           style="display:inline;fill:url(#linearGradient17);fill-opacity:1;stroke-width:1.16667;stroke-linecap:round;stroke-miterlimit:0.5;stroke-dashoffset:6.77484;paint-order:fill markers stroke"
           id="path19"
           inkscape:label="up" /><path
           d="m 107.55636,146.28694 -146.577083,21.99707 c 0.262806,3.42995 1.933247,6.72707 4.95966,8.89861 l 71.363139,51.20509 c 5.438905,3.90257 12.959315,2.66571 16.861889,-2.77319 l 51.205925,-71.3643 c 1.73103,-2.41249 2.39596,-5.22911 2.18647,-7.96328 z"
           style="display:inline;fill:url(#linearGradient19);fill-opacity:1;stroke-width:1.16667;stroke-linecap:round;stroke-miterlimit:0.5;stroke-dashoffset:6.77484;paint-order:fill markers stroke"
           id="path20"
           inkscape:label="donw" /></g></g><g
       id="g23"
       inkscape:label="pencil"
       transform="translate(-284.96403,49.282692)"><path
         d="m 584.39062,195.28906 c -11.17897,0.71889 -21.3234,4.97545 -27.08007,20.14453 -0.6548,1.73035 -2.23018,2.78125 -4.06641,2.78125 -3.09568,0 -12.66665,-7.709 -15.39453,-9.57031 0.003,22.94589 10.57099,43.11328 35.66797,43.11328 21.13752,0 35.66601,-12.19667 35.66601,-33.49023 0,-0.86657 -0.18037,-1.69313 -0.26953,-2.54297 z"
         style="fill:url(#linearGradient24);fill-opacity:1;stroke-width:0.278639;filter:url(#filter59)"
         id="path23"
         inkscape:label="head" /><path
         d="m 665.4375,109.09375 c -4.22417,0 -8.18269,1.87005 -11.20313,4.58398 -56.95651,50.87941 -62.88281,52.07592 -62.88281,67.05274 0,3.81735 0.9047,7.45626 2.43164,10.7832 l 17.78321,14.81641 c 2.00898,0.50155 4.07882,0.8457 6.23828,0.8457 17.30624,0 27.3378,-12.67099 58.83789,-71.46094 2.05636,-3.99846 3.87305,-8.31722 3.87304,-12.81445 0,-8.05544 -7.2456,-13.80664 -15.07812,-13.80664 z"
         style="fill:#ffffff;stroke-width:0.278639;filter:url(#filter60)"
         id="path22"
         inkscape:label="body" /><path
         d="m 584.39062,195.28906 c -11.17897,0.71889 -21.3234,4.97545 -27.08007,20.14453 -0.6548,1.73035 -2.23018,2.78125 -4.06641,2.78125 -3.09568,0 -12.66665,-7.709 -15.39453,-9.57031 0.003,22.94589 10.57099,43.11328 35.66797,43.11328 21.13752,0 35.66601,-12.19667 35.66601,-33.49023 0,-0.86657 -0.18037,-1.69313 -0.26953,-2.54297 z"
         style="fill:url(#linearGradient24);fill-opacity:1;stroke:#ffffff;stroke-width:5;stroke-linecap:round;stroke-linejoin:round;stroke-dasharray:none;stroke-opacity:1"
         id="path58"
         inkscape:label="head" /><path
         d="m 665.4375,109.09375 c -4.22417,0 -8.18269,1.87005 -11.20313,4.58398 -56.95651,50.87941 -62.88281,52.07592 -62.88281,67.05274 0,3.81735 0.9047,7.45626 2.43164,10.7832 l 17.78321,14.81641 c 2.00898,0.50155 4.07882,0.8457 6.23828,0.8457 17.30624,0 27.3378,-12.67099 58.83789,-71.46094 2.05636,-3.99846 3.87305,-8.31722 3.87304,-12.81445 0,-8.05544 -7.2456,-13.80664 -15.07812,-13.80664 z"
         style="fill:#ffffff;stroke-width:0.278639"
         id="path59"
         inkscape:label="body" /></g></g><rect
     style="display:inline;fill:none;fill-opacity:1;stroke:#ffffff;stroke-width:9.80843;stroke-linecap:square;stroke-miterlimit:8;stroke-dasharray:none;stroke-opacity:1;paint-order:stroke markers fill"
     id="rect1"
     width="502.19156"
     height="502.19156"
     x="4.9042144"
     y="4.9042144"
     inkscape:label="bggg_borde"
     rx="95.711372"
     ry="95.711372" /></svg>
