<?xml version="1.0" encoding="UTF-8" standalone="no"?>
<!-- Uploaded to: SVG Repo, www.svgrepo.com, Generator: SVG Repo Mixer Tools -->

<svg
   fill="#000000"
   width="800px"
   height="800px"
   viewBox="0 -13.85 122.88 122.88"
   version="1.1"
   id="Layer_1"
   style="enable-background:new 0 0 122.88 95.17"
   xml:space="preserve"
   sodipodi:docname="rpc_icons.svg"
   inkscape:export-filename="..\Desktop\openneonix\assets\images\rpc\keyboard_rpc.png"
   inkscape:export-xdpi="122.88"
   inkscape:export-ydpi="122.88"
   inkscape:version="1.3.2 (091e20e, 2023-11-25, custom)"
   xmlns:inkscape="http://www.inkscape.org/namespaces/inkscape"
   xmlns:sodipodi="http://sodipodi.sourceforge.net/DTD/sodipodi-0.dtd"
   xmlns="http://www.w3.org/2000/svg"
   xmlns:svg="http://www.w3.org/2000/svg"><defs
   id="defs1"><filter
     inkscape:collect="always"
     style="color-interpolation-filters:sRGB"
     id="filter2"
     x="-0.19554821"
     y="-0.25250958"
     width="1.3910964"
     height="1.5050192"><feGaussianBlur
       inkscape:collect="always"
       stdDeviation="7.5091021"
       id="feGaussianBlur2" /></filter><filter
     inkscape:collect="always"
     style="color-interpolation-filters:sRGB"
     id="filter3"
     x="-0.16044799"
     y="-0.28819694"
     width="1.320896"
     height="1.5763939"><feGaussianBlur
       inkscape:collect="always"
       stdDeviation="2.7795047"
       id="feGaussianBlur3" /></filter><filter
     inkscape:collect="always"
     style="color-interpolation-filters:sRGB"
     id="filter5"
     x="-0.10546702"
     y="-0.12861428"
     width="1.210934"
     height="1.2572286"><feGaussianBlur
       inkscape:collect="always"
       stdDeviation="4.1584856"
       id="feGaussianBlur5" /></filter><filter
     inkscape:collect="always"
     style="color-interpolation-filters:sRGB"
     id="filter6"
     x="-0.15149423"
     y="-0.19203416"
     width="1.3029885"
     height="1.3840683"><feGaussianBlur
       inkscape:collect="always"
       stdDeviation="2.5552379"
       id="feGaussianBlur6" /></filter><filter
     inkscape:collect="always"
     style="color-interpolation-filters:sRGB"
     id="filter7"
     x="-0.27981793"
     y="-0.27786875"
     width="1.5596359"
     height="1.5557375"><feGaussianBlur
       inkscape:collect="always"
       stdDeviation="4.4336499"
       id="feGaussianBlur7" /></filter></defs><sodipodi:namedview
   id="namedview1"
   pagecolor="#505050"
   bordercolor="#eeeeee"
   borderopacity="1"
   inkscape:showpageshadow="0"
   inkscape:pageopacity="0"
   inkscape:pagecheckerboard="0"
   inkscape:deskcolor="#505050"
   inkscape:zoom="0.70268736"
   inkscape:cx="461.79854"
   inkscape:cy="376.41206"
   inkscape:window-width="1920"
   inkscape:window-height="991"
   inkscape:window-x="1791"
   inkscape:window-y="-9"
   inkscape:window-maximized="1"
   inkscape:current-layer="g5" />



<g
   inkscape:groupmode="layer"
   id="layer1"
   inkscape:label="Layer 1"><g
     id="g1"
     style="display:none"
     inkscape:label="controller">

<path
   d="m 93.065104,28.191499 h 0.198675 c 0.573952,0 1.081679,0.264901 1.420164,0.669611 8.395887,8.638714 12.803547,27.395172 11.824887,39.948533 -0.27226,3.480503 -0.95659,6.541581 -2.08242,8.852106 -1.28035,2.634292 -3.1273,4.363507 -5.599711,4.819725 -3.149378,0.581311 -7.0861,-1.081679 -11.817525,-5.901404 -0.610744,-0.618102 -1.243563,-1.243563 -1.891098,-1.88374 -2.207508,-2.170716 -4.53275,-4.459166 -6.497432,-7.21855 H 44.249748 c -1.97204,2.781459 -4.297282,5.069909 -6.512148,7.240625 -0.640177,0.632819 -1.272996,1.250921 -1.876381,1.861665 -4.731425,4.819725 -8.668148,6.482715 -11.817525,5.901404 -2.472409,-0.456218 -4.326716,-2.185433 -5.599712,-4.819725 -1.125829,-2.317883 -1.810156,-5.371603 -2.082416,-8.852106 -0.978661,-12.612228 3.473146,-31.479062 11.935259,-40.066267 0.36056,-0.367918 0.831495,-0.551877 1.309788,-0.551877 v -0.0074 h 0.206034 c 1.037529,-1.427522 2.325242,-2.575426 3.774839,-3.443712 2.200149,-1.317147 4.760858,-1.972041 7.30685,-1.972041 2.553351,0 5.11406,0.654894 7.306851,1.972041 1.442239,0.860928 2.729951,2.008832 3.752763,3.436353 h 5.820463 c -0.44886,-10.978672 2.604859,-13.738056 7.115533,-14.047107 1.633556,-0.110376 3.36277,0.1766 5.172927,0.478293 3.421637,0.566594 7.203833,1.192054 9.889634,-1.493747 0.72112,-0.721119 1.88374,-0.721119 2.60486,0 0.721119,0.721119 0.721119,1.88374 0,2.604859 -4.025023,4.017664 -8.785881,3.23032 -13.090522,2.516559 -1.589405,-0.264901 -3.105227,-0.515085 -4.334073,-0.434143 -2.435617,0.161884 -4.054456,2.192791 -3.671821,10.390003 h 9.470208 c 1.03017,-1.427522 2.325242,-2.582784 3.76748,-3.443712 2.200149,-1.317146 4.760858,-1.97204 7.299492,-1.97204 2.538634,0 5.099343,0.662252 7.299493,1.97204 1.442238,0.860928 2.737309,2.008832 3.76748,3.443712 z m -9.970577,22.60488 c 1.353938,1.353938 1.353938,3.539371 0,4.893309 -1.353938,1.353938 -3.539371,1.353938 -4.893309,0 -1.353938,-1.353938 -1.353938,-3.539371 0,-4.893309 1.34658,-1.34658 3.539371,-1.34658 4.893309,0 z m 7.696844,-6.902141 c 1.353938,1.353938 1.353938,3.539371 0,4.893309 -1.353938,1.353938 -3.539371,1.353938 -4.893309,0 -1.353938,-1.353938 -1.353938,-3.539371 0,-4.893309 1.353938,-1.353938 3.539371,-1.353938 4.893309,0 z m -15.401046,0 c 1.353938,1.353938 1.353938,3.539371 0,4.893309 -1.353938,1.353938 -3.539371,1.353938 -4.893309,0 -1.353938,-1.353938 -1.353938,-3.539371 0,-4.893309 1.353938,-1.353938 3.546729,-1.353938 4.893309,0 z m 7.704202,-6.166305 c 1.353938,1.353938 1.353938,3.539371 0,4.893309 -1.353938,1.353938 -3.539371,1.353938 -4.893309,0 -1.353938,-1.353938 -1.353938,-3.539371 0,-4.893309 1.34658,-1.34658 3.539371,-1.34658 4.893309,0 z m -47.108216,0.618102 h 6.011779 v 6.129513 h 6.129514 v 6.01178 H 41.99809 v 6.129513 h -6.011779 v -6.129513 h -6.129514 v -6.01178 h 6.129514 z m 56.490124,-6.467998 h -0.397351 v -0.0074 c -0.625461,0 -1.236205,-0.31641 -1.574689,-0.89772 -0.787345,-1.309788 -1.861665,-2.339958 -3.09787,-3.075794 -1.61148,-0.963945 -3.502579,-1.442239 -5.415752,-1.442239 -1.905815,0 -3.804272,0.478294 -5.415752,1.442239 -1.199413,0.713761 -2.2443,1.707139 -3.024286,2.95806 -0.301693,0.603386 -0.927153,1.015454 -1.648273,1.015454 H 50.975289 v -0.0074 c -0.625461,0 -1.236205,-0.316409 -1.574689,-0.897719 -0.779986,-1.309788 -1.854307,-2.3326 -3.083153,-3.068436 -1.618839,-0.971304 -3.517296,-1.456955 -5.423111,-1.456955 -1.905815,0 -3.804271,0.485651 -5.42311,1.456955 -1.199413,0.721119 -2.251658,1.707139 -3.031645,2.95806 -0.301692,0.603386 -0.927153,1.015454 -1.648272,1.015454 h -0.397351 c -7.40251,8.108912 -11.25829,25.128797 -10.36057,36.666704 0.235467,3.031644 0.802061,5.643862 1.721856,7.527602 0.765269,1.56733 1.743931,2.582784 2.950702,2.803535 1.964682,0.360559 4.760858,-1.022812 8.535697,-4.863876 0.62546,-0.632819 1.265637,-1.265638 1.920531,-1.905815 2.266375,-2.222224 4.657842,-4.576899 6.497432,-7.328926 0.309051,-0.58131 0.919795,-0.971303 1.626197,-0.971303 h 36.306145 v 0.0074 c 0.596027,0 1.177337,0.286976 1.530539,0.824136 1.869023,2.82561 4.289923,5.209719 6.578373,7.461377 0.662252,0.647535 1.309788,1.287713 1.935248,1.92789 3.76748,3.841063 6.571015,5.224435 8.535697,4.863875 1.206771,-0.22075 2.192795,-1.236204 2.950705,-2.803534 0.91979,-1.891099 1.48639,-4.495958 1.72185,-7.527602 C 103.74208,56.999435 99.886303,39.97955 92.476435,31.877996 Z"
   id="path1"
   style="fill:#ffffff;fill-opacity:1;stroke-width:0.735836" />

<path
   d="m 93.675755,27.81712 h 0.202511 c 0.585033,0 1.102562,0.270016 1.447582,0.682539 8.557982,8.805497 13.050732,27.924076 12.053182,40.719798 -0.27751,3.547699 -0.97506,6.667876 -2.12262,9.023009 -1.30507,2.685151 -3.18768,4.447751 -5.707822,4.912777 -3.210182,0.592535 -7.222909,-1.102563 -12.045681,-6.01534 -0.622535,-0.630035 -1.267572,-1.267571 -1.927608,-1.920108 -2.250128,-2.212624 -4.620262,-4.545256 -6.622875,-7.357914 H 43.917947 c -2.010114,2.835159 -4.380247,5.167791 -6.637875,7.380415 -0.652537,0.645037 -1.297573,1.275072 -1.912607,1.897607 -4.822773,4.912777 -8.835499,6.607875 -12.04568,6.01534 -2.520143,-0.465026 -4.41025,-2.227626 -5.707822,-4.912777 -1.147566,-2.362633 -1.845104,-5.47531 -2.122621,-9.023009 C 14.493787,56.363732 19.031543,37.132645 27.657029,28.379651 28.02455,28.00463 28.504577,27.81712 28.992104,27.81712 v -0.0075 h 0.210013 c 1.057559,-1.455082 2.370133,-2.625148 3.847717,-3.510197 2.242626,-1.342577 4.852773,-2.010115 7.44792,-2.010115 2.602647,0 5.212794,0.667538 7.44792,2.010115 1.470084,0.877549 2.782657,2.047614 3.825216,3.502696 h 5.932835 c -0.457526,-11.190632 2.655151,-14.00329 7.25291,-14.318307 1.665094,-0.112507 3.427693,0.18001 5.272797,0.487527 3.487697,0.577533 7.342914,1.215068 10.080568,-1.522586 0.735043,-0.735041 1.920108,-0.735041 2.655152,0 0.735041,0.735042 0.735041,1.920108 0,2.65515 -4.102733,4.095231 -8.955506,3.292686 -13.343255,2.565145 -1.620091,-0.270015 -3.165178,-0.525029 -4.417748,-0.442525 -2.482641,0.16501 -4.132734,2.235126 -3.742711,10.590598 h 9.653044 c 1.050059,-1.455083 2.370134,-2.632649 3.840217,-3.510199 2.242626,-1.342575 4.852773,-2.010113 7.44042,-2.010113 2.587646,0 5.197793,0.675038 7.44042,2.010113 1.470082,0.87755 2.790156,2.047616 3.840216,3.510198 z M 83.512681,50.858421 c 1.380079,1.380077 1.380079,3.607704 0,4.987781 -1.380077,1.380078 -3.607703,1.380078 -4.987781,0 -1.380077,-1.380077 -1.380077,-3.607704 0,-4.987781 1.372578,-1.372578 3.607704,-1.372578 4.987781,0 z m 7.845444,-7.035398 c 1.380077,1.380078 1.380077,3.607704 0,4.987782 -1.380078,1.380077 -3.607704,1.380077 -4.987782,0 -1.380078,-1.380078 -1.380078,-3.607704 0,-4.987782 1.380078,-1.380077 3.607704,-1.380077 4.987782,0 z m -15.698386,0 c 1.380077,1.380078 1.380077,3.607704 0,4.987782 -1.380078,1.380077 -3.607704,1.380077 -4.987782,0 -1.380078,-1.380078 -1.380078,-3.607704 0,-4.987782 1.380078,-1.380077 3.615204,-1.380077 4.987782,0 z m 7.852942,-6.285354 c 1.380079,1.380077 1.380079,3.607704 0,4.987781 -1.380077,1.380079 -3.607703,1.380079 -4.987781,0 -1.380077,-1.380077 -1.380077,-3.607704 0,-4.987781 1.372578,-1.372578 3.607704,-1.372578 4.987781,0 z m -48.017709,0.630036 h 6.127845 v 6.247852 h 6.247853 v 6.127846 h -6.247853 v 6.247852 h -6.127845 v -6.247852 h -6.247854 v -6.127846 h 6.247854 z m 57.58075,-6.592873 h -0.405023 v -0.0075 c -0.637537,0 -1.260072,-0.322519 -1.605091,-0.915052 -0.802545,-1.335076 -1.897607,-2.385135 -3.157678,-3.135177 -1.642593,-0.982555 -3.570202,-1.470084 -5.520312,-1.470084 -1.94261,0 -3.877719,0.487529 -5.520311,1.470084 -1.22257,0.727541 -2.287629,1.740098 -3.082674,3.015169 -0.307518,0.615036 -0.945053,1.03506 -1.680096,1.03506 H 50.773334 v -0.0075 c -0.637536,0 -1.260072,-0.322518 -1.60509,-0.915051 -0.795045,-1.335075 -1.890108,-2.377634 -3.142679,-3.127676 -1.650093,-0.990057 -3.585201,-1.485084 -5.527811,-1.485084 -1.94261,0 -3.877719,0.495027 -5.527811,1.485084 -1.22257,0.735041 -2.295131,1.740098 -3.090176,3.01517 -0.307517,0.615034 -0.945053,1.035058 -1.680094,1.035058 H 29.79465 c -7.545426,8.265466 -11.475648,25.613945 -10.560596,37.374609 0.240013,3.090174 0.817546,5.752826 1.755099,7.672934 0.780043,1.597589 1.7776,2.632648 3.00767,2.857661 2.002612,0.367521 4.852773,-1.042559 8.700491,-4.95778 0.637535,-0.645037 1.290072,-1.290074 1.95761,-1.94261 2.31013,-2.265127 4.747768,-4.665262 6.622874,-7.470422 0.315018,-0.592533 0.937553,-0.990055 1.657593,-0.990055 H 79.94248 v 0.0075 c 0.607535,0 1.200068,0.292517 1.560089,0.840048 1.905107,2.880162 4.372746,5.3103 6.705378,7.605429 0.675037,0.660037 1.335075,1.312575 1.972611,1.965111 3.840216,3.915221 6.697878,5.3253 8.700487,4.957779 1.230075,-0.225012 2.235135,-1.26007 3.007675,-2.85766 0.93755,-1.927609 1.51509,-4.582759 1.7551,-7.672933 C 104.55886,57.181279 100.62865,39.8328 93.075722,31.574832 Z"
   id="path2"
   style="mix-blend-mode:normal;fill:#ffffff;fill-opacity:1;stroke-width:0.750043;filter:url(#filter2)" /></g><g
     style="display:none;fill:#000000"
     id="g2"
     transform="matrix(2.1942857,0,0,2.1942857,0.08533076,-16.019503)"
     inkscape:label="keybaord"><path
       d="m 11.773062,42.541015 h 32.3908 c 3.047087,0 4.585331,-1.523544 4.585331,-4.526753 V 23.935757 c 0,-3.01791 -1.538244,-4.541454 -4.585331,-4.541454 h -32.3908 c -3.0617866,0 -4.6000304,1.523544 -4.6000304,4.541454 v 14.078505 c 0,3.017835 1.5382438,4.526753 4.6000304,4.526753 z m 0.04395,-2.358631 c -1.464966,0 -2.2853519,-0.776435 -2.2853519,-2.299978 V 24.067612 c 0,-1.523617 0.8203859,-2.314752 2.2853519,-2.314752 h 32.303044 c 1.45034,0 2.270579,0.791135 2.270579,2.314752 v 13.814794 c 0,1.523543 -0.820239,2.299978 -2.270579,2.299978 z m 29.73928,-12.803973 h 1.040221 c 0.424819,0 0.61503,-0.190433 0.61503,-0.615253 v -1.040146 c 0,-0.410194 -0.190211,-0.615253 -0.61503,-0.615253 h -1.040221 c -0.424819,0 -0.615327,0.205059 -0.615327,0.615253 v 1.040146 c 0,0.42482 0.190508,0.615253 0.615327,0.615253 z m -4.717335,0 h 1.040146 c 0.424894,0 0.630102,-0.190433 0.630102,-0.615253 v -1.040146 c 0,-0.410194 -0.205208,-0.615253 -0.630102,-0.615253 h -1.040146 c -0.410194,0 -0.615402,0.205059 -0.615402,0.615253 v 1.040146 c 0,0.42482 0.205208,0.615253 0.615402,0.615253 z m -4.717261,0 h 1.054846 c 0.410045,0 0.615328,-0.190433 0.615328,-0.615253 v -1.040146 c 0,-0.410194 -0.205283,-0.615253 -0.615328,-0.615253 h -1.054846 c -0.410193,0 -0.615253,0.205059 -0.615253,0.615253 v 1.040146 c 0,0.42482 0.20506,0.615253 0.615253,0.615253 z m -4.702561,0 h 1.040147 c 0.424819,0 0.615252,-0.190433 0.615252,-0.615253 v -1.040146 c 0,-0.410194 -0.190433,-0.615253 -0.615252,-0.615253 h -1.040147 c -0.424893,0 -0.615327,0.205059 -0.615327,0.615253 v 1.040146 c 0,0.42482 0.190434,0.615253 0.615327,0.615253 z m -4.717261,0 h 1.054772 c 0.410194,0 0.615328,-0.190433 0.615328,-0.615253 v -1.040146 c 0,-0.410194 -0.205134,-0.615253 -0.615328,-0.615253 h -1.054772 c -0.410193,0 -0.615327,0.205059 -0.615327,0.615253 v 1.040146 c 0,0.42482 0.205134,0.615253 0.615327,0.615253 z m -4.717261,0 h 1.054772 c 0.410194,0 0.615328,-0.190433 0.615328,-0.615253 v -1.040146 c 0,-0.410194 -0.205134,-0.615253 -0.615328,-0.615253 h -1.054772 c -0.410193,0 -0.615327,0.205059 -0.615327,0.615253 v 1.040146 c 0,0.42482 0.205134,0.615253 0.615327,0.615253 z m -4.702635,0 h 1.040146 c 0.424894,0 0.615328,-0.190433 0.615328,-0.615253 v -1.040146 c 0,-0.410194 -0.190434,-0.615253 -0.615328,-0.615253 h -1.040146 c -0.424819,0 -0.615253,0.205059 -0.615253,0.615253 v 1.040146 c 0,0.42482 0.190434,0.615253 0.615253,0.615253 z m 9.419896,4.717261 h 1.054772 c 0.410194,0 0.615328,-0.205059 0.615328,-0.615253 v -1.040146 c 0,-0.424819 -0.205134,-0.615327 -0.615328,-0.615327 h -1.054772 c -0.410193,0 -0.615327,0.190508 -0.615327,0.615327 v 1.040146 c 0,0.410194 0.205134,0.615253 0.615327,0.615253 z m 4.717261,0 h 1.040147 c 0.424819,0 0.615252,-0.205059 0.615252,-0.615253 v -1.040146 c 0,-0.424819 -0.190433,-0.615327 -0.615252,-0.615327 h -1.040147 c -0.424893,0 -0.615327,0.190508 -0.615327,0.615327 v 1.040146 c 0,0.410194 0.190434,0.615253 0.615327,0.615253 z m 4.702561,0 h 1.054846 c 0.410045,0 0.615328,-0.205059 0.615328,-0.615253 v -1.040146 c 0,-0.424819 -0.205283,-0.615327 -0.615328,-0.615327 h -1.054846 c -0.410193,0 -0.615253,0.190508 -0.615253,0.615327 v 1.040146 c 0,0.410194 0.20506,0.615253 0.615253,0.615253 z m 4.717261,0 h 1.040146 c 0.424894,0 0.630102,-0.205059 0.630102,-0.615253 v -1.040146 c 0,-0.424819 -0.205208,-0.615327 -0.630102,-0.615327 h -1.040146 c -0.410194,0 -0.615402,0.190508 -0.615402,0.615327 v 1.040146 c 0,0.410194 0.205208,0.615253 0.615402,0.615253 z m -18.854344,0 h 1.054772 c 0.410194,0 0.615328,-0.205059 0.615328,-0.615253 v -1.040146 c 0,-0.424819 -0.205134,-0.615327 -0.615328,-0.615327 h -1.054772 c -0.410193,0 -0.615327,0.190508 -0.615327,0.615327 v 1.040146 c 0,0.410194 0.205134,0.615253 0.615327,0.615253 z m 23.571679,0 h 1.040221 c 0.424819,0 0.61503,-0.205059 0.61503,-0.615253 v -1.040146 c 0,-0.424819 -0.190211,-0.615327 -0.61503,-0.615327 h -1.040221 c -0.424819,0 -0.615327,0.190508 -0.615327,0.615327 v 1.040146 c 0,0.410194 0.190508,0.615253 0.615327,0.615253 z m -28.274314,0 h 1.040146 c 0.424894,0 0.615328,-0.205059 0.615328,-0.615253 v -1.040146 c 0,-0.424819 -0.190434,-0.615327 -0.615328,-0.615327 h -1.040146 c -0.424819,0 -0.615253,0.190508 -0.615253,0.615327 v 1.040146 c 0,0.410194 0.190434,0.615253 0.615253,0.615253 z m 4.702635,4.717261 h 19.89449 c 0.424894,0 0.630102,-0.205059 0.630102,-0.615253 v -1.054846 c 0,-0.410119 -0.205208,-0.615253 -0.630102,-0.615253 h -19.89449 c -0.410193,0 -0.615327,0.205134 -0.615327,0.615253 v 1.054846 c 0,0.410194 0.205134,0.615253 0.615327,0.615253 z m 23.571679,0 h 1.040221 c 0.424819,0 0.61503,-0.205059 0.61503,-0.615253 v -1.054846 c 0,-0.410119 -0.190211,-0.615253 -0.61503,-0.615253 h -1.040221 c -0.424819,0 -0.615327,0.205134 -0.615327,0.615253 v 1.054846 c 0,0.410194 0.190508,0.615253 0.615327,0.615253 z m -28.274314,0 h 1.040146 c 0.424894,0 0.615328,-0.205059 0.615328,-0.615253 v -1.054846 c 0,-0.410119 -0.190434,-0.615253 -0.615328,-0.615253 h -1.040146 c -0.424819,0 -0.615253,0.205134 -0.615253,0.615253 v 1.054846 c 0,0.410194 0.190434,0.615253 0.615253,0.615253 z"
       id="path1-8"
       style="fill:#ffffff;fill-opacity:1;stroke-width:0.742431" /><path
       d="m 11.773062,42.541015 h 32.3908 c 3.047087,0 4.585331,-1.523544 4.585331,-4.526753 V 23.935757 c 0,-3.01791 -1.538244,-4.541454 -4.585331,-4.541454 h -32.3908 c -3.0617866,0 -4.6000304,1.523544 -4.6000304,4.541454 v 14.078505 c 0,3.017835 1.5382438,4.526753 4.6000304,4.526753 z m 0.04395,-2.358631 c -1.464966,0 -2.2853519,-0.776435 -2.2853519,-2.299978 V 24.067612 c 0,-1.523617 0.8203859,-2.314752 2.2853519,-2.314752 h 32.303044 c 1.45034,0 2.270579,0.791135 2.270579,2.314752 v 13.814794 c 0,1.523543 -0.820239,2.299978 -2.270579,2.299978 z m 29.73928,-12.803973 h 1.040221 c 0.424819,0 0.61503,-0.190433 0.61503,-0.615253 v -1.040146 c 0,-0.410194 -0.190211,-0.615253 -0.61503,-0.615253 h -1.040221 c -0.424819,0 -0.615327,0.205059 -0.615327,0.615253 v 1.040146 c 0,0.42482 0.190508,0.615253 0.615327,0.615253 z m -4.717335,0 h 1.040146 c 0.424894,0 0.630102,-0.190433 0.630102,-0.615253 v -1.040146 c 0,-0.410194 -0.205208,-0.615253 -0.630102,-0.615253 h -1.040146 c -0.410194,0 -0.615402,0.205059 -0.615402,0.615253 v 1.040146 c 0,0.42482 0.205208,0.615253 0.615402,0.615253 z m -4.717261,0 h 1.054846 c 0.410045,0 0.615328,-0.190433 0.615328,-0.615253 v -1.040146 c 0,-0.410194 -0.205283,-0.615253 -0.615328,-0.615253 h -1.054846 c -0.410193,0 -0.615253,0.205059 -0.615253,0.615253 v 1.040146 c 0,0.42482 0.20506,0.615253 0.615253,0.615253 z m -4.702561,0 h 1.040147 c 0.424819,0 0.615252,-0.190433 0.615252,-0.615253 v -1.040146 c 0,-0.410194 -0.190433,-0.615253 -0.615252,-0.615253 h -1.040147 c -0.424893,0 -0.615327,0.205059 -0.615327,0.615253 v 1.040146 c 0,0.42482 0.190434,0.615253 0.615327,0.615253 z m -4.717261,0 h 1.054772 c 0.410194,0 0.615328,-0.190433 0.615328,-0.615253 v -1.040146 c 0,-0.410194 -0.205134,-0.615253 -0.615328,-0.615253 h -1.054772 c -0.410193,0 -0.615327,0.205059 -0.615327,0.615253 v 1.040146 c 0,0.42482 0.205134,0.615253 0.615327,0.615253 z m -4.717261,0 h 1.054772 c 0.410194,0 0.615328,-0.190433 0.615328,-0.615253 v -1.040146 c 0,-0.410194 -0.205134,-0.615253 -0.615328,-0.615253 h -1.054772 c -0.410193,0 -0.615327,0.205059 -0.615327,0.615253 v 1.040146 c 0,0.42482 0.205134,0.615253 0.615327,0.615253 z m -4.702635,0 h 1.040146 c 0.424894,0 0.615328,-0.190433 0.615328,-0.615253 v -1.040146 c 0,-0.410194 -0.190434,-0.615253 -0.615328,-0.615253 h -1.040146 c -0.424819,0 -0.615253,0.205059 -0.615253,0.615253 v 1.040146 c 0,0.42482 0.190434,0.615253 0.615253,0.615253 z m 9.419896,4.717261 h 1.054772 c 0.410194,0 0.615328,-0.205059 0.615328,-0.615253 v -1.040146 c 0,-0.424819 -0.205134,-0.615327 -0.615328,-0.615327 h -1.054772 c -0.410193,0 -0.615327,0.190508 -0.615327,0.615327 v 1.040146 c 0,0.410194 0.205134,0.615253 0.615327,0.615253 z m 4.717261,0 h 1.040147 c 0.424819,0 0.615252,-0.205059 0.615252,-0.615253 v -1.040146 c 0,-0.424819 -0.190433,-0.615327 -0.615252,-0.615327 h -1.040147 c -0.424893,0 -0.615327,0.190508 -0.615327,0.615327 v 1.040146 c 0,0.410194 0.190434,0.615253 0.615327,0.615253 z m 4.702561,0 h 1.054846 c 0.410045,0 0.615328,-0.205059 0.615328,-0.615253 v -1.040146 c 0,-0.424819 -0.205283,-0.615327 -0.615328,-0.615327 h -1.054846 c -0.410193,0 -0.615253,0.190508 -0.615253,0.615327 v 1.040146 c 0,0.410194 0.20506,0.615253 0.615253,0.615253 z m 4.717261,0 h 1.040146 c 0.424894,0 0.630102,-0.205059 0.630102,-0.615253 v -1.040146 c 0,-0.424819 -0.205208,-0.615327 -0.630102,-0.615327 h -1.040146 c -0.410194,0 -0.615402,0.190508 -0.615402,0.615327 v 1.040146 c 0,0.410194 0.205208,0.615253 0.615402,0.615253 z m -18.854344,0 h 1.054772 c 0.410194,0 0.615328,-0.205059 0.615328,-0.615253 v -1.040146 c 0,-0.424819 -0.205134,-0.615327 -0.615328,-0.615327 h -1.054772 c -0.410193,0 -0.615327,0.190508 -0.615327,0.615327 v 1.040146 c 0,0.410194 0.205134,0.615253 0.615327,0.615253 z m 23.571679,0 h 1.040221 c 0.424819,0 0.61503,-0.205059 0.61503,-0.615253 v -1.040146 c 0,-0.424819 -0.190211,-0.615327 -0.61503,-0.615327 h -1.040221 c -0.424819,0 -0.615327,0.190508 -0.615327,0.615327 v 1.040146 c 0,0.410194 0.190508,0.615253 0.615327,0.615253 z m -28.274314,0 h 1.040146 c 0.424894,0 0.615328,-0.205059 0.615328,-0.615253 v -1.040146 c 0,-0.424819 -0.190434,-0.615327 -0.615328,-0.615327 h -1.040146 c -0.424819,0 -0.615253,0.190508 -0.615253,0.615327 v 1.040146 c 0,0.410194 0.190434,0.615253 0.615253,0.615253 z m 4.702635,4.717261 h 19.89449 c 0.424894,0 0.630102,-0.205059 0.630102,-0.615253 v -1.054846 c 0,-0.410119 -0.205208,-0.615253 -0.630102,-0.615253 h -19.89449 c -0.410193,0 -0.615327,0.205134 -0.615327,0.615253 v 1.054846 c 0,0.410194 0.205134,0.615253 0.615327,0.615253 z m 23.571679,0 h 1.040221 c 0.424819,0 0.61503,-0.205059 0.61503,-0.615253 v -1.054846 c 0,-0.410119 -0.190211,-0.615253 -0.61503,-0.615253 h -1.040221 c -0.424819,0 -0.615327,0.205134 -0.615327,0.615253 v 1.054846 c 0,0.410194 0.190508,0.615253 0.615327,0.615253 z m -28.274314,0 h 1.040146 c 0.424894,0 0.615328,-0.205059 0.615328,-0.615253 v -1.054846 c 0,-0.410119 -0.190434,-0.615253 -0.615328,-0.615253 h -1.040146 c -0.424819,0 -0.615253,0.205134 -0.615253,0.615253 v 1.054846 c 0,0.410194 0.190434,0.615253 0.615253,0.615253 z"
       id="path3"
       style="mix-blend-mode:normal;fill:#ffffff;fill-opacity:1;stroke-width:0.742431;filter:url(#filter3)" /></g><g
     id="g5"
     inkscape:label="UserIcon"><g
       id="g9"
       inkscape:label="userIco"
       inkscape:export-filename="..\..\..\images\menus\userIcon.png"
       inkscape:export-xdpi="72.82"
       inkscape:export-ydpi="72.82"><path
         id="path4"
         style="mix-blend-mode:normal;fill:#ffffff;stroke-width:0.3072;stroke-linecap:square;stroke-miterlimit:8;paint-order:stroke markers fill;filter:url(#filter5)"
         d="m 61.44,13.910869 a 20.984581,20.984581 0 0 0 -20.9847,20.9847 20.984581,20.984581 0 0 0 20.9847,20.9844 20.984581,20.984581 0 0 0 20.9847,-20.9844 20.984581,20.984581 0 0 0 -20.9847,-20.9847 z m -2.751,42.0294 a 47.314957,35.63007 0 0 0 -20.9064,4.7133 47.314957,35.63007 0 0 0 -23.6577,30.8565 h 94.6302 a 47.314957,35.63007 0 0 0 -23.6577,-30.8565 47.314957,35.63007 0 0 0 -26.4084,-4.7133 z"
         transform="matrix(1,0,0,1.0627358,0,-3.3068348)" /><path
         id="path5"
         style="fill:#ffffff;stroke-width:0.31669;stroke-linecap:square;stroke-miterlimit:8;paint-order:stroke markers fill"
         d="M 61.44,11.476744 A 20.984581,22.301066 0 0 0 40.4553,33.777936 20.984581,22.301066 0 0 0 61.44,56.07881 20.984581,22.301066 0 0 0 82.4247,33.777936 20.984581,22.301066 0 0 0 61.44,11.476744 Z M 58.689,56.142893 A 47.314957,37.865352 0 0 0 37.7826,61.151886 47.314957,37.865352 0 0 0 14.1249,93.944194 h 94.6302 A 47.314957,37.865352 0 0 0 85.0974,61.151886 47.314957,37.865352 0 0 0 58.689,56.142893 Z" /></g><g
       id="g7"
       inkscape:label="sucess"
       inkscape:export-filename="..\..\..\images\menus\sucessIcon.png"
       inkscape:export-xdpi="72.82"
       inkscape:export-ydpi="72.82"><path
         d="m 184.32841,-9.3472228 -19.5242,18.1496943 -4.21016,-5.047641 c -3.99662,-4.7959687 -11.19058,1.198969 -7.19395,5.994938 l 7.80713,9.3722155 c 1.86949,2.249632 5.32158,2.251843 7.19396,0.0046 l 23.12118,-22.4697313 c 4.03744,-4.7990656 -3.19441,-10.8347647 -7.19396,-6.0040755 z"
         id="path1-7"
         style="fill:#41ff3b;fill-opacity:1;stroke-width:0.781018;filter:url(#filter6)"
         sodipodi:nodetypes="cccccccc" /><path
         d="m 184.32841,-9.3472228 -19.5242,18.1496943 -4.21016,-5.047641 c -3.99662,-4.7959687 -11.19058,1.198969 -7.19395,5.994938 l 7.80713,9.3722155 c 1.86949,2.249632 5.32158,2.251843 7.19396,0.0046 l 23.12118,-22.4697313 c 4.03744,-4.7990656 -3.19441,-10.8347647 -7.19396,-6.0040755 z"
         id="path6"
         style="fill:#15ff47;fill-opacity:1;stroke-width:0.781018"
         sodipodi:nodetypes="cccccccc" /></g><g
       id="g8"
       inkscape:label="error"
       inkscape:export-filename="..\..\..\images\menus\errorIcon.png"
       inkscape:export-xdpi="72.82"
       inkscape:export-ydpi="72.82"><path
         d="m 188.68097,47.999609 a 5.941248,5.941248 0 0 0 -8.6016,0 l -8.9088,8.9088 -8.6016,-8.6016 a 6.08256,6.08256 0 0 0 -8.6016,8.6016 l 8.6016,8.6016 -8.6016,8.6016 a 6.08256,6.08256 0 0 0 8.6016,8.6016 l 8.6016,-8.6016 8.6016,8.6016 a 6.08256,6.08256 0 0 0 8.6016,-8.6016 l -8.6016,-8.6016 8.6016,-8.6016 a 6.617088,6.617088 0 0 0 0.3072,-8.9088 z"
         id="path2-7"
         style="fill:#e42323;stroke-width:0.6144;fill-opacity:1;filter:url(#filter7)" /><path
         d="m 188.68097,47.999609 a 5.941248,5.941248 0 0 0 -8.6016,0 l -8.9088,8.9088 -8.6016,-8.6016 a 6.08256,6.08256 0 0 0 -8.6016,8.6016 l 8.6016,8.6016 -8.6016,8.6016 a 6.08256,6.08256 0 0 0 8.6016,8.6016 l 8.6016,-8.6016 8.6016,8.6016 a 6.08256,6.08256 0 0 0 8.6016,-8.6016 l -8.6016,-8.6016 8.6016,-8.6016 a 6.617088,6.617088 0 0 0 0.3072,-8.9088 z"
         id="path7"
         style="fill:#f91b3c;stroke-width:0.6144;fill-opacity:1" /></g></g></g></svg>
